<?xml version="1.0" encoding="UTF-8" standalone="no"?>
<svg
   id="wrapper"
   viewBox="0 0 250.0326 158.59354"
   preserveAspectRatio="xMinYMin"
   height="158.59354"
   width="250.03261"
   version="1.1"
   sodipodi:docname="montana.svg"
   inkscape:version="1.2.2 (b0a8486541, 2022-12-01)"
   xmlns:inkscape="http://www.inkscape.org/namespaces/inkscape"
   xmlns:sodipodi="http://sodipodi.sourceforge.net/DTD/sodipodi-0.dtd"
   xmlns="http://www.w3.org/2000/svg"
   xmlns:svg="http://www.w3.org/2000/svg"
   xmlns:rdf="http://www.w3.org/1999/02/22-rdf-syntax-ns#"
   xmlns:cc="http://creativecommons.org/ns#"
   xmlns:dc="http://purl.org/dc/elements/1.1/">
  <defs
     id="defs170" />
  <sodipodi:namedview
     id="namedview168"
     pagecolor="#ffffff"
     bordercolor="#000000"
     borderopacity="0.25"
     inkscape:showpageshadow="2"
     inkscape:pageopacity="0.0"
     inkscape:pagecheckerboard="0"
     inkscape:deskcolor="#d1d1d1"
     showgrid="false"
     inkscape:zoom="0.93004926"
     inkscape:cx="369.87288"
     inkscape:cy="341.91737"
     inkscape:window-width="2560"
     inkscape:window-height="1408"
     inkscape:window-x="2560"
     inkscape:window-y="0"
     inkscape:window-maximized="1"
     inkscape:current-layer="wrapper" />
  <metadata
     id="metadata2">
    <rdf:rdf>
      <cc:work
         rdf:about="">
        <dc:format>image/svg+xml</dc:format>
        <dc:type
           rdf:resource="http://purl.org/dc/dcmitype/StillImage" />
        <dc:title>MapChart Map</dc:title>
        <dc:creator>
          <cc:agent>
            <dc:title>MapChart.net</dc:title>
          </cc:agent>
        </dc:creator>
        <cc:license
           rdf:resource="http://creativecommons.org/licenses/by-sa/4.0/" />
        <dc:description>This map was created with MapChart.net, a website for creating custom maps.</dc:description>
      </cc:work>
      <cc:license
         rdf:about="http://creativecommons.org/licenses/by-sa/4.0/">
        <cc:permits
           rdf:resource="http://creativecommons.org/ns#Reproduction" />
        <cc:permits
           rdf:resource="http://creativecommons.org/ns#Distribution" />
        <cc:requires
           rdf:resource="http://creativecommons.org/ns#Notice" />
        <cc:requires
           rdf:resource="http://creativecommons.org/ns#Attribution" />
        <cc:requires
           rdf:resource="http://creativecommons.org/ns#ShareAlike" />
      </cc:license>
    </rdf:rdf>
  </metadata>
  <g
     id="map-group"
     transform="translate(-320.63721,-75.630724)">
    <svg
       id="map"
       width="1460.16"
       height="1015"
       version="1"
       viewBox="0 0 1460.16 1015"
       preserveAspectRatio="xMinYMin"
       data-originalStrokeWidth="0.3">
      <defs
         id="defs104">
        <pattern
           id="circles3"
           width="10"
           height="10"
           patternUnits="userSpaceOnUse">
          <rect
             width="10"
             height="10"
             fill="#fff"
             id="rect5" />
          <circle
             cx="4"
             cy="4"
             r="2"
             fill="#000"
             id="circle7" />
        </pattern>
        <pattern
           id="diagonal1"
           width="10"
           height="10"
           patternUnits="userSpaceOnUse">
          <rect
             width="10"
             height="10"
             fill="#fff"
             id="rect10" />
          <path
             id="pattern0"
             d="M-1,1 l2,-2 M0,10 l10,-10 M9,11 l2,-2"
             stroke="#000"
             stroke-width="1" />
        </pattern>
        <pattern
           id="diagonal3"
           width="10"
           height="10"
           patternUnits="userSpaceOnUse">
          <rect
             width="10"
             height="10"
             fill="#fff"
             id="rect14" />
          <path
             id="pattern1"
             d="M-1,1 l2,-2 M0,10 l10,-10 M9,11 l2,-2"
             stroke="#000"
             stroke-width="3" />
        </pattern>
        <pattern
           id="vertical1"
           width="10"
           height="10"
           patternUnits="userSpaceOnUse">
          <rect
             width="10"
             height="10"
             fill="#fff"
             id="rect18" />
          <rect
             x="2"
             y="0"
             width="1"
             height="10"
             fill="#000"
             id="rect20" />
        </pattern>
        <pattern
           id="vertical3"
           width="10"
           height="10"
           patternUnits="userSpaceOnUse">
          <rect
             width="10"
             height="10"
             fill="#fff"
             id="rect23" />
          <rect
             x="2"
             y="0"
             width="3"
             height="10"
             fill="#000"
             id="rect25" />
        </pattern>
        <pattern
           id="horizontal1"
           width="10"
           height="10"
           patternUnits="userSpaceOnUse">
          <rect
             width="10"
             height="10"
             fill="#fff"
             id="rect28" />
          <rect
             x="0"
             y="2"
             width="10"
             height="1"
             fill="#000"
             id="rect30" />
        </pattern>
        <pattern
           id="horizontal3"
           width="10"
           height="10"
           patternUnits="userSpaceOnUse">
          <rect
             width="10"
             height="10"
             fill="#fff"
             id="rect33" />
          <rect
             x="0"
             y="2"
             width="10"
             height="3"
             fill="#000"
             id="rect35" />
        </pattern>
        <pattern
           id="crosshatch"
           width="8"
           height="8"
           patternUnits="userSpaceOnUse">
          <rect
             width="8"
             height="8"
             fill="#fff"
             id="rect38" />
          <path
             id="pattern2"
             d="M0 0L8 8ZM8 0L0 8Z"
             stroke-width="0.5"
             stroke="#aaa" />
        </pattern>
        <pattern
           id="subtlepatch"
           width="5"
           height="5"
           patternUnits="userSpaceOnUse">
          <rect
             width="5"
             height="5"
             fill="#fff"
             id="rect42" />
          <rect
             x="2"
             y="2"
             width="1"
             height="1"
             fill="#000"
             id="rect44" />
        </pattern>
        <pattern
           id="checkers"
           width="8"
           height="8"
           patternUnits="userSpaceOnUse">
          <rect
             width="8"
             height="8"
             fill="#fff"
             id="rect47" />
          <path
             id="pattern3"
             fill="#000"
             fill-rule="evenodd"
             d="M0 0h4v4H0V0zm4 4h4v4H4V4z" />
        </pattern>
        <pattern
           id="raindrops"
           width="10"
           height="10"
           patternUnits="userSpaceOnUse">
          <rect
             width="10"
             height="10"
             fill="#fff"
             id="rect51" />
          <path
             id="pattern4"
             fill="#000"
             d="M0 38.59l2.83-2.83 1.41 1.41L1.41 40H0v-1.41zM0 1.4l2.83 2.83 1.41-1.41L1.41 0H0v1.41zM38.59 40l-2.83-2.83 1.41-1.41L40 38.59V40h-1.41zM40 1.41l-2.83 2.83-1.41-1.41L38.59 0H40v1.41zM20 18.6l2.83-2.83 1.41 1.41L21.41 20l2.83 2.83-1.41 1.41L20 21.41l-2.83 2.83-1.41-1.41L18.59 20l-2.83-2.83 1.41-1.41L20 18.59z" />
        </pattern>
        <pattern
           id="texture"
           width="4"
           height="4"
           patternUnits="userSpaceOnUse">
          <rect
             width="4"
             height="4"
             fill="#fff"
             id="rect55" />
          <path
             id="pattern5"
             fill="#000"
             d="M1 3h1v1H1V3zm2-2h1v1H3V1z" />
        </pattern>
        <pattern
           id="circles3_a03500_000000"
           width="10"
           height="10"
           patternUnits="userSpaceOnUse">
          <rect
             width="10"
             height="10"
             fill="#a03500"
             id="rect59" />
          <circle
             cx="4"
             cy="4"
             r="2"
             fill="#000000"
             id="circle61" />
        </pattern>
        <pattern
           id="diagonal1_d9b400_535353"
           width="10"
           height="10"
           patternUnits="userSpaceOnUse">
          <rect
             width="10"
             height="10"
             fill="#d9b400"
             id="rect64" />
          <path
             id="path66"
             d="M-1,1 l2,-2 M0,10 l10,-10 M9,11 l2,-2"
             stroke="#535353"
             stroke-width="1" />
        </pattern>
        <pattern
           id="diagonal3_3264c8_ffffff"
           width="10"
           height="10"
           patternUnits="userSpaceOnUse">
          <rect
             width="10"
             height="10"
             fill="#3264c8"
             id="rect69" />
          <path
             id="path71"
             d="M-1,1 l2,-2 M0,10 l10,-10 M9,11 l2,-2"
             stroke="#ffffff"
             stroke-width="3" />
        </pattern>
        <pattern
           id="horizontal1_72b38e_000000"
           width="10"
           height="10"
           patternUnits="userSpaceOnUse">
          <rect
             width="10"
             height="10"
             fill="#72b38e"
             id="rect74" />
          <rect
             x="0"
             y="2"
             width="10"
             height="1"
             fill="#000000"
             id="rect76" />
        </pattern>
        <pattern
           id="horizontal3_986ba1_ffffff"
           width="10"
           height="10"
           patternUnits="userSpaceOnUse">
          <rect
             width="10"
             height="10"
             fill="#986ba1"
             id="rect79" />
          <rect
             x="0"
             y="2"
             width="10"
             height="3"
             fill="#ffffff"
             id="rect81" />
        </pattern>
        <pattern
           id="vertical1_b9a087_ffffff"
           width="10"
           height="10"
           patternUnits="userSpaceOnUse">
          <rect
             width="10"
             height="10"
             fill="#b9a087"
             id="rect84" />
          <rect
             x="2"
             y="0"
             width="1"
             height="10"
             fill="#ffffff"
             id="rect86" />
        </pattern>
        <pattern
           id="vertical3_4c91bf_ffff33"
           width="10"
           height="10"
           patternUnits="userSpaceOnUse">
          <rect
             width="10"
             height="10"
             fill="#4c91bf"
             id="rect89" />
          <rect
             x="2"
             y="0"
             width="3"
             height="10"
             fill="#ffff33"
             id="rect91" />
        </pattern>
        <pattern
           id="checkers_cc3333_f7f7f7"
           width="8"
           height="8"
           patternUnits="userSpaceOnUse">
          <rect
             width="8"
             height="8"
             fill="#cc3333"
             id="rect94" />
          <path
             id="path96"
             fill="#f7f7f7"
             fill-rule="evenodd"
             d="M0 0h4v4H0V0zm4 4h4v4H4V4z" />
        </pattern>
        <pattern
           id="texture_d1dbdd_525252"
           width="4"
           height="4"
           patternUnits="userSpaceOnUse">
          <rect
             width="4"
             height="4"
             fill="#d1dbdd"
             id="rect99" />
          <path
             id="path101"
             fill="#525252"
             d="M1 3h1v1H1V3zm2-2h1v1H3V1z" />
        </pattern>
      </defs>
      <path
         id="Sheridan__MT"
         fill="#d1dbdd"
         fill-opacity="1"
         stroke="#d1dbdd"
         stroke-dasharray="none"
         stroke-miterlimit="4"
         stroke-opacity="1"
         stroke-width="0.1"
         d="m 570.62,111.97 -0.93,11.1 -0.6,7.44 -12,-1.05 0.25,-2.64 -2.83,-0.37 0.4,-2.52 -4.44,-0.42 0.25,-2.62 -1.35,-0.14 0.37,-7.94 0.26,-2.68 20.62,1.84"
         class="c30091"
         data-originalStrokeWidth="0.1"
         style="fill:#d1dbdd;stroke:#d1dbdd;stroke-width:0.1px"
         pointer-events="auto" />
      <path
         id="Roosevelt__MT"
         fill="#d1dbdd"
         fill-opacity="1"
         stroke="#d1dbdd"
         stroke-dasharray="none"
         stroke-miterlimit="4"
         stroke-opacity="1"
         stroke-width="0.1"
         d="m 550.47,123.52 4.43,0.4 -0.4,2.53 2.84,0.37 -0.25,2.64 12,1.05 -0.97,11.97 -3.95,-1.37 -4.07,-2.37 -8.7,-2.2 -1.23,0.5 -0.55,0.73 -0.67,0.5 -0.44,0.23 h -2.53 l -1.54,-0.3 -1.17,-0.85 -1.77,-0.34 -1.54,-0.07 -3.76,-0.05 -1.02,0.04 -1.12,0.6 -3.23,1 0.67,-6.34 0.8,0.08 1.08,-10.44 17.1,1.7"
         class="c30085"
         data-originalStrokeWidth="0.1"
         style="fill:#d1dbdd;stroke:#d1dbdd;stroke-width:0.1px"
         pointer-events="auto" />
      <path
         id="Gallatin__MT"
         fill="#d1dbdd"
         fill-opacity="1"
         stroke="#d1dbdd"
         stroke-dasharray="none"
         stroke-miterlimit="4"
         stroke-opacity="1"
         stroke-width="0.1"
         d="m 414.23,179.3 5.9,0.94 -0.39,1.5 -0.72,4.3 -0.16,1.6 -0.35,2.23 -0.45,2.7 -1.04,6.25 -1.5,-0.14 -0.04,0.83 -0.24,1.19 -1.32,-0.16 -0.67,4.8 -2.58,-0.4 -1.04,5.29 -0.37,2.3 -0.42,3.04 -1.65,9.73 -1.02,6.32 -1.75,-1.63 -0.25,-0.73 -0.96,-2.77 -1.77,-3.46 -1.03,-1.02 0.8,-4.87 2.28,-13.33 0.62,-0.86 1.28,-7.92 -3.95,-0.65 -1.46,-2.04 -0.84,-1.5 -1,-1.07 -0.79,-0.58 -0.84,-0.5 3.27,-0.56 4.6,-2.91 1.26,-1.15 0.3,-2.04 0.74,-1.24 1.44,-1.83 0.94,-0.34 3.1,0.33 2.07,0.35"
         class="c30031"
         data-originalStrokeWidth="0.1"
         style="fill:#d1dbdd;stroke:#d1dbdd;stroke-width:0.1px"
         pointer-events="auto" />
      <path
         id="Madison__MT"
         fill="#d1dbdd"
         fill-opacity="1"
         stroke="#d1dbdd"
         stroke-dasharray="none"
         stroke-miterlimit="4"
         stroke-opacity="1"
         stroke-width="0.1"
         d="m 388.1,188.82 0.11,0.03 0.42,-0.02 0.7,-0.52 0.62,-1.16 0.12,-0.6 0.24,-0.22 0.53,-0.18 1.4,-0.1 1.83,0.47 2.38,1.67 0.1,0.16 -0.04,0.33 0.84,0.5 0.8,0.58 1,1.07 0.83,1.5 1.46,2.03 3.95,0.66 -1.28,7.9 -0.62,0.87 -2.27,13.34 -0.8,4.86 -2.46,0.93 -6.5,-1.07 0.37,-2.2 -2.6,-0.42 -3.5,-0.7 0.06,-1.26 -2.03,-0.41 -0.05,-2.7 0.45,-2.66 -3.08,-0.54 0.14,-2.61 -2.3,-0.52 1.36,-7.93 0.1,-1.37 -0.63,-1.64 -0.65,-0.2 -0.58,0.14 -0.36,0.2 -0.4,-0.06 -0.63,-0.46 -1.08,-1.4 -0.05,-0.15 v -1.56 l 0.87,-2.71 2.08,-0.8 1.03,-0.45 0.53,-0.4 0.26,-0.24 1.51,-0.83 5.8,0.83"
         class="c30057"
         data-originalStrokeWidth="0.1"
         style="fill:#d1dbdd;stroke:#d1dbdd;stroke-width:0.1px"
         pointer-events="auto" />
      <path
         id="Broadwater__MT"
         fill="#d1dbdd"
         fill-opacity="1"
         stroke="#d1dbdd"
         stroke-dasharray="none"
         stroke-miterlimit="4"
         stroke-opacity="1"
         stroke-width="0.1"
         d="m 400.8,165.39 3.18,0.12 0.8,-4.71 0.83,-1.01 0.12,-0.07 0.35,-0.07 1.78,0.9 0.97,3.42 1.82,1.52 -0.8,2.82 1.7,1.46 0.36,2.35 2.04,-0.44 1.87,2.1 -2.66,3.04 0.88,1.04 0.2,1.43 -2.08,-0.34 -3.1,-0.33 -0.94,0.34 -1.44,1.83 -0.75,1.24 -0.29,2.03 -1.26,1.15 -4.6,2.92 1.08,-6.55 -2.62,-0.45 2.56,-15.74"
         class="c30007"
         data-originalStrokeWidth="0.1"
         style="fill:#d1dbdd;stroke:#d1dbdd;stroke-width:0.1px"
         pointer-events="auto" />
      <path
         id="Jefferson__MT"
         fill="#d1dbdd"
         fill-opacity="1"
         stroke="#d1dbdd"
         stroke-dasharray="none"
         stroke-miterlimit="4"
         stroke-opacity="1"
         stroke-width="0.1"
         d="m 389.04,168 0.81,0.3 0.8,-0.17 1.4,-0.7 0.04,-0.07 -0.06,-0.5 3.37,-0.45 0.33,-1.88 5.07,0.86 -2.57,15.73 2.63,0.46 -1.08,6.55 -3.27,0.56 0.04,-0.34 -0.1,-0.15 -2.38,-1.68 -1.84,-0.46 -1.39,0.1 -0.53,0.18 -0.24,0.22 -0.12,0.6 -0.63,1.16 -0.7,0.52 -0.4,0.02 -0.13,-0.04 -3.65,-3.02 -0.6,-1.4 0.2,-6.43 v -0.6 l -1.12,-2.75 -0.77,-0.26 0.86,-2.57 v -0.77 l 0.1,-0.46 0.78,-0.66 3.3,-1.03 1.85,-0.86"
         class="c30043"
         data-originalStrokeWidth="0.1"
         style="fill:#d1dbdd;stroke:#d1dbdd;stroke-width:0.1px"
         pointer-events="auto" />
      <path
         id="Silver_Bow__MT"
         fill="#d1dbdd"
         fill-opacity="1"
         stroke="#d1dbdd"
         stroke-dasharray="none"
         stroke-miterlimit="4"
         stroke-opacity="1"
         stroke-width="0.1"
         d="m 382.15,174.35 0.77,0.26 1.12,2.76 v 0.6 l -0.2,6.42 0.6,1.4 3.65,3.02 -5.8,-0.83 -1.52,0.83 -0.26,0.25 -0.53,0.39 -1.03,0.45 -2.08,0.8 -0.9,-3.03 -0.74,-1.45 -0.75,-0.73 -3.43,-1.8 -1.37,-1.64 1.4,-0.14 0.94,-0.46 1.25,-0.8 0.24,-0.22 -0.04,-1.7 1.1,0.12 1.07,-1.6 1.7,0.2 0.35,-2.56 2.61,-0.02 1.85,-0.53"
         class="c30093"
         data-originalStrokeWidth="0.1"
         style="fill:#d1dbdd;stroke:#d1dbdd;stroke-width:0.1px"
         pointer-events="auto" />
      <path
         id="Deer_Lodge__MT"
         fill="#d1dbdd"
         fill-opacity="1"
         stroke="#d1dbdd"
         stroke-dasharray="none"
         stroke-miterlimit="4"
         stroke-opacity="1"
         stroke-width="0.1"
         d="m 383.01,171.78 -0.86,2.57 -1.85,0.52 -2.6,0.03 -0.37,2.57 -1.69,-0.2 -1.06,1.58 -1.1,-0.11 0.03,1.7 -0.24,0.23 -1.25,0.79 -0.95,0.46 -1.39,0.14 0.02,-0.36 -0.2,-0.32 -0.15,-0.07 -1.5,-0.36 -0.8,0.17 -3.03,1.45 -0.37,0.44 -0.86,0.96 -0.69,-1.85 -0.14,-1.63 -0.53,-2.3 -0.1,-0.2 h -0.1 l -0.23,0.04 -0.03,-0.04 1.83,-0.95 1.83,-0.47 1.75,-0.9 0.61,-2.7 0.48,-2.63 5.22,0.94 0.24,-1.31 10.08,1.83"
         class="c30023"
         data-originalStrokeWidth="0.1"
         style="fill:#d1dbdd;stroke:#d1dbdd;stroke-width:0.1px"
         pointer-events="auto" />
      <path
         id="Beaverhead__MT"
         fill="#d1dbdd"
         fill-opacity="1"
         stroke="#d1dbdd"
         stroke-dasharray="none"
         stroke-miterlimit="4"
         stroke-opacity="1"
         stroke-width="0.1"
         d="m 361,178.02 0.23,-0.03 h 0.1 l 0.1,0.2 0.53,2.3 0.14,1.62 0.7,1.85 0.85,-0.96 0.37,-0.44 3.02,-1.45 0.81,-0.17 1.5,0.37 0.15,0.06 0.2,0.32 -0.02,0.36 1.37,1.65 3.43,1.78 0.75,0.73 0.74,1.46 0.9,3.02 -0.86,2.72 v 1.55 l 0.04,0.17 1.08,1.38 0.64,0.47 0.4,0.05 0.35,-0.2 0.58,-0.13 0.65,0.2 0.62,1.63 -0.09,1.37 -1.37,7.93 2.3,0.52 -0.13,2.62 3.08,0.53 -0.45,2.66 0.05,2.7 2.03,0.4 -0.07,1.28 3.5,0.7 2.61,0.42 -0.36,2.2 6.5,1.06 -3.74,4.28 -2.8,-0.08 -4.34,-1.24 -5.99,-0.61 -3.27,1.22 -7.7,-1.91 -1.45,0.34 -0.85,0.9 -0.3,0.49 -0.27,1.15 v 0.08 l -0.23,0.34 -0.44,0.24 -0.56,-0.2 -1.75,-1.96 -0.6,-0.86 -0.25,-1.46 0.03,-3.84 0.1,-0.06 0.12,-0.24 v -0.24 l -0.63,-2.68 -0.47,-1.47 -0.4,-0.64 -0.93,-1.02 -0.76,-0.6 -0.73,0.18 -3.58,-4.97 -3.37,-12.53 -0.03,-2.41 0.06,-1.83 0.28,-0.5 0.02,-0.92 -0.25,-2.45 -0.12,-0.38 -2.09,-2.95 -0.44,-0.46 0.44,0.02 0.72,-0.12 6.8,-3.01 1.35,-0.71 0.77,-0.54 L 361,178"
         class="c30001"
         data-originalStrokeWidth="0.1"
         style="fill:#d1dbdd;stroke:#d1dbdd;stroke-width:0.1px"
         pointer-events="auto" />
      <path
         id="Ravalli__MT"
         fill="#d1dbdd"
         fill-opacity="1"
         stroke="#d1dbdd"
         stroke-dasharray="none"
         stroke-miterlimit="4"
         stroke-opacity="1"
         stroke-width="0.1"
         d="m 358.55,154.97 -1.18,3.89 0.32,4.97 0.07,3.04 -1.1,2.8 0.14,4.1 1.56,2.92 1.3,1.08 1.31,0.2 0.03,0.04 -0.68,1.27 -0.77,0.54 -1.34,0.7 -6.8,3.02 -0.73,0.13 -0.44,-0.03 -1.9,1.08 -2.65,2.33 -4.22,1.94 -0.88,-0.14 -0.2,-0.75 -1.58,-2.5 -0.27,-0.12 -0.85,-0.22 -0.94,-0.13 -0.07,-0.08 0.02,-0.1 0.38,-2.1 0.75,-4.12 6,-14.98 1.9,-4.2 1.25,-2.9 0.75,-2.1 0.12,-0.67 -0.07,-0.35 -0.12,-0.13 10.9,1.58"
         class="c30081"
         data-originalStrokeWidth="0.1"
         style="fill:#d1dbdd;stroke:#d1dbdd;stroke-width:0.1px"
         pointer-events="auto" />
      <path
         id="Granite__MT"
         fill="#d1dbdd"
         fill-opacity="1"
         stroke="#d1dbdd"
         stroke-dasharray="none"
         stroke-miterlimit="4"
         stroke-opacity="1"
         stroke-width="0.1"
         d="m 370.48,151.86 1.94,1.87 0.7,1.77 0.6,0.66 1.21,-0.3 0.33,-0.16 0.21,0.07 -1.35,7.74 -1.19,6.45 -0.24,1.3 -5.22,-0.93 -0.48,2.63 -0.6,2.7 -1.76,0.9 -1.83,0.47 -1.83,0.95 -1.3,-0.2 -1.3,-1.08 -1.57,-2.92 -0.13,-4.11 1.1,-2.8 -0.08,-3.04 -0.32,-4.97 1.18,-3.88 0.7,0.2 2.64,0.5 0.4,-1.45 2.4,0.44 0.57,-1.03 1.06,0.02 0.3,-1.6 1.36,0.2 0.13,-0.82 2.37,0.43"
         class="c30039"
         data-originalStrokeWidth="0.1"
         style="fill:#d1dbdd;stroke:#d1dbdd;stroke-width:0.1px"
         pointer-events="auto" />
      <path
         id="Lewis_and_Clark__MT"
         fill="#d1dbdd"
         fill-opacity="1"
         stroke="#d1dbdd"
         stroke-dasharray="none"
         stroke-miterlimit="4"
         stroke-opacity="1"
         stroke-width="0.1"
         d="m 383.23,119.28 0.28,5.85 -0.2,2.25 0.08,0.29 0.7,1.58 0.68,1.07 0.75,0.42 0.17,0.02 2.43,-0.32 2.37,-0.5 0.1,0.03 2.35,1.94 0.17,0.63 -0.1,0.15 -0.03,0.7 0.03,0.06 2.33,1.66 1.4,0.5 2.15,0.3 1.34,-0.05 -1.62,9.77 1.95,1.92 0.8,0.67 0.45,0.06 0.07,-0.11 1.73,0.28 -1.1,6.5 2.76,0.48 0.64,1.28 -0.83,1.28 2.6,1.6 0.18,0.96 -1.78,-0.9 -0.35,0.07 -0.12,0.07 -0.83,1 -0.8,4.72 -3.18,-0.12 -5.07,-0.86 -0.33,1.89 -3.37,0.45 0.06,0.5 -0.05,0.07 -1.4,0.69 -0.79,0.18 -0.8,-0.3 0.27,-0.88 0.9,-4.37 -0.27,-1.93 -1.72,-0.14 0.18,-1.48 -2.62,-0.42 0.73,-4.1 -2.78,-0.47 -0.24,0.02 -2.43,-0.44 1.77,-10.02 0.07,-0.4 -5.25,-0.94 -0.19,-0.11 1.67,-9.26 h -0.37 l -0.59,-2.4 -0.2,-1.23 0.25,-3.82 0.05,-0.23 2.53,-0.5 0.42,-3.8 1.1,-1.18 0.9,-0.63"
         class="c30049"
         data-originalStrokeWidth="0.1"
         style="fill:#d1dbdd;stroke:#d1dbdd;stroke-width:0.1px"
         pointer-events="auto" />
      <path
         id="Powell__MT"
         fill="#d1dbdd"
         fill-opacity="1"
         stroke="#d1dbdd"
         stroke-dasharray="none"
         stroke-miterlimit="4"
         stroke-opacity="1"
         stroke-width="0.1"
         d="m 371.36,128.1 6.62,1.34 0.2,1.24 0.6,2.39 h 0.36 l -1.67,9.26 0.2,0.1 5.24,0.94 -0.07,0.4 -1.77,10.03 2.43,0.44 0.24,-0.03 2.78,0.48 -0.73,4.1 2.62,0.42 -0.18,1.48 1.72,0.14 0.27,1.93 -0.9,4.37 -0.28,0.87 -1.85,0.86 -3.3,1.04 -0.79,0.65 -0.08,0.46 v 0.78 l -10.09,-1.83 1.2,-6.45 1.34,-7.74 -0.2,-0.06 -0.34,0.15 -1.2,0.3 -0.62,-0.66 -0.7,-1.77 -1.93,-1.87 1.92,-10.47 -3.39,-0.6 2.35,-12.68"
         class="c30077"
         data-originalStrokeWidth="0.1"
         style="fill:#d1dbdd;stroke:#d1dbdd;stroke-width:0.1px"
         pointer-events="auto" />
      <path
         id="Lake__MT"
         fill="#d1dbdd"
         fill-opacity="1"
         stroke="#d1dbdd"
         stroke-dasharray="none"
         stroke-miterlimit="4"
         stroke-opacity="1"
         stroke-width="0.1"
         d="m 367.91,127.47 -6.48,-1.25 0.68,10.3 0.05,0.18 -0.5,2.6 -2.58,0.88 -5.27,-1 0.27,-1.32 0.68,-5.3 -1.76,-0.34 -0.5,-0.23 -0.18,-0.2 -0.45,-0.83 0.53,-1.47 0.48,-0.77 0.1,-0.02 0.18,0.09 0.5,-0.74 0.08,-3.1 -0.12,-0.17 -0.45,-0.2 -1.3,-0.25 -3.5,-0.7 0.42,-4.41 0.27,-1.3 2.6,0.5 0.5,-2.55 -0.02,-0.91 0.24,-1.75 9.28,1.79 0.12,-0.82 -0.04,-0.23 -0.1,-0.14 -0.15,-0.02 -0.03,-0.72 0.4,-0.37 0.53,-0.34 2.9,0.58 3.53,5.52 0.04,0.16 0.35,5.3 -0.02,0.76 -0.1,0.47 -1.18,2.32"
         class="c30047"
         data-originalStrokeWidth="0.1"
         style="fill:#d1dbdd;stroke:#d1dbdd;stroke-width:0.1px"
         pointer-events="auto" />
      <path
         id="Missoula__MT"
         fill="#d1dbdd"
         fill-opacity="1"
         stroke="#d1dbdd"
         stroke-dasharray="none"
         stroke-miterlimit="4"
         stroke-opacity="1"
         stroke-width="0.1"
         d="m 367.91,127.47 3.45,0.64 -2.35,12.68 3.4,0.6 -1.93,10.47 -2.37,-0.43 -0.13,0.84 -1.37,-0.2 -0.29,1.59 -1.06,-0.02 -0.58,1.03 -2.4,-0.45 -0.4,1.46 -2.63,-0.5 -0.7,-0.2 -10.89,-1.58 -0.1,-0.1 -0.37,-0.3 -1.1,-0.15 -0.56,0.1 -0.34,0.14 -0.48,0.13 -2.3,-0.48 -0.04,-0.04 -1.16,-2.92 0.16,-0.84 2.6,0.26 0.3,-3 2.25,-4.42 0.3,-1.74 -0.32,-0.06 -0.32,-0.07 -0.3,-0.07 -0.33,-0.07 -0.52,-1.64 -1.35,-1.43 0.16,-1.96 -2.03,-1.12 0.16,-0.85 2.32,0.28 1.17,0.5 1.51,0.84 2.45,1.82 0.68,0.7 0.4,1.06 1.08,1.1 0.31,0.2 0.44,0.17 1.48,-0.26 5.27,1 2.57,-0.86 0.5,-2.61 -0.04,-0.2 -0.68,-10.28 6.48,1.25"
         class="c30063"
         data-originalStrokeWidth="0.1"
         style="fill:#d1dbdd;stroke:#d1dbdd;stroke-width:0.1px"
         pointer-events="auto" />
      <path
         id="Mineral__MT"
         fill="#d1dbdd"
         fill-opacity="1"
         stroke="#d1dbdd"
         stroke-dasharray="none"
         stroke-miterlimit="4"
         stroke-opacity="1"
         stroke-width="0.1"
         d="m 324.23,120.97 0.75,1.3 0.47,0.54 1.02,0.35 0.84,0.28 2.8,0.48 0.7,-0.18 0.18,0.03 2.3,0.42 0.65,0.32 4.13,2.9 0.9,0.79 0.1,0.69 -0.39,1.84 2.36,1.85 0.93,0.18 -0.16,0.85 2.03,1.12 -0.16,1.96 1.35,1.44 0.52,1.64 0.32,0.07 0.31,0.06 0.32,0.07 0.32,0.07 -0.3,1.73 -2.25,4.44 -0.3,2.98 -2.6,-0.25 -0.16,0.84 h -0.92 l -0.14,-0.04 -0.3,-0.08 -3.1,-4.14 -0.1,-0.26 v -0.02 l -0.4,-3.11 -0.55,-1 -0.99,-1.84 -1.75,-4.1 -1.87,-4.2 -0.36,-0.27 -1.64,-0.65 -1.13,-0.55 -0.35,-0.32 -0.45,-0.38 -3.3,-4.56 -0.02,-0.76 v -0.03 l 0.4,-2.47"
         class="c30061"
         data-originalStrokeWidth="0.1"
         style="fill:#d1dbdd;stroke:#d1dbdd;stroke-width:0.1px"
         pointer-events="auto" />
      <path
         id="Sanders__MT"
         fill="#d1dbdd"
         fill-opacity="1"
         stroke="#d1dbdd"
         stroke-dasharray="none"
         stroke-miterlimit="4"
         stroke-opacity="1"
         stroke-width="0.1"
         d="m 322.18,99.12 2.17,1.44 1.2,-0.35 2.37,-1.04 1.68,3.43 1.17,6.27 1.12,1.55 0.22,0.18 3.74,1.5 2.1,-0.46 1.01,-1.17 0.22,-1.65 2.93,0.6 0.35,0.53 -0.8,3.9 2.63,0.52 1.77,0.3 3.5,0.67 -0.5,2.58 -0.27,1.3 -0.42,4.42 3.5,0.7 1.3,0.24 0.45,0.2 0.12,0.17 -0.08,3.1 -0.5,0.74 -0.17,-0.1 -0.1,0.03 -0.5,0.76 -0.52,1.48 0.45,0.84 0.17,0.2 0.5,0.22 1.77,0.34 -0.68,5.3 -0.27,1.3 -1.48,0.27 -0.44,-0.16 -0.3,-0.22 -1.1,-1.1 -0.39,-1.06 -0.68,-0.7 -2.45,-1.81 -1.5,-0.84 -1.18,-0.5 -2.32,-0.28 -0.93,-0.2 -2.36,-1.84 0.38,-1.84 -0.09,-0.7 -0.9,-0.77 -4.13,-2.91 -0.65,-0.32 -2.3,-0.42 -0.17,-0.03 -0.72,0.18 -2.8,-0.48 -0.83,-0.28 -1.02,-0.35 -0.47,-0.54 -0.74,-1.3 0.6,-1.34 0.7,-1.78 v -1.88 l -0.04,-0.08 -0.03,-0.1 -4.15,-8.45 -0.63,-1.13 1.5,-7.11"
         class="c30089"
         data-originalStrokeWidth="0.1"
         style="fill:#d1dbdd;stroke:#d1dbdd;stroke-width:0.1px"
         pointer-events="auto" />
      <path
         id="Lincoln__MT"
         fill="#d1dbdd"
         fill-opacity="1"
         stroke="#d1dbdd"
         stroke-dasharray="none"
         stroke-miterlimit="4"
         stroke-opacity="1"
         stroke-width="0.1"
         d="m 324.03,90.56 3.17,-14.87 16.03,3.4 8.88,1.79 1.64,0.32 -0.03,4.24 0.9,3.57 v 0.08 l -1.1,2.67 -5.05,-1 -0.08,1.74 0.35,0.96 -2.05,10.38 -3.03,-0.61 -0.48,-0.08 -0.54,2.6 -0.53,3.67 -2.93,-0.6 -0.22,1.65 -1,1.17 -2.1,0.47 -3.75,-1.51 -0.22,-0.18 -1.12,-1.55 -1.17,-6.27 -1.68,-3.43 -2.38,1.04 -1.2,0.35 -2.16,-1.45 1.84,-8.55"
         class="c30053"
         data-originalStrokeWidth="0.1"
         style="fill:#d1dbdd;stroke:#d1dbdd;stroke-width:0.1px"
         pointer-events="auto" />
      <path
         id="Flathead__MT"
         fill="#d1dbdd"
         fill-opacity="1"
         stroke="#d1dbdd"
         stroke-dasharray="none"
         stroke-miterlimit="4"
         stroke-opacity="1"
         stroke-width="0.1"
         d="m 367.03,83.84 0.37,5.26 0.85,0.6 4.2,-0.1 0.2,3.25 -0.84,4.46 4.82,2.35 -0.1,0.48 -0.14,0.33 -0.5,1.75 1.76,1.74 1.16,0.47 0.28,1.19 -1.88,0.47 0.5,1.13 1.8,3.2 -0.2,1.26 0.05,0.18 1.88,1.29 0.13,0.08 0.15,0.05 1.8,0.56 0.21,-0.04 1.56,3.68 0.3,2.28 -2.17,-0.48 -0.88,0.62 -1.1,1.18 -0.43,3.8 -2.53,0.5 -0.05,0.24 -0.25,3.82 -6.62,-1.34 -3.45,-0.63 1.18,-2.31 0.1,-0.48 0.02,-0.75 -0.35,-5.3 -0.04,-0.17 -3.52,-5.52 -2.9,-0.58 -0.54,0.34 -0.4,0.37 0.03,0.72 0.15,0.02 0.1,0.14 0.04,0.23 -0.12,0.82 -9.28,-1.78 -0.24,1.74 0.03,0.9 -0.5,2.58 -2.6,-0.52 0.5,-2.57 -3.5,-0.67 -1.78,-0.3 -2.63,-0.53 0.8,-3.9 -0.35,-0.52 0.53,-3.68 0.54,-2.6 0.48,0.08 3.03,0.62 2.05,-10.4 -0.35,-0.95 0.08,-1.74 5.05,1 1.1,-2.67 v -0.07 l -0.9,-3.56 0.03,-4.24 13.28,2.62"
         class="c30029"
         data-originalStrokeWidth="0.1"
         style="fill:#d1dbdd;stroke:#d1dbdd;stroke-width:0.1px"
         pointer-events="auto" />
      <path
         id="Glacier__MT"
         fill="#d1dbdd"
         fill-opacity="1"
         stroke="#d1dbdd"
         stroke-dasharray="none"
         stroke-miterlimit="4"
         stroke-opacity="1"
         stroke-width="0.1"
         d="m 402.37,106.43 -0.56,-0.22 -0.76,-0.2 -6.65,-1.15 -0.9,5.12 -0.1,0.08 -15.69,-2.84 -0.5,-1.13 1.88,-0.47 -0.28,-1.18 -1.16,-0.47 -1.77,-1.74 0.5,-1.76 0.15,-0.32 0.1,-0.48 -4.82,-2.36 0.83,-4.46 -0.2,-3.23 -4.19,0.09 -0.85,-0.6 -0.38,-5.27 1.98,0.39 5.6,1.1 11.62,2.14 2.16,0.38 16.5,2.93 -2.5,15.66"
         class="c30035"
         data-originalStrokeWidth="0.1"
         style="fill:#d1dbdd;stroke:#d1dbdd;stroke-width:0.1px"
         pointer-events="auto" />
      <path
         id="Liberty__MT"
         fill="#d1dbdd"
         fill-opacity="1"
         stroke="#d1dbdd"
         stroke-dasharray="none"
         stroke-miterlimit="4"
         stroke-opacity="1"
         stroke-width="0.1"
         d="m 423.55,93.9 10.7,1.7 -0.56,2.5 -1.62,10.46 -0.8,4.32 -0.95,6.1 -1.46,-0.21 -0.4,2.6 -11.97,-1.88 0.43,-2.63 2.75,0.44 1.68,-10.45 1.8,-10.43 0.4,-2.52"
         class="c30051"
         data-originalStrokeWidth="0.1"
         style="fill:#d1dbdd;stroke:#d1dbdd;stroke-width:0.1px"
         pointer-events="auto" />
      <path
         id="Toole__MT"
         fill="#d1dbdd"
         fill-opacity="1"
         stroke="#d1dbdd"
         stroke-dasharray="none"
         stroke-miterlimit="4"
         stroke-opacity="1"
         stroke-width="0.1"
         d="m 402.37,106.43 2.5,-15.66 6.87,1.17 1.87,0.33 5.13,0.85 4.81,0.78 -0.4,2.52 -1.8,10.43 -1.68,10.45 -2.75,-0.44 -5.28,-0.87 0.66,-3.92 -2.58,-0.26 0.08,-1.04 -1.93,-0.8 -1.98,-0.36 0.26,-1.14 -3.62,-1.68 -0.16,-0.36"
         class="c30101"
         data-originalStrokeWidth="0.1"
         style="fill:#d1dbdd;stroke:#d1dbdd;stroke-width:0.1px"
         pointer-events="auto" />
      <path
         id="Pondera__MT"
         fill="#d1dbdd"
         fill-opacity="1"
         stroke="#d1dbdd"
         stroke-dasharray="none"
         stroke-miterlimit="4"
         stroke-opacity="1"
         stroke-width="0.1"
         d="m 377.71,107.22 15.7,2.84 0.08,-0.08 0.91,-5.12 6.65,1.15 0.76,0.19 0.56,0.23 0.16,0.35 3.62,1.69 -0.26,1.13 1.98,0.38 1.93,0.78 -0.08,1.04 2.58,0.27 -0.66,3.9 5.28,0.89 -0.43,2.62 -0.7,4.37 -11.85,-1.9 0.21,-1.23 -0.75,-0.2 0.2,-1.28 -3.14,-0.8 0.25,-1.56 -17.18,-3.08 -0.2,0.04 -1.8,-0.56 -0.16,-0.05 -0.13,-0.08 -1.88,-1.3 -0.06,-0.17 0.2,-1.27 -1.79,-3.2"
         class="c30073"
         data-originalStrokeWidth="0.1"
         style="fill:#d1dbdd;stroke:#d1dbdd;stroke-width:0.1px"
         pointer-events="auto" />
      <path
         id="Teton__MT"
         fill="#d1dbdd"
         fill-opacity="1"
         stroke="#d1dbdd"
         stroke-dasharray="none"
         stroke-miterlimit="4"
         stroke-opacity="1"
         stroke-width="0.1"
         d="m 383.53,113.8 17.18,3.08 -0.25,1.57 3.14,0.8 -0.2,1.29 0.75,0.18 -0.2,1.24 11.84,1.9 -1.44,8.72 -5.33,-0.88 -0.43,2.62 -5.3,-0.9 -0.94,3.12 -2.12,-0.68 -1.34,0.06 -2.16,-0.3 -1.39,-0.51 -2.33,-1.66 -0.03,-0.07 0.02,-0.68 0.11,-0.15 -0.17,-0.64 -2.35,-1.94 -0.1,-0.02 -2.37,0.5 -2.43,0.3 -0.17,-0.01 -0.75,-0.42 -0.68,-1.07 -0.7,-1.58 -0.08,-0.3 0.2,-2.24 -0.29,-5.85 2.16,0.49 -0.29,-2.28 -1.56,-3.68"
         class="c30099"
         data-originalStrokeWidth="0.1"
         style="fill:#d1dbdd;stroke:#d1dbdd;stroke-width:0.1px"
         pointer-events="auto" />
      <path
         id="Cascade__MT"
         fill="#d1dbdd"
         fill-opacity="1"
         stroke="#d1dbdd"
         stroke-dasharray="none"
         stroke-miterlimit="4"
         stroke-opacity="1"
         stroke-width="0.1"
         d="m 400.23,135.86 2.12,0.68 0.95,-3.12 5.3,0.9 0.42,-2.62 5.33,0.88 8.94,1.4 -0.7,0.9 -0.45,0.45 -0.72,1.09 -0.13,0.36 0.1,0.25 2.16,2.17 3.1,1.42 -0.27,1.7 2.55,1.3 -0.26,1.74 -2.65,-0.42 -0.7,1.5 -0.26,1.74 -0.4,4.72 2.65,0.42 -0.62,5.23 -0.4,2.62 -0.42,0.36 -2.32,-0.82 0.31,-1.35 -2.69,-3.43 -0.2,-0.18 -3.4,-0.95 0.5,-1.37 -2.03,-0.55 -0.43,1.66 -7.43,-1.33 -0.44,2.62 -2.47,-0.4 -2.76,-0.48 1.1,-6.5 -1.73,-0.28 -0.07,0.1 -0.45,-0.05 -0.8,-0.67 -1.95,-1.92 1.62,-9.77"
         class="c30013"
         data-originalStrokeWidth="0.1"
         style="fill:#d1dbdd;stroke:#d1dbdd;stroke-width:0.1px"
         pointer-events="auto" />
      <path
         id="Meagher__MT"
         fill="#d1dbdd"
         fill-opacity="1"
         stroke="#d1dbdd"
         stroke-dasharray="none"
         stroke-miterlimit="4"
         stroke-opacity="1"
         stroke-width="0.1"
         d="m 405.27,155.42 2.47,0.4 0.44,-2.61 7.43,1.33 0.43,-1.66 2.02,0.55 -0.5,1.37 3.4,0.95 0.21,0.18 2.7,3.43 -0.32,1.35 2.32,0.82 -0.03,0.69 0.1,0.34 0.16,0.37 0.22,0.29 3.13,3.28 1.91,0.03 1.95,-0.36 -0.88,5.82 -0.88,4.67 -0.67,4.37 -0.16,1.1 -10.6,-1.9 -5.89,-0.94 -0.2,-1.43 -0.87,-1.04 2.66,-3.05 -1.88,-2.1 -2.03,0.45 -0.37,-2.35 -1.68,-1.46 0.8,-2.83 -1.83,-1.51 -0.97,-3.43 -0.17,-0.96 -2.6,-1.6 0.82,-1.28 -0.64,-1.28"
         class="c30059"
         data-originalStrokeWidth="0.1"
         style="fill:#d1dbdd;stroke:#d1dbdd;stroke-width:0.1px"
         pointer-events="auto" />
      <path
         id="Park__MT"
         fill="#d1dbdd"
         fill-opacity="1"
         stroke="#d1dbdd"
         stroke-dasharray="none"
         stroke-miterlimit="4"
         stroke-opacity="1"
         stroke-width="0.1"
         d="m 420.12,180.24 10.6,1.89 -0.46,1.5 -1.6,10.6 1.52,0.23 -0.77,5.57 -1.07,6.92 -0.35,0.76 -0.79,5.36 3.54,0.56 5.7,0.98 -0.75,5.04 -4.9,-0.76 -1.82,-0.3 -2.43,-0.11 -7.15,-0.97 h -0.06 l -3.24,-0.5 -0.95,-0.33 -2.67,-0.55 -3.63,-0.56 0.42,-3.03 0.37,-2.3 1.04,-5.3 2.58,0.42 0.67,-4.81 1.32,0.15 0.24,-1.18 0.05,-0.83 1.5,0.13 1.03,-6.25 0.45,-2.7 0.35,-2.21 0.16,-1.6 0.72,-4.3 0.38,-1.51"
         class="c30067"
         data-originalStrokeWidth="0.1"
         style="fill:#d1dbdd;stroke:#d1dbdd;stroke-width:0.1px"
         pointer-events="auto" />
      <path
         id="Hill__MT"
         fill="#d1dbdd"
         fill-opacity="1"
         stroke="#d1dbdd"
         stroke-dasharray="none"
         stroke-miterlimit="4"
         stroke-opacity="1"
         stroke-width="0.1"
         d="m 434.23,95.59 25.46,3.75 -0.78,3.95 -0.5,2.7 -0.9,6.35 -1.47,8.23 -1,4.74 -1.32,-0.12 -2.66,-0.38 0.4,-2.68 -2.37,-0.26 0.3,-2.65 -16,-2.43 -0.4,2.62 -2.67,-0.42 0.96,-6.11 0.8,-4.32 1.6,-10.46 0.56,-2.5"
         class="c30041"
         data-originalStrokeWidth="0.1"
         style="fill:#d1dbdd;stroke:#d1dbdd;stroke-width:0.1px"
         pointer-events="auto" />
      <path
         id="Chouteau__MT"
         fill="#d1dbdd"
         fill-opacity="1"
         stroke="#d1dbdd"
         stroke-dasharray="none"
         stroke-miterlimit="4"
         stroke-opacity="1"
         stroke-width="0.1"
         d="m 430.33,118.99 2.66,0.42 0.4,-2.61 16,2.42 -0.3,2.65 2.37,0.26 -0.4,2.69 2.66,0.37 1.32,0.12 -1.8,11.97 -0.84,-0.4 -2.07,0.12 -2.37,0.45 -1.2,1 v 0.7 l -0.7,3 -0.08,0.16 -0.56,0.42 -6.56,2.4 -1.06,-0.15 -8.87,-1.35 -2.55,-1.31 0.27,-1.7 -3.1,-1.42 -2.16,-2.17 -0.1,-0.25 0.13,-0.36 0.72,-1.1 0.44,-0.43 0.71,-0.9 -8.94,-1.41 1.44,-8.72 0.7,-4.37 11.96,1.88 0.4,-2.6 1.47,0.22"
         class="c30015"
         data-originalStrokeWidth="0.1"
         style="fill:#d1dbdd;stroke:#d1dbdd;stroke-width:0.1px"
         pointer-events="auto" />
      <path
         id="Judith_Basin__MT"
         fill="#d1dbdd"
         fill-opacity="1"
         stroke="#d1dbdd"
         stroke-dasharray="none"
         stroke-miterlimit="4"
         stroke-opacity="1"
         stroke-width="0.1"
         d="m 428.93,143.62 8.87,1.36 -0.27,1.74 1.72,0.85 -0.18,1.07 -0.18,1.44 2.56,0.8 0.03,1.1 2.52,0.47 -0.1,0.83 2.37,0.26 -1.25,8.62 -0.38,0.96 -0.58,0.27 -0.17,1.26 -1.17,0.07 1.8,2.08 -0.19,1.54 -1.55,-0.22 -0.92,-0.65 -1.33,-1.04 -0.19,-0.25 -0.44,-0.32 -1.79,-0.17 h -1.06 l -3.74,0.48 -1.95,0.35 -1.9,-0.02 -3.14,-3.3 -0.22,-0.28 -0.17,-0.36 -0.09,-0.35 0.03,-0.7 0.42,-0.34 0.4,-2.63 0.62,-5.23 -2.65,-0.42 0.4,-4.71 0.27,-1.75 0.7,-1.5 2.64,0.43 0.26,-1.74"
         class="c30045"
         data-originalStrokeWidth="0.1"
         style="fill:#d1dbdd;stroke:#d1dbdd;stroke-width:0.1px"
         pointer-events="auto" />
      <path
         id="Wheatland__MT"
         fill="#d1dbdd"
         fill-opacity="1"
         stroke="#d1dbdd"
         stroke-dasharray="none"
         stroke-miterlimit="4"
         stroke-opacity="1"
         stroke-width="0.1"
         d="m 444.33,168.34 7.5,1.08 -0.56,4.05 -1.77,10.33 -5.33,-0.77 -13.29,-2 0.67,-4.37 0.88,-4.67 0.88,-5.81 3.74,-0.48 h 1.06 l 1.8,0.17 0.43,0.32 0.2,0.24 1.32,1.05 0.92,0.65 1.55,0.22"
         class="c30107"
         data-originalStrokeWidth="0.1"
         style="fill:#d1dbdd;stroke:#d1dbdd;stroke-width:0.1px"
         pointer-events="auto" />
      <path
         id="Sweet_Grass__MT"
         fill="#d1dbdd"
         fill-opacity="1"
         stroke="#d1dbdd"
         stroke-dasharray="none"
         stroke-miterlimit="4"
         stroke-opacity="1"
         stroke-width="0.1"
         d="m 430.88,181.03 13.3,2 -0.38,2.65 1.22,0.05 -0.57,2.75 3.98,0.59 -0.36,1.67 -0.29,1.8 -1.33,-0.17 -0.26,1.8 -1.3,-0.21 -0.7,2.62 -0.73,5.3 -2.63,-0.37 -0.3,1.34 -2.55,-0.41 -0.3,1.43 -2.53,-0.5 -0.78,5.3 -2.8,-0.42 -0.83,5.38 -3.54,-0.56 0.8,-5.36 0.34,-0.76 1.07,-6.92 0.77,-5.57 -1.53,-0.22 1.6,-10.6 0.47,-1.51 0.16,-1.1"
         class="c30097"
         data-originalStrokeWidth="0.1"
         style="fill:#d1dbdd;stroke:#d1dbdd;stroke-width:0.1px"
         pointer-events="auto" />
      <path
         id="Carbon__MT"
         fill="#d1dbdd"
         fill-opacity="1"
         stroke="#d1dbdd"
         stroke-dasharray="none"
         stroke-miterlimit="4"
         stroke-opacity="1"
         stroke-width="0.1"
         d="m 458.87,203.99 1.04,-0.6 0.36,-0.07 -0.1,0.78 -0.24,0.43 -0.17,0.27 -0.09,0.02 0.6,2.08 1.1,1.98 1.13,0.15 -0.92,0.83 -0.73,2.5 -0.53,4.03 12.33,1.54 -0.18,0.4 -3.3,6 -8.06,-1.08 -6.68,-0.88 -2.85,-0.4 -0.44,-0.05 -4,-0.74 -11.45,-1.55 0.74,-5.03 2.32,0.34 0.91,-2.8 1.33,0.08 0.7,-2.04 1.7,-1.56 1,-0.75 2.85,-0.96 3.53,0.5 1.6,-1.6 0.14,-1 0.74,-0.75 2.75,-0.65 0.23,0.07 0.64,0.45 0.5,0.1 0.42,0.06 1.08,-0.12"
         class="c30009"
         data-originalStrokeWidth="0.1"
         style="fill:#d1dbdd;stroke:#d1dbdd;stroke-width:0.1px"
         pointer-events="auto" />
      <path
         id="Stillwater__MT"
         fill="#d1dbdd"
         fill-opacity="1"
         stroke="#d1dbdd"
         stroke-dasharray="none"
         stroke-miterlimit="4"
         stroke-opacity="1"
         stroke-width="0.1"
         d="m 459.3,187.86 -0.38,2.52 -0.3,2.75 -0.8,8.5 0.32,0.93 0.73,1.43 -1.08,0.12 -0.42,-0.05 -0.5,-0.11 -0.64,-0.46 -0.23,-0.06 -2.75,0.64 -0.74,0.75 -0.14,1 -1.6,1.6 -3.53,-0.5 -2.84,0.96 -1,0.76 -1.7,1.56 -0.7,2.02 -1.34,-0.05 -0.9,2.79 -2.33,-0.35 -5.69,-0.98 0.82,-5.38 2.8,0.42 0.8,-5.3 2.53,0.5 0.3,-1.43 2.53,0.4 0.3,-1.33 2.64,0.38 0.72,-5.3 0.7,-2.63 1.3,0.2 0.27,-1.8 1.33,0.19 0.3,-1.81 0.35,-1.67 0.43,-2.66 10.44,1.45"
         class="c30095"
         data-originalStrokeWidth="0.1"
         style="fill:#d1dbdd;stroke:#d1dbdd;stroke-width:0.1px"
         pointer-events="auto" />
      <path
         id="Golden_Valley__MT"
         fill="#d1dbdd"
         fill-opacity="1"
         stroke="#d1dbdd"
         stroke-dasharray="none"
         stroke-miterlimit="4"
         stroke-opacity="1"
         stroke-width="0.1"
         d="m 460.07,168.8 -0.53,3.92 0.25,1.38 1.4,2.95 1.78,6.83 -0.6,4.4 -3.07,-0.42 -10.44,-1.45 -0.43,2.66 -3.98,-0.6 0.57,-2.74 -1.22,-0.05 0.37,-2.65 5.33,0.77 1.77,-10.33 0.57,-4.05 0.25,-1.75 7.98,1.13"
         class="c30037"
         data-originalStrokeWidth="0.1"
         style="fill:#d1dbdd;stroke:#d1dbdd;stroke-width:0.1px"
         pointer-events="auto" />
      <path
         id="Fergus__MT"
         fill="#d1dbdd"
         fill-opacity="1"
         stroke="#d1dbdd"
         stroke-dasharray="none"
         stroke-miterlimit="4"
         stroke-opacity="1"
         stroke-width="0.1"
         d="m 453.23,137.28 2.28,0.9 2.45,-0.8 0.56,-0.38 6.24,-0.08 0.35,0.07 0.76,0.49 0.77,1.82 0.93,0.6 0.47,0.43 0.6,0.86 0.03,0.2 -0.08,0.17 0.5,0.87 1.63,0.97 6.5,2.5 0.21,0.03 0.33,-0.1 0.28,-0.35 -0.76,5.37 -0.35,2.77 -0.48,0.16 -5.27,-0.65 -2.87,0.73 -0.72,2.56 -0.35,2.62 2.68,0.36 -1.1,7.94 -0.78,2.59 -7.97,-1.12 -7.98,-1.13 -0.25,1.74 -7.5,-1.07 0.17,-1.55 -1.79,-2.07 1.17,-0.07 0.17,-1.26 0.58,-0.27 0.38,-0.96 1.25,-8.63 -2.38,-0.25 0.11,-0.83 -2.52,-0.47 -0.03,-1.1 -2.56,-0.8 0.18,-1.44 0.18,-1.07 -1.72,-0.86 0.27,-1.74 1.06,0.15 6.56,-2.4 0.56,-0.42 0.07,-0.14 0.72,-3 v -0.7 l 1.2,-1.01 2.36,-0.45 2.07,-0.11 0.84,0.39"
         class="c30027"
         data-originalStrokeWidth="0.1"
         style="fill:#d1dbdd;stroke:#d1dbdd;stroke-width:0.1px"
         pointer-events="auto" />
      <path
         id="Blaine__MT"
         fill="#d1dbdd"
         fill-opacity="1"
         stroke="#d1dbdd"
         stroke-dasharray="none"
         stroke-miterlimit="4"
         stroke-opacity="1"
         stroke-width="0.1"
         d="m 455.04,125.3 1,-4.73 1.47,-8.23 0.9,-6.34 0.5,-2.71 0.78,-3.95 2.15,0.3 6.57,0.95 1.22,0.18 h 0.12 l 9.18,1.24 1.13,0.15 5.11,0.66 -0.1,0.85 -0.29,1.74 -1.09,5.12 -1.28,-0.21 -2.05,9.05 -0.83,-0.23 -0.17,0.44 -1.3,6.29 -0.97,7.35 -4.85,1.05 -0.28,-0.1 -4.49,-0.58 -0.26,1.57 -0.57,4.12 -0.77,-1.82 -0.76,-0.5 -0.35,-0.06 -6.24,0.08 -0.56,0.37 -2.45,0.8 -2.27,-0.9 1.8,-11.96"
         class="c30005"
         data-originalStrokeWidth="0.1"
         style="fill:#d1dbdd;stroke:#d1dbdd;stroke-width:0.1px"
         pointer-events="auto" />
      <path
         id="Phillips__MT"
         fill="#d1dbdd"
         fill-opacity="1"
         stroke="#d1dbdd"
         stroke-dasharray="none"
         stroke-miterlimit="4"
         stroke-opacity="1"
         stroke-width="0.1"
         d="m 466.63,139.29 0.58,-4.12 0.26,-1.57 4.5,0.58 0.27,0.1 4.85,-1.05 0.97,-7.35 1.3,-6.3 0.17,-0.43 0.83,0.23 2.05,-9.05 1.28,0.2 1.1,-5.11 0.27,-1.74 0.1,-0.85 21.54,2.66 -0.85,2.57 -1.1,9.3 -0.18,2.85 -2.63,1 -0.35,2.67 1.5,0.2 -0.55,2.24 -2.24,-0.28 -1.08,2.97 -1.44,10.1 -0.66,5.42 -0.24,0.98 -0.4,0.84 -0.1,0.13 -0.16,0.07 -1.03,-0.16 -1.79,-0.96 -0.24,-0.08 -0.86,-0.1 -1.27,0.59 -0.9,1.35 -0.76,0.83 -2.4,2.5 -0.9,0.1 -0.14,-0.02 0.14,-1.13 -0.15,-1.98 -0.1,-0.56 -0.8,-0.64 -0.18,-0.1 -2.6,-0.4 -0.69,0.08 -0.88,-0.03 -2,-0.16 -0.49,-0.1 -0.14,-0.1 -0.28,0.36 -0.33,0.09 -0.22,-0.03 -6.49,-2.5 -1.64,-0.96 -0.49,-0.88 0.08,-0.16 -0.03,-0.2 -0.6,-0.86 -0.47,-0.43 -0.93,-0.6"
         class="c30071"
         data-originalStrokeWidth="0.1"
         style="fill:#d1dbdd;stroke:#d1dbdd;stroke-width:0.1px"
         pointer-events="auto" />
      <path
         id="Petroleum__MT"
         fill="#d1dbdd"
         fill-opacity="1"
         stroke="#d1dbdd"
         stroke-dasharray="none"
         stroke-miterlimit="4"
         stroke-opacity="1"
         stroke-width="0.1"
         d="m 478.04,145.47 0.14,0.1 0.48,0.1 2.01,0.16 0.88,0.03 0.68,-0.08 2.6,0.4 0.2,0.1 0.8,0.64 0.1,0.56 0.14,1.98 -0.14,1.13 -1.5,2.79 -0.48,3.09 -0.87,11.3 0.01,0.19 0.08,0.1 0.7,0.7 0.13,0.08 1,3.08 -9.3,-1.12 -2.36,-0.17 -5.3,-0.7 0.77,-2.6 1.1,-7.93 -2.67,-0.36 0.35,-2.62 0.71,-2.56 2.88,-0.73 5.27,0.65 0.48,-0.16 0.35,-2.77 0.76,-5.37"
         class="c30069"
         data-originalStrokeWidth="0.1"
         style="fill:#d1dbdd;stroke:#d1dbdd;stroke-width:0.1px"
         pointer-events="auto" />
      <path
         id="Musselshell__MT"
         fill="#d1dbdd"
         fill-opacity="1"
         stroke="#d1dbdd"
         stroke-dasharray="none"
         stroke-miterlimit="4"
         stroke-opacity="1"
         stroke-width="0.1"
         d="m 460.07,168.8 7.97,1.12 5.3,0.7 2.35,0.17 9.3,1.12 v 8.04 l -0.4,3.07 -3.1,-0.4 -2,1.57 -0.49,0.83 -0.18,1.35 -6.18,-0.8 -1.9,0.6 -0.4,3.16 -7.98,-1.05 0.6,-4.4 -1.78,-6.83 -1.39,-2.95 -0.25,-1.38 0.53,-3.92"
         class="c30065"
         data-originalStrokeWidth="0.1"
         style="fill:#d1dbdd;stroke:#d1dbdd;stroke-width:0.1px"
         pointer-events="auto" />
      <path
         id="Yellowstone__MT"
         fill="#d1dbdd"
         fill-opacity="1"
         stroke="#d1dbdd"
         stroke-dasharray="none"
         stroke-miterlimit="4"
         stroke-opacity="1"
         stroke-width="0.1"
         d="m 484.98,179.95 0.85,0.55 0.4,0.5 1.78,3.8 2.01,5.63 -0.53,2.67 -0.49,1.36 -3.47,-0.43 -0.37,1.76 -2.48,-0.33 -0.2,0.99 -0.8,-0.21 -0.16,0.86 -0.95,0.7 -3.55,-0.37 -0.9,3.47 -1.06,8.1 -5.52,1.08 -2.75,-0.37 -4.29,-0.67 -1.14,-0.15 -1.1,-1.98 -0.59,-2.08 0.1,-0.02 0.16,-0.27 0.23,-0.43 0.11,-0.78 -0.36,0.07 -1.04,0.6 -0.73,-1.43 -0.32,-0.94 0.8,-8.5 0.3,-2.74 0.38,-2.51 3.06,0.4 7.97,1.06 0.42,-3.16 1.9,-0.6 6.17,0.8 0.18,-1.35 0.5,-0.82 1.98,-1.57 3.1,0.4 0.4,-3.07"
         class="c30111"
         data-originalStrokeWidth="0.1"
         style="fill:#d1dbdd;stroke:#d1dbdd;stroke-width:0.1px"
         pointer-events="auto" />
      <path
         id="Big_Horn__MT"
         fill="#d1dbdd"
         fill-opacity="1"
         stroke="#d1dbdd"
         stroke-dasharray="none"
         stroke-miterlimit="4"
         stroke-opacity="1"
         stroke-width="0.1"
         d="m 500.6,201.2 -0.14,1.17 0.05,4.58 1.4,0.39 2.05,0.24 0.43,0.17 -1.1,9.82 -0.46,0.02 -0.3,1.66 -0.68,3.49 5.3,0.73 2.68,0.24 2.58,0.2 -0.27,5.74 -13.54,-1.58 -4.15,-0.51 -1.15,-0.24 -10.26,-1.26 -6.17,-0.75 -7.7,-0.96 3.3,-6.01 0.18,-0.4 -12.33,-1.54 0.53,-4.02 0.73,-2.5 0.92,-0.84 4.3,0.67 2.74,0.37 5.52,-1.08 1.06,-8.1 0.9,-3.47 3.55,0.38 0.95,-0.7 0.15,-0.87 0.8,0.2 0.21,-0.98 2.48,0.33 0.37,-1.76 3.47,0.43 1.85,0.23 -0.32,2.64 5.3,0.63 1,1.46 1.35,1.5 2.42,0.28"
         class="c30003"
         data-originalStrokeWidth="0.1"
         style="fill:#d1dbdd;stroke:#d1dbdd;stroke-width:0.1px"
         pointer-events="auto" />
      <path
         id="Treasure__MT"
         fill="#d1dbdd"
         fill-opacity="1"
         stroke="#d1dbdd"
         stroke-dasharray="none"
         stroke-miterlimit="4"
         stroke-opacity="1"
         stroke-width="0.1"
         d="m 485.83,180.5 11.94,1.43 -0.4,2.63 3.2,0.39 -1,7.72 1.97,0.4 -0.94,8.13 -2.42,-0.28 -1.35,-1.5 -1,-1.46 -5.3,-0.63 0.32,-2.64 -1.85,-0.23 0.5,-1.36 0.52,-2.67 -2,-5.63 -1.8,-3.8 -0.4,-0.5"
         class="c30103"
         data-originalStrokeWidth="0.1"
         style="fill:#d1dbdd;stroke:#d1dbdd;stroke-width:0.1px"
         pointer-events="auto" />
      <path
         id="Rosebud__MT"
         fill="#d1dbdd"
         fill-opacity="1"
         stroke="#d1dbdd"
         stroke-dasharray="none"
         stroke-miterlimit="4"
         stroke-opacity="1"
         stroke-width="0.1"
         d="m 484,168.84 8.95,1.1 0.42,-0.1 h 0.81 l 0.72,0.08 13.8,1.6 0.76,0.4 1.55,0.32 11.02,1.18 -0.77,0.37 -1,7.05 -0.86,3.49 -0.77,7.13 v 0.8 l -0.49,1.73 -0.65,0.83 -1.16,10.65 -0.9,-0.08 -0.53,5 -0.95,5.55 -0.18,2.87 -0.78,-0.12 -0.57,5.22 -2.58,-0.2 -2.68,-0.24 -5.3,-0.73 0.68,-3.5 0.3,-1.65 0.46,-0.02 1.1,-9.83 -0.43,-0.16 -2.06,-0.24 -1.4,-0.4 -0.04,-4.57 0.14,-1.17 0.94,-8.14 -1.98,-0.4 1,-7.71 -3.19,-0.4 0.4,-2.62 -11.94,-1.43 -0.85,-0.55 v -8.04 l -0.98,-3.07"
         class="c30087"
         data-originalStrokeWidth="0.1"
         style="fill:#d1dbdd;stroke:#d1dbdd;stroke-width:0.1px"
         pointer-events="auto" />
      <path
         id="Garfield__MT"
         fill="#d1dbdd"
         fill-opacity="1"
         stroke="#d1dbdd"
         stroke-dasharray="none"
         stroke-miterlimit="4"
         stroke-opacity="1"
         stroke-width="0.1"
         d="m 518.74,138.85 1.25,0.14 -0.62,2.66 2.34,0.27 -1.22,10.6 -1.05,-0.06 -0.2,5 2.66,0.28 -0.55,5.28 1.75,0.2 -1.04,9.77 -0.04,0.43 -11,-1.17 -1.56,-0.32 -0.75,-0.4 -13.8,-1.6 -0.73,-0.1 h -0.8 l -0.43,0.1 -8.95,-1.1 -0.12,-0.06 -0.7,-0.72 -0.09,-0.1 v -0.17 l 0.86,-11.31 0.47,-3.1 1.51,-2.78 0.13,0.04 0.9,-0.1 2.4,-2.52 0.76,-0.83 0.92,-1.35 1.27,-0.6 0.85,0.1 0.24,0.09 1.8,0.96 1.02,0.16 0.15,-0.07 0.1,-0.13 0.4,-0.84 0.25,-0.98 3.37,1.34 4.55,0.57 h 0.31 l 1.96,-0.07 0.52,-0.07 0.36,-0.1 5.3,-2.87 3.55,-4.72 1.06,-0.24 0.64,0.48"
         class="c30033"
         data-originalStrokeWidth="0.1"
         style="fill:#d1dbdd;stroke:#d1dbdd;stroke-width:0.1px"
         pointer-events="auto" />
      <path
         id="Daniels__MT"
         fill="#d1dbdd"
         fill-opacity="1"
         stroke="#d1dbdd"
         stroke-dasharray="none"
         stroke-miterlimit="4"
         stroke-opacity="1"
         stroke-width="0.1"
         d="m 528.47,107.96 21.53,2.17 -0.26,2.68 -0.37,7.94 1.35,0.14 -0.25,2.62 -17.1,-1.7 -5.13,-0.12 1.51,-8.23 -2.67,-0.28 0.3,-2.63 0.63,-0.84 0.46,-1.75"
         class="c30019"
         data-originalStrokeWidth="0.1"
         style="fill:#d1dbdd;stroke:#d1dbdd;stroke-width:0.1px"
         pointer-events="auto" />
      <path
         id="Valley__MT"
         fill="#d1dbdd"
         fill-opacity="1"
         stroke="#d1dbdd"
         stroke-dasharray="none"
         stroke-miterlimit="4"
         stroke-opacity="1"
         stroke-width="0.1"
         d="m 528.47,107.96 -0.46,1.75 -0.64,0.84 -0.29,2.63 2.67,0.28 -1.5,8.23 5.13,0.13 -1.08,10.44 -0.8,-0.08 -0.67,6.34 -1.6,0.04 -6.35,-1.37 -0.3,-0.13 -0.52,-0.55 -2.46,-0.84 -0.14,0.06 -0.13,0.15 -0.29,0.4 -0.29,0.75 v 1.84 l -0.65,-0.5 -1.06,0.25 -3.55,4.73 -5.3,2.86 -0.36,0.1 -0.52,0.07 -1.96,0.07 h -0.3 l -4.56,-0.57 -3.37,-1.33 0.66,-5.43 1.44,-10.1 1.08,-2.97 2.24,0.28 0.55,-2.24 -1.5,-0.2 0.35,-2.66 2.63,-1 0.17,-2.86 1.1,-9.3 0.86,-2.57 21.77,2.47"
         class="c30105"
         data-originalStrokeWidth="0.1"
         style="fill:#d1dbdd;stroke:#d1dbdd;stroke-width:0.1px"
         pointer-events="auto" />
      <path
         id="McCone__MT"
         fill="#d1dbdd"
         fill-opacity="1"
         stroke="#d1dbdd"
         stroke-dasharray="none"
         stroke-miterlimit="4"
         stroke-opacity="1"
         stroke-width="0.1"
         d="m 544.44,138.19 -0.17,2 -0.38,3.57 -0.86,0.35 -0.22,2.36 -2.68,-0.26 -0.95,8.39 -0.86,-0.22 -0.93,10.29 -8.96,-0.9 -0.27,2.69 -0.9,-0.08 -1.78,-0.2 0.28,-2.68 -2.66,-0.28 -1.75,-0.2 0.55,-5.28 -2.66,-0.27 0.2,-5 1.05,0.05 1.22,-10.6 -2.34,-0.27 0.62,-2.65 -1.25,-0.14 0.01,-1.85 0.3,-0.75 0.28,-0.4 0.13,-0.14 0.14,-0.06 2.45,0.83 0.53,0.55 0.3,0.14 6.35,1.37 1.6,-0.04 3.22,-1 1.12,-0.6 1.03,-0.04 3.76,0.05 1.54,0.07 1.77,0.34 1.17,0.85"
         class="c30055"
         data-originalStrokeWidth="0.1"
         style="fill:#d1dbdd;stroke:#d1dbdd;stroke-width:0.1px"
         pointer-events="auto" />
      <path
         id="Prairie__MT"
         fill="#d1dbdd"
         fill-opacity="1"
         stroke="#d1dbdd"
         stroke-dasharray="none"
         stroke-miterlimit="4"
         stroke-opacity="1"
         stroke-width="0.1"
         d="m 523.1,163.22 2.66,0.28 -0.28,2.68 1.77,0.2 0.9,0.07 0.28,-2.68 8.96,0.9 1.71,0.17 -0.62,6.23 2.7,0.26 -0.24,1.8 2.76,0.23 0.4,0.46 0.38,0.66 -0.07,0.72 8.95,0.85 -0.55,5.37 -0.09,0.89 -2.66,-0.25 -0.12,1.32 -2.67,-0.23 -0.56,1.27 -2.32,0.67 -5.4,-0.53 -4.35,-1.35 -0.74,-0.98 -1.07,-1.9 -0.36,-2.7 -0.6,-2.76 -4.46,-1.32 -5.35,-0.57 1.04,-9.77"
         class="c30079"
         data-originalStrokeWidth="0.1"
         style="fill:#d1dbdd;stroke:#d1dbdd;stroke-width:0.1px"
         pointer-events="auto" />
      <path
         id="Powder_River__MT"
         fill="#d1dbdd"
         fill-opacity="1"
         stroke="#d1dbdd"
         stroke-dasharray="none"
         stroke-miterlimit="4"
         stroke-opacity="1"
         stroke-width="0.1"
         d="m 516.32,205.47 25.94,2.68 -0.98,10.56 -0.39,2.76 -1.1,-0.1 -1.04,10.79 -1.54,-0.15 -16.03,-1.6 -1.55,-0.1 -2.58,-0.12 -4.9,-0.53 0.26,-5.74 0.57,-5.22 0.78,0.12 0.18,-2.88 0.95,-5.54 0.52,-5 0.9,0.08"
         class="c30075"
         data-originalStrokeWidth="0.1"
         style="fill:#d1dbdd;stroke:#d1dbdd;stroke-width:0.1px"
         pointer-events="auto" />
      <path
         id="Custer__MT"
         fill="#d1dbdd"
         fill-opacity="1"
         stroke="#d1dbdd"
         stroke-dasharray="none"
         stroke-miterlimit="4"
         stroke-opacity="1"
         stroke-width="0.1"
         d="m 522.06,172.99 5.35,0.56 4.46,1.32 0.6,2.76 0.36,2.7 1.07,1.9 0.74,0.99 4.34,1.34 5.4,0.54 2.33,-0.67 0.56,-1.28 2.67,0.24 -0.37,3.99 -3.67,-0.34 -0.3,3.28 0.02,1.27 0.22,0.66 -0.5,5.4 -1.16,-0.1 -1,10.7 -0.92,-0.1 -25.94,-2.67 1.16,-10.64 0.65,-0.83 0.48,-1.75 0.01,-0.8 0.77,-7.12 0.86,-3.48 1,-7.06 0.77,-0.37 0.05,-0.43"
         class="c30017"
         data-originalStrokeWidth="0.1"
         style="fill:#d1dbdd;stroke:#d1dbdd;stroke-width:0.1px"
         pointer-events="auto" />
      <path
         id="Carter__MT"
         fill="#d1dbdd"
         fill-opacity="1"
         stroke="#d1dbdd"
         stroke-dasharray="none"
         stroke-miterlimit="4"
         stroke-opacity="1"
         stroke-width="0.1"
         d="m 545.33,197.65 5.52,0.53 2.35,0.48 -0.36,2.12 1.54,0.22 1.51,0.2 -0.44,2.5 1.86,0.25 3.62,0.28 -0.22,2.65 1.93,0.17 -1.65,20.53 -0.94,6.59 -21.3,-2.01 1.03,-10.8 1.11,0.1 0.4,-2.75 0.97,-10.56 0.92,0.08 1,-10.7 1.15,0.1"
         class="c30011"
         data-originalStrokeWidth="0.1"
         style="fill:#d1dbdd;stroke:#d1dbdd;stroke-width:0.1px"
         pointer-events="auto" />
      <path
         id="Fallon__MT"
         fill="#d1dbdd"
         fill-opacity="1"
         stroke="#d1dbdd"
         stroke-dasharray="none"
         stroke-miterlimit="4"
         stroke-opacity="1"
         stroke-width="0.1"
         d="m 549.94,183.39 0.12,-1.33 2.66,0.25 0.1,-0.88 4,0.35 1.3,0.56 -0.07,0.9 6.54,0.56 -0.26,3.08 -0.69,7.97 -0.86,10.26 -0.14,1.94 -1.93,-0.17 0.22,-2.65 -3.62,-0.28 -1.86,-0.25 0.44,-2.5 -1.5,-0.2 -1.55,-0.22 0.36,-2.12 -2.35,-0.48 -5.52,-0.53 0.51,-5.4 -0.22,-0.66 -0.03,-1.27 0.3,-3.28 3.68,0.34 0.37,-4"
         class="c30025"
         data-originalStrokeWidth="0.1"
         style="fill:#d1dbdd;stroke:#d1dbdd;stroke-width:0.1px"
         pointer-events="auto" />
      <path
         id="Wibaux__MT"
         fill="#d1dbdd"
         fill-opacity="1"
         stroke="#d1dbdd"
         stroke-dasharray="none"
         stroke-miterlimit="4"
         stroke-opacity="1"
         stroke-width="0.1"
         d="m 566.56,160.7 -0.18,2.07 -1.79,21.03 -6.54,-0.56 0.07,-0.9 -1.3,-0.56 -4,-0.35 0.55,-5.37 2.25,0.2 1.43,-0.76 0.48,-0.4 2.06,-2.95 0.56,-1.07 0.2,-2.45 -0.05,-1.8 -0.06,-0.44 -0.17,-0.68 -2.24,-3.14 0.74,-1.24 6.06,0.55 0.12,-1.33 1.81,0.16"
         class="c30109"
         data-originalStrokeWidth="0.1"
         style="fill:#d1dbdd;stroke:#d1dbdd;stroke-width:0.1px"
         pointer-events="auto" />
      <path
         id="Dawson__MT"
         fill="#d1dbdd"
         fill-opacity="1"
         stroke="#d1dbdd"
         stroke-dasharray="none"
         stroke-miterlimit="4"
         stroke-opacity="1"
         stroke-width="0.1"
         d="m 542.81,146.47 -0.27,2.65 5.36,0.5 -0.27,2.67 8.04,0.76 -0.3,2.4 1.74,0.4 -0.48,5.3 1.94,0.18 -0.74,1.24 2.24,3.14 0.17,0.68 0.06,0.45 0.05,1.8 -0.2,2.44 -0.56,1.07 -2.06,2.95 -0.49,0.4 -1.42,0.76 -2.26,-0.2 -8.95,-0.85 0.07,-0.72 -0.38,-0.66 -0.4,-0.46 -2.76,-0.24 0.24,-1.8 -2.7,-0.25 0.62,-6.24 -1.7,-0.17 0.92,-10.3 0.86,0.23 0.95,-8.4 2.68,0.27"
         class="c30021"
         data-originalStrokeWidth="0.1"
         style="fill:#d1dbdd;stroke:#d1dbdd;stroke-width:0.1px"
         pointer-events="auto" />
      <path
         id="Richland__MT"
         fill="#d1dbdd"
         fill-opacity="1"
         stroke="#d1dbdd"
         stroke-dasharray="none"
         stroke-miterlimit="4"
         stroke-opacity="1"
         stroke-width="0.1"
         d="m 568.13,142.48 -1.57,18.23 -1.8,-0.16 -0.13,1.33 -6.06,-0.55 -1.94,-0.17 0.48,-5.31 -1.74,-0.4 0.3,-2.4 -8.04,-0.76 0.27,-2.66 -5.36,-0.51 0.27,-2.65 0.22,-2.36 0.86,-0.35 0.38,-3.58 0.17,-2 1.54,0.3 h 2.53 l 0.44,-0.21 0.67,-0.5 0.55,-0.74 1.22,-0.5 8.71,2.2 4.07,2.37 3.95,1.37"
         class="c30083"
         data-originalStrokeWidth="0.1"
         style="fill:#d1dbdd;stroke:#d1dbdd;stroke-width:0.1px"
         pointer-events="auto" />
      <g
         id="state_borders"
         style="opacity:1;stroke:#000000"
         stroke="#000" />
    </svg>
  </g>
</svg>
