<?xml version="1.0" encoding="UTF-8" standalone="no"?>
<svg
   id="wrapper"
   viewBox="0 0 164.17161 121.54952"
   preserveAspectRatio="xMinYMin"
   height="121.54952"
   width="164.17162"
   version="1.1"
   sodipodi:docname="washington.svg"
   inkscape:version="1.2.2 (b0a8486541, 2022-12-01)"
   xmlns:inkscape="http://www.inkscape.org/namespaces/inkscape"
   xmlns:sodipodi="http://sodipodi.sourceforge.net/DTD/sodipodi-0.dtd"
   xmlns="http://www.w3.org/2000/svg"
   xmlns:svg="http://www.w3.org/2000/svg"
   xmlns:rdf="http://www.w3.org/1999/02/22-rdf-syntax-ns#"
   xmlns:cc="http://creativecommons.org/ns#"
   xmlns:dc="http://purl.org/dc/elements/1.1/">
  <defs
     id="defs153" />
  <sodipodi:namedview
     id="namedview151"
     pagecolor="#ffffff"
     bordercolor="#000000"
     borderopacity="0.25"
     inkscape:showpageshadow="2"
     inkscape:pageopacity="0.0"
     inkscape:pagecheckerboard="0"
     inkscape:deskcolor="#d1d1d1"
     showgrid="false"
     inkscape:zoom="7.4403941"
     inkscape:cx="78.624868"
     inkscape:cy="70.023173"
     inkscape:window-width="2560"
     inkscape:window-height="1508"
     inkscape:window-x="0"
     inkscape:window-y="1440"
     inkscape:window-maximized="1"
     inkscape:current-layer="wrapper" />
  <metadata
     id="metadata2">
    <rdf:rdf>
      <cc:work
         rdf:about="">
        <dc:format>image/svg+xml</dc:format>
        <dc:type
           rdf:resource="http://purl.org/dc/dcmitype/StillImage" />
        <dc:title>MapChart Map</dc:title>
        <dc:creator>
          <cc:agent>
            <dc:title>MapChart.net</dc:title>
          </cc:agent>
        </dc:creator>
        <cc:license
           rdf:resource="http://creativecommons.org/licenses/by-sa/4.0/" />
        <dc:description>This map was created with MapChart.net, a website for creating custom maps.</dc:description>
      </cc:work>
      <cc:license
         rdf:about="http://creativecommons.org/licenses/by-sa/4.0/">
        <cc:permits
           rdf:resource="http://creativecommons.org/ns#Reproduction" />
        <cc:permits
           rdf:resource="http://creativecommons.org/ns#Distribution" />
        <cc:requires
           rdf:resource="http://creativecommons.org/ns#Notice" />
        <cc:requires
           rdf:resource="http://creativecommons.org/ns#Attribution" />
        <cc:requires
           rdf:resource="http://creativecommons.org/ns#ShareAlike" />
      </cc:license>
    </rdf:rdf>
  </metadata>
  <g
     id="map-group"
     transform="translate(-143.3771,-40.134473)">
    <svg
       id="map"
       width="1460.16"
       height="1015"
       version="1"
       viewBox="0 0 1460.16 1015"
       preserveAspectRatio="xMinYMin"
       data-originalStrokeWidth="0.3">
      <defs
         id="defs104">
        <pattern
           id="circles3"
           width="10"
           height="10"
           patternUnits="userSpaceOnUse">
          <rect
             width="10"
             height="10"
             fill="#fff"
             id="rect5" />
          <circle
             cx="4"
             cy="4"
             r="2"
             fill="#000"
             id="circle7" />
        </pattern>
        <pattern
           id="diagonal1"
           width="10"
           height="10"
           patternUnits="userSpaceOnUse">
          <rect
             width="10"
             height="10"
             fill="#fff"
             id="rect10" />
          <path
             id="pattern0"
             d="M-1,1 l2,-2 M0,10 l10,-10 M9,11 l2,-2"
             stroke="#000"
             stroke-width="1" />
        </pattern>
        <pattern
           id="diagonal3"
           width="10"
           height="10"
           patternUnits="userSpaceOnUse">
          <rect
             width="10"
             height="10"
             fill="#fff"
             id="rect14" />
          <path
             id="pattern1"
             d="M-1,1 l2,-2 M0,10 l10,-10 M9,11 l2,-2"
             stroke="#000"
             stroke-width="3" />
        </pattern>
        <pattern
           id="vertical1"
           width="10"
           height="10"
           patternUnits="userSpaceOnUse">
          <rect
             width="10"
             height="10"
             fill="#fff"
             id="rect18" />
          <rect
             x="2"
             y="0"
             width="1"
             height="10"
             fill="#000"
             id="rect20" />
        </pattern>
        <pattern
           id="vertical3"
           width="10"
           height="10"
           patternUnits="userSpaceOnUse">
          <rect
             width="10"
             height="10"
             fill="#fff"
             id="rect23" />
          <rect
             x="2"
             y="0"
             width="3"
             height="10"
             fill="#000"
             id="rect25" />
        </pattern>
        <pattern
           id="horizontal1"
           width="10"
           height="10"
           patternUnits="userSpaceOnUse">
          <rect
             width="10"
             height="10"
             fill="#fff"
             id="rect28" />
          <rect
             x="0"
             y="2"
             width="10"
             height="1"
             fill="#000"
             id="rect30" />
        </pattern>
        <pattern
           id="horizontal3"
           width="10"
           height="10"
           patternUnits="userSpaceOnUse">
          <rect
             width="10"
             height="10"
             fill="#fff"
             id="rect33" />
          <rect
             x="0"
             y="2"
             width="10"
             height="3"
             fill="#000"
             id="rect35" />
        </pattern>
        <pattern
           id="crosshatch"
           width="8"
           height="8"
           patternUnits="userSpaceOnUse">
          <rect
             width="8"
             height="8"
             fill="#fff"
             id="rect38" />
          <path
             id="pattern2"
             d="M0 0L8 8ZM8 0L0 8Z"
             stroke-width="0.5"
             stroke="#aaa" />
        </pattern>
        <pattern
           id="subtlepatch"
           width="5"
           height="5"
           patternUnits="userSpaceOnUse">
          <rect
             width="5"
             height="5"
             fill="#fff"
             id="rect42" />
          <rect
             x="2"
             y="2"
             width="1"
             height="1"
             fill="#000"
             id="rect44" />
        </pattern>
        <pattern
           id="checkers"
           width="8"
           height="8"
           patternUnits="userSpaceOnUse">
          <rect
             width="8"
             height="8"
             fill="#fff"
             id="rect47" />
          <path
             id="pattern3"
             fill="#000"
             fill-rule="evenodd"
             d="M0 0h4v4H0V0zm4 4h4v4H4V4z" />
        </pattern>
        <pattern
           id="raindrops"
           width="10"
           height="10"
           patternUnits="userSpaceOnUse">
          <rect
             width="10"
             height="10"
             fill="#fff"
             id="rect51" />
          <path
             id="pattern4"
             fill="#000"
             d="M0 38.59l2.83-2.83 1.41 1.41L1.41 40H0v-1.41zM0 1.4l2.83 2.83 1.41-1.41L1.41 0H0v1.41zM38.59 40l-2.83-2.83 1.41-1.41L40 38.59V40h-1.41zM40 1.41l-2.83 2.83-1.41-1.41L38.59 0H40v1.41zM20 18.6l2.83-2.83 1.41 1.41L21.41 20l2.83 2.83-1.41 1.41L20 21.41l-2.83 2.83-1.41-1.41L18.59 20l-2.83-2.83 1.41-1.41L20 18.59z" />
        </pattern>
        <pattern
           id="texture"
           width="4"
           height="4"
           patternUnits="userSpaceOnUse">
          <rect
             width="4"
             height="4"
             fill="#fff"
             id="rect55" />
          <path
             id="pattern5"
             fill="#000"
             d="M1 3h1v1H1V3zm2-2h1v1H3V1z" />
        </pattern>
        <pattern
           id="circles3_a03500_000000"
           width="10"
           height="10"
           patternUnits="userSpaceOnUse">
          <rect
             width="10"
             height="10"
             fill="#a03500"
             id="rect59" />
          <circle
             cx="4"
             cy="4"
             r="2"
             fill="#000000"
             id="circle61" />
        </pattern>
        <pattern
           id="diagonal1_d9b400_535353"
           width="10"
           height="10"
           patternUnits="userSpaceOnUse">
          <rect
             width="10"
             height="10"
             fill="#d9b400"
             id="rect64" />
          <path
             id="path66"
             d="M-1,1 l2,-2 M0,10 l10,-10 M9,11 l2,-2"
             stroke="#535353"
             stroke-width="1" />
        </pattern>
        <pattern
           id="diagonal3_3264c8_ffffff"
           width="10"
           height="10"
           patternUnits="userSpaceOnUse">
          <rect
             width="10"
             height="10"
             fill="#3264c8"
             id="rect69" />
          <path
             id="path71"
             d="M-1,1 l2,-2 M0,10 l10,-10 M9,11 l2,-2"
             stroke="#ffffff"
             stroke-width="3" />
        </pattern>
        <pattern
           id="horizontal1_72b38e_000000"
           width="10"
           height="10"
           patternUnits="userSpaceOnUse">
          <rect
             width="10"
             height="10"
             fill="#72b38e"
             id="rect74" />
          <rect
             x="0"
             y="2"
             width="10"
             height="1"
             fill="#000000"
             id="rect76" />
        </pattern>
        <pattern
           id="horizontal3_986ba1_ffffff"
           width="10"
           height="10"
           patternUnits="userSpaceOnUse">
          <rect
             width="10"
             height="10"
             fill="#986ba1"
             id="rect79" />
          <rect
             x="0"
             y="2"
             width="10"
             height="3"
             fill="#ffffff"
             id="rect81" />
        </pattern>
        <pattern
           id="vertical1_b9a087_ffffff"
           width="10"
           height="10"
           patternUnits="userSpaceOnUse">
          <rect
             width="10"
             height="10"
             fill="#b9a087"
             id="rect84" />
          <rect
             x="2"
             y="0"
             width="1"
             height="10"
             fill="#ffffff"
             id="rect86" />
        </pattern>
        <pattern
           id="vertical3_4c91bf_ffff33"
           width="10"
           height="10"
           patternUnits="userSpaceOnUse">
          <rect
             width="10"
             height="10"
             fill="#4c91bf"
             id="rect89" />
          <rect
             x="2"
             y="0"
             width="3"
             height="10"
             fill="#ffff33"
             id="rect91" />
        </pattern>
        <pattern
           id="checkers_cc3333_f7f7f7"
           width="8"
           height="8"
           patternUnits="userSpaceOnUse">
          <rect
             width="8"
             height="8"
             fill="#cc3333"
             id="rect94" />
          <path
             id="path96"
             fill="#f7f7f7"
             fill-rule="evenodd"
             d="M0 0h4v4H0V0zm4 4h4v4H4V4z" />
        </pattern>
        <pattern
           id="texture_d1dbdd_525252"
           width="4"
           height="4"
           patternUnits="userSpaceOnUse">
          <rect
             width="4"
             height="4"
             fill="#d1dbdd"
             id="rect99" />
          <path
             id="path101"
             fill="#525252"
             d="M1 3h1v1H1V3zm2-2h1v1H3V1z" />
        </pattern>
      </defs>
      <path
         id="Okanogan__WA"
         fill="#d1dbdd"
         fill-opacity="1"
         stroke="#d1dbdd"
         stroke-dasharray="none"
         stroke-miterlimit="4"
         stroke-opacity="1"
         stroke-width="0.1"
         d="m 231.43,52.62 22.8,6 11.33,2.84 5.9,1.46 -0.64,2.65 -1.78,7.4 -0.72,-0.16 -1.17,5.12 0.46,0.16 -1.15,5.1 -0.17,-0.02 -2.55,10.4 -0.16,0.15 -2.57,-0.2 -0.05,-0.6 0.55,-0.6 0.38,-0.55 0.13,-0.35 -0.08,-0.43 -0.54,-0.52 -0.24,-0.85 0.1,-1.4 -0.3,-0.41 -0.32,-0.5 -0.77,-0.17 -0.38,-0.6 -0.58,0.1 -0.48,0.4 -0.57,-0.1 -1.54,0.34 -0.48,-0.55 -0.54,0.25 -0.42,0.48 -0.35,0.92 -1.4,-0.3 -0.54,-0.94 -0.78,-0.18 -0.47,-0.31 -0.63,0.7 -0.38,0.09 -0.43,0.36 h -0.36 l -1.19,0.79 -0.7,-0.12 -0.5,-0.8 0.15,-0.66 0.63,-0.92 -0.19,-0.5 -0.4,0.1 -0.5,-0.1 -0.2,-0.71 -0.59,-0.24 -0.16,0.5 -0.6,-0.2 -1.92,0.57 -0.23,0.44 0.37,0.76 -0.1,0.62 -0.52,0.44 -0.07,0.24 v 0.1 l 0.18,0.35 -3.88,-1.05 0.13,-0.6 -0.25,-0.56 0.1,-0.64 -1,-0.97 0.43,-0.5 -0.97,-0.9 -0.5,-0.07 -0.73,-1.3 -0.46,-0.68 -0.67,0.07 -0.06,-0.51 -0.37,-0.28 v -0.81 l 0.61,-0.62 v -0.85 l -0.7,-0.2 0.14,-0.38 -1.06,-0.86 -0.88,-2.08 -0.62,0.08 -0.75,-0.7 0.7,-0.97 0.06,-0.83 -1.36,-0.76 v -1.64 l 0.88,-0.42 -0.43,-0.45 0.64,-0.38 -0.47,-0.44 0.24,-0.78 -1.06,-0.14 0.4,-0.8 0.4,-0.2 -0.36,-0.98 -0.8,0.34 -0.26,-0.28 -0.18,-1.35 0.77,-0.72 0.35,-0.1 0.55,0.1 0.44,-0.87 0.73,0.19 -0.05,-0.67 0.62,-0.15 -0.43,-0.94 -0.7,-1.14 0.7,-2.25 -0.4,-0.66 0.2,-1.53 0.46,-0.32 -0.12,-0.68 -0.48,-0.2 -1.03,0.49 -0.76,-1.4 0.66,-0.5"
         class="c53047"
         data-originalStrokeWidth="0.1"
         style="stroke:#d1dbdd;stroke-width:0.1px" />
      <path
         id="Whatcom__WA"
         fill="#d1dbdd"
         fill-opacity="1"
         stroke="#d1dbdd"
         stroke-dasharray="none"
         stroke-miterlimit="4"
         stroke-opacity="1"
         stroke-width="0.1"
         d="m 187.17,40.2 -0.09,0.8 1.08,0.38 0.16,-0.05 -0.06,-0.81 -0.96,-0.28 z m 6.56,1.9 -0.43,0.23 -0.58,0.34 -0.55,0.43 -0.2,0.3 v 0.12 l 1.3,0.3 -0.04,0.85 -0.93,0.43 1,1.76 -0.38,1.76 0.47,-0.4 0.53,0.62 -0.07,0.74 -0.7,0.8 0.12,1.17 0.7,0.5 0.34,-0.52 -0.18,-0.4 -0.48,-0.03 1.2,-1.18 h 1.08 l 0.95,1.1 -0.87,0.9 0.06,2.25 0.45,0.04 6.9,1.93 17.18,4.92 7.07,1.89 0.1,-0.5 2.92,0.8 0.34,-0.1 0.55,0.1 0.44,-0.87 0.73,0.19 -0.05,-0.67 0.62,-0.15 -0.43,-0.94 -0.7,-1.14 0.7,-2.25 -0.4,-0.66 0.2,-1.53 0.47,-0.32 -0.13,-0.68 -0.48,-0.2 -1.02,0.5 -0.76,-1.42 0.66,-0.48 -5.47,-1.48 -12.4,-3.28 -6.82,-2.05 -6.07,-1.73 z m -1.17,7.62 -0.56,0.95 0.42,0.49 0.12,1.03 0.63,1 0.53,0.29 0.06,-0.9 -0.56,-0.7 -0.3,-1.36 z"
         data-originalStrokeWidth="0.1"
         style="stroke:#d1dbdd;stroke-width:0.1px" />
      <path
         id="Wahkiakum__WA"
         fill="#d1dbdd"
         fill-opacity="1"
         stroke="#d1dbdd"
         stroke-dasharray="none"
         stroke-miterlimit="4"
         stroke-opacity="1"
         stroke-width="0.1"
         d="m 150.78,115.92 0.88,-2.82 4.58,1.45 2.93,0.85 2.9,0.8 -1.75,6.3 -3.33,-0.13 -0.16,-0.05 -0.9,-1.41 0.47,-1.38 -0.23,-0.72 -0.3,-0.56 -0.1,-0.14 -0.06,-0.03 -0.12,-0.08 -1.39,-0.08 -3.42,-2.01"
         class="c53069"
         data-originalStrokeWidth="0.1"
         style="stroke:#d1dbdd;stroke-width:0.1px" />
      <path
         id="Asotin__WA"
         fill="#d1dbdd"
         fill-opacity="1"
         stroke="#d1dbdd"
         stroke-dasharray="none"
         stroke-miterlimit="4"
         stroke-opacity="1"
         stroke-width="0.1"
         d="m 286.37,146.16 0.5,0.6 -0.3,0.59 0.33,0.3 0.98,-0.1 1,0.62 0.62,-0.1 0.56,0.08 -0.46,1.34 0.68,2.73 0.03,0.1 0.2,1.7 0.14,2.65 -1.03,2.82 0.14,2.13 -11.8,-2.75 0.85,-3.71 1.26,0.29 1.36,-6.1 0.4,-1.62 0.43,0.1 0.14,-0.55 0.86,0.22 0.12,-0.45 2.65,0.64 0.34,-1.53"
         class="c53003"
         data-originalStrokeWidth="0.1"
         style="stroke:#d1dbdd;stroke-width:0.1px" />
      <path
         id="Garfield__WA"
         fill="#d1dbdd"
         fill-opacity="1"
         stroke="#d1dbdd"
         stroke-dasharray="none"
         stroke-miterlimit="4"
         stroke-opacity="1"
         stroke-width="0.1"
         d="m 274.56,138.32 2.54,-1.46 0.28,-0.1 1.27,0.03 0.53,0.2 3.1,1.27 1,0.62 1.06,0.85 2.08,3.84 0.17,1.3 -0.22,1.3 -0.34,1.52 -2.65,-0.63 -0.12,0.45 -0.86,-0.23 -0.14,0.57 -0.44,-0.11 -0.39,1.62 -1.36,6.1 -1.26,-0.3 -0.86,3.7 -2.58,-0.61 0.92,-3.5 -0.27,-0.08 1.53,-6.62 -1.24,-0.27 0.32,-1.16 -0.6,-0.17 0.1,-0.43 -0.5,-0.17 0.4,-1.31 -0.44,-0.13 0.27,-0.95 -2.62,-0.6 0.65,-2.65 0.67,-1.9"
         class="c53023"
         data-originalStrokeWidth="0.1"
         style="stroke:#d1dbdd;stroke-width:0.1px" />
      <path
         id="Columbia__WA"
         fill="#d1dbdd"
         fill-opacity="1"
         stroke="#d1dbdd"
         stroke-dasharray="none"
         stroke-miterlimit="4"
         stroke-opacity="1"
         stroke-width="0.1"
         d="m 266.53,137.4 0.23,0.2 0.67,1.17 0.2,0.12 0.92,0.15 h 0.18 l 5.14,-0.32 0.7,-0.4 -0.68,1.9 -0.65,2.65 2.62,0.6 -0.27,0.94 0.44,0.13 -0.4,1.32 0.5,0.16 -0.1,0.44 0.6,0.16 -0.32,1.16 1.24,0.27 -1.53,6.63 0.27,0.07 -0.92,3.5 -7.82,-1.88 -0.4,-0.1 0.33,-1 1.25,-5.16 -2.6,-0.61 0.64,-2.6 -2.63,-0.63 1.87,-7.93 0.52,-0.93"
         class="c53013"
         data-originalStrokeWidth="0.1"
         style="stroke:#d1dbdd;stroke-width:0.1px" />
      <path
         id="Walla_Walla__WA"
         fill="#d1dbdd"
         fill-opacity="1"
         stroke="#d1dbdd"
         stroke-dasharray="none"
         stroke-miterlimit="4"
         stroke-opacity="1"
         stroke-width="0.1"
         d="m 266.53,137.4 -0.52,0.92 -1.87,7.93 2.63,0.64 -0.65,2.6 2.61,0.6 -1.25,5.16 -0.33,1 -20.69,-4.95 1.31,-0.8 0.33,-1.86 -0.36,-0.8 -0.03,-0.87 -0.95,-1.7 0.3,-0.4 0.24,-0.22 0.95,-0.28 0.53,-0.07 2.1,0.14 1.6,-0.86 0.85,-0.01 0.06,-0.81 0.81,-1.03 1,0.12 1.05,-0.68 0.7,-0.4 0.76,-2.37 0.16,-0.27 0.64,-0.52 1.13,-0.66 1.88,-0.87 0.45,0.1 0.51,0.49 0.9,0.29 0.75,-0.46 0.72,0.1 1.4,0.53 0.28,0.28"
         class="c53071"
         data-originalStrokeWidth="0.1"
         style="stroke:#d1dbdd;stroke-width:0.1px" />
      <path
         id="Franklin__WA"
         fill="#d1dbdd"
         fill-opacity="1"
         stroke="#d1dbdd"
         stroke-dasharray="none"
         stroke-miterlimit="4"
         stroke-opacity="1"
         stroke-width="0.1"
         d="m 244,127.35 3.71,0.9 8.6,2.22 11.05,2.55 -0.6,4.59 -0.23,-0.21 -0.27,-0.28 -1.4,-0.53 -0.73,-0.1 -0.76,0.46 -0.89,-0.3 -0.5,-0.48 -0.46,-0.1 -1.88,0.87 -1.13,0.66 -0.64,0.52 -0.16,0.27 -0.77,2.36 -0.7,0.4 -1.05,0.69 -0.99,-0.12 -0.8,1.03 -0.07,0.8 h -0.86 l -1.58,0.88 -2.1,-0.14 -0.54,0.07 -0.95,0.28 -0.24,0.22 -0.3,0.4 -1.36,-1.28 -0.49,-0.26 -0.6,-0.2 -0.63,-0.4 -1,-1.41 -0.03,-0.17 0.12,-0.26 0.65,-0.7 v -2.1 l 0.61,-1.7 0.42,-1.5 v -0.96 l -0.69,-1.12 -0.92,-1.3 -0.49,-1.1 0.17,-0.7 -0.13,-0.5 -0.44,-0.14 -0.14,-0.45 0.04,-0.37 1.7,0.48 0.45,-1.78"
         class="c53021"
         data-originalStrokeWidth="0.1"
         style="stroke:#d1dbdd;stroke-width:0.1px" />
      <path
         id="Whitman__WA"
         fill="#d1dbdd"
         fill-opacity="1"
         stroke="#d1dbdd"
         stroke-dasharray="none"
         stroke-miterlimit="4"
         stroke-opacity="1"
         stroke-width="0.1"
         d="m 279.57,119.48 16.1,3.73 -0.89,3.94 -3.94,17.52 -0.78,3.48 -0.56,-0.1 -0.62,0.12 -1,-0.63 -0.98,0.1 -0.34,-0.3 0.31,-0.57 -0.5,-0.61 0.22,-1.28 -0.17,-1.32 -2.08,-3.84 -1.05,-0.85 -1,-0.61 -3.1,-1.27 -0.54,-0.2 -1.27,-0.03 -0.28,0.1 -2.54,1.45 -0.7,0.4 -5.13,0.32 h -0.18 l -0.92,-0.15 -0.2,-0.12 -0.67,-1.17 0.6,-4.58 4.2,0.05 0.78,-0.7 0.6,-0.68 0.85,-1.2 0.58,-1.37 2.4,-10.31 2.8,0.66"
         class="c53075"
         data-originalStrokeWidth="0.1"
         style="stroke:#d1dbdd;stroke-width:0.1px" />
      <path
         id="Spokane__WA"
         fill="#d1dbdd"
         fill-opacity="1"
         stroke="#d1dbdd"
         stroke-dasharray="none"
         stroke-miterlimit="4"
         stroke-opacity="1"
         stroke-width="0.1"
         d="m 292.9,97.86 8.01,1.88 -0.46,2.03 -4.05,18.23 -0.7,3.2 -16.1,-3.73 3.98,-16.82 0.28,0.45 0.2,0.12 0.37,-0.15 0.1,-0.33 0.51,0.12 1.3,-0.71 0.31,-0.6 0.33,-0.31 0.3,0.14 -0.13,0.5 v 1.05 l 0.55,0.23 0.61,1.3 0.7,-0.07 0.3,0.3 1.62,-7.3 1.97,0.46"
         class="c53063"
         data-originalStrokeWidth="0.1"
         style="stroke:#d1dbdd;stroke-width:0.1px" />
      <path
         id="Pend_Oreille__WA"
         fill="#d1dbdd"
         fill-opacity="1"
         stroke="#d1dbdd"
         stroke-dasharray="none"
         stroke-miterlimit="4"
         stroke-opacity="1"
         stroke-width="0.1"
         d="m 307.5,71.42 -1.05,4.53 -5.54,23.79 -8,-1.88 0.58,-2.6 -1.3,-0.3 3.6,-15.5 -2.6,-0.58 0.6,-2.6 1.38,0.34 0.82,-2.92 1.07,0.2 0.6,-2.4 1.38,0.18 0.5,-2.1 7.95,1.84"
         class="c53051"
         data-originalStrokeWidth="0.1"
         style="stroke:#d1dbdd;stroke-width:0.1px" />
      <path
         id="Stevens__WA"
         fill="#d1dbdd"
         fill-opacity="1"
         stroke="#d1dbdd"
         stroke-dasharray="none"
         stroke-miterlimit="4"
         stroke-opacity="1"
         stroke-width="0.1"
         d="m 299.55,69.59 -0.5,2.1 -1.39,-0.2 -0.6,2.4 -1.07,-0.2 -0.82,2.93 -1.4,-0.33 -0.58,2.59 2.6,0.59 -3.6,15.48 1.3,0.3 -0.6,2.6 -1.97,-0.46 -1.62,7.32 -0.3,-0.3 -0.7,0.06 -0.6,-1.3 -0.55,-0.23 v -1.04 l 0.11,-0.52 -0.29,-0.13 -0.33,0.32 -0.3,0.59 -1.3,0.7 -0.53,-0.11 -0.09,0.33 -0.37,0.15 -0.2,-0.13 -0.28,-0.44 -0.07,-0.66 -0.72,-0.47 -1.43,0.46 -1.05,-0.61 -0.62,0.54 -0.62,0.48 -0.5,-0.17 -0.46,-0.36 -0.13,-0.62 -0.5,-1.6 -0.93,-2.36 -0.07,-0.07 h -1.02 l -1.34,0.54 -0.63,0.34 -0.02,-1.03 0.45,-1.47 -0.58,-1.85 0.9,-0.35 0.56,-0.07 0.27,0.33 1.13,0.22 0.17,-0.4 0.53,0.06 0.32,-1 -0.17,-0.65 0.15,-0.67 0.64,0.15 0.77,-0.31 0.35,-1.94 0.8,-0.42 0.45,-0.73 -0.13,-2.76 0.21,-3.36 1.18,-1.9 0.56,-0.1 0.6,-1.2 0.42,-0.98 0.53,-0.75 0.36,-3.1 -0.05,-0.86 -0.46,-2.08 -0.28,-0.25 -0.1,-1.14 0.25,-1.72 0.23,-1.04 0.3,-0.38 0.4,-0.36 15.33,3.59"
         class="c53065"
         data-originalStrokeWidth="0.1"
         style="stroke:#d1dbdd;stroke-width:0.1px" />
      <path
         id="Lincoln__WA"
         fill="#d1dbdd"
         fill-opacity="1"
         stroke="#d1dbdd"
         stroke-dasharray="none"
         stroke-miterlimit="4"
         stroke-opacity="1"
         stroke-width="0.1"
         d="m 261.01,93.52 2.57,0.2 0.31,0.97 0.16,0.27 1.46,1.03 0.51,0.03 0.22,-0.4 0.01,-0.53 0.72,-0.26 0.62,0.77 1.5,0.13 0.7,0.58 -0.4,1.2 0.6,0.42 0.95,-0.15 0.2,1.15 0.82,0.65 h 0.82 l 0.7,-1.5 0.62,-0.32 1.35,-0.54 h 1.02 l 0.07,0.07 0.93,2.36 0.5,1.6 0.13,0.62 0.44,0.35 0.51,0.18 0.63,-0.48 0.62,-0.54 1.05,0.6 1.43,-0.46 0.72,0.48 0.07,0.66 -4,16.8 -2.8,-0.64 -20.88,-5.06 5.12,-20.24"
         class="c53043"
         data-originalStrokeWidth="0.1"
         style="stroke:#d1dbdd;stroke-width:0.1px" />
      <path
         id="Adams__WA"
         fill="#d1dbdd"
         fill-opacity="1"
         stroke="#d1dbdd"
         stroke-dasharray="none"
         stroke-miterlimit="4"
         stroke-opacity="1"
         stroke-width="0.1"
         d="m 276.77,118.82 -2.4,10.3 -0.58,1.38 -0.86,1.2 -0.6,0.67 -0.77,0.7 -4.2,-0.04 -11.06,-2.56 -8.59,-2.2 -3.7,-0.91 1.31,-5.21 2.83,0.7 5.1,1.3 2.64,-10.4 20.88,5.07"
         class="c53001"
         data-originalStrokeWidth="0.1"
         style="stroke:#d1dbdd;stroke-width:0.1px" />
      <path
         id="Grant__WA"
         fill="#d1dbdd"
         fill-opacity="1"
         stroke="#d1dbdd"
         stroke-dasharray="none"
         stroke-miterlimit="4"
         stroke-opacity="1"
         stroke-width="0.1"
         d="m 260.96,92.93 0.05,0.6 -5.12,20.23 -2.63,10.4 -5.1,-1.3 -2.84,-0.71 -1.32,5.2 -0.46,1.78 -1.7,-0.48 0.11,-0.1 -0.02,-0.21 -0.5,-1 -0.24,-0.3 -0.27,-0.14 -0.17,0.06 -0.86,0.67 -0.65,0.56 -0.67,0.37 -0.56,0.2 -0.72,0.07 -0.33,-0.36 -0.44,-0.23 -1.26,0.22 -1.58,-0.18 -0.72,-0.24 -0.17,-0.1 -0.69,-0.37 0.06,-0.41 -0.48,-0.87 -0.26,-1.36 0.16,-0.73 0.3,-0.48 0.8,-0.53 0.54,-1.01 -0.53,-1.2 0.61,-2.85 -0.4,-1.46 0.3,-1.37 -0.45,-0.96 0.41,-1.14 1,-0.7 v -0.8 l 0.41,-2.02 0.7,-2.76 0.46,0.1 0.14,-0.47 0.5,0.14 0.13,-0.4 0.4,0.1 0.13,-0.44 0.4,0.09 0.3,-0.9 0.38,0.1 0.16,-0.48 0.35,0.1 0.3,-0.93 7,1.66 0.65,-2.52 0.43,0.1 0.11,-0.38 0.4,0.1 0.13,-0.42 0.4,0.1 0.14,-0.43 0.43,0.12 0.08,-0.4 0.5,0.13 0.1,-0.44 0.4,0.1 0.14,-0.4 1.16,0.25 0.12,-0.43 0.52,0.1 0.3,-1.28 0.45,0.12 0.45,-1.7 0.44,0.13 0.13,-0.46 0.46,0.1 0.28,-0.9 0.33,0.09 0.26,-0.86 0.43,0.09 0.7,-2.48 0.3,0.07 0.11,-0.45 0.97,0.18 0.1,-0.4 0.47,0.09 0.2,-0.9 0.45,0.13 0.14,-0.46 2.36,0.65"
         class="c53025"
         data-originalStrokeWidth="0.1"
         style="stroke:#d1dbdd;stroke-width:0.1px" />
      <path
         id="Benton__WA"
         fill="#d1dbdd"
         fill-opacity="1"
         stroke="#d1dbdd"
         stroke-dasharray="none"
         stroke-miterlimit="4"
         stroke-opacity="1"
         stroke-width="0.1"
         d="m 232.8,127.95 0.16,0.1 0.72,0.23 1.58,0.19 1.26,-0.23 0.44,0.23 0.33,0.37 0.72,-0.07 0.56,-0.2 0.67,-0.38 0.65,-0.56 0.86,-0.66 0.17,-0.07 0.27,0.15 0.24,0.29 0.5,1 0.02,0.2 -0.1,0.1 -0.03,0.39 0.13,0.44 0.44,0.14 0.13,0.52 -0.17,0.68 0.5,1.1 0.91,1.3 0.7,1.12 v 0.98 l -0.43,1.5 -0.62,1.7 v 2.1 l -0.64,0.69 -0.12,0.25 0.04,0.18 1,1.42 0.62,0.4 0.6,0.19 0.5,0.26 1.35,1.27 0.95,1.7 0.03,0.89 0.36,0.79 -0.33,1.87 -1.3,0.79 -0.6,0.5 -0.47,0.2 -1.57,0.46 -0.77,0.12 -0.93,-0.07 -0.55,-0.13 -0.6,-0.3 -3.22,-0.45 -1.22,-0.07 -1.2,-0.08 -0.97,-0.45 -1.16,-0.66 -1.1,0.65 -0.96,0.98 -2.24,-0.22 -2.06,-0.21 2.23,-8.46 0.5,-2 0.04,-0.84 3.17,-12.32"
         class="c53005"
         data-originalStrokeWidth="0.1"
         style="stroke:#d1dbdd;stroke-width:0.1px" />
      <path
         id="Klickitat__WA"
         fill="#d1dbdd"
         fill-opacity="1"
         stroke="#d1dbdd"
         stroke-dasharray="none"
         stroke-miterlimit="4"
         stroke-opacity="1"
         stroke-width="0.1"
         d="m 228.46,145.48 -1.6,6.1 h -2.97 l -3.23,0.39 -0.68,0.17 -1.12,0.85 -4.24,-0.26 -1.68,-0.3 -0.44,-0.28 -0.26,-0.37 -0.56,-1.06 -0.6,-0.42 -0.92,-0.22 -0.45,0.15 -0.93,0.44 -2.3,0.32 -1.9,0.3 -1.1,0.34 -0.48,-0.62 -1.95,-0.91 -2.88,1.2 -0.34,-2.43 -2.64,-1.52 -0.74,-0.15 -1.48,-0.21 -1.46,-1.28 -0.13,-1.15 0.7,-0.44 -1.9,-0.62 0.67,-2.76 1.4,-5 1.83,0.5 2.04,0.54 5.62,1.52 1.73,0.54 9.9,2.7 15.1,3.94"
         class="c53039"
         data-originalStrokeWidth="0.1"
         style="stroke:#d1dbdd;stroke-width:0.1px" />
      <path
         id="Clark__WA"
         fill="#d1dbdd"
         fill-opacity="1"
         stroke="#d1dbdd"
         stroke-dasharray="none"
         stroke-miterlimit="4"
         stroke-opacity="1"
         stroke-width="0.1"
         d="m 166.36,134.59 0.97,-0.07 0.08,-1.47 0.53,-0.55 1.03,0.17 0.16,0.43 0.31,-0.26 0.73,0.2 0.77,-0.3 0.43,0.08 0.96,-0.62 1.54,0.39 0.1,0.45 0.47,-0.02 1.37,0.9 0.76,-0.3 0.2,-1 0.65,-0.76 1,-0.4 0.82,0.3 -1.22,4.35 -1.4,4.63 -1.7,5.99 h -0.39 l -0.59,-0.15 h -0.02 l -0.7,-0.35 -5.97,-3.68 -0.57,-0.43 -1.1,-1.15 -0.42,-0.54 -0.02,-0.75 0.2,-0.56 0.46,-0.78 0.57,-3.75"
         class="c53011"
         data-originalStrokeWidth="0.1"
         style="stroke:#d1dbdd;stroke-width:0.1px" />
      <path
         id="Skamania__WA"
         fill="#d1dbdd"
         fill-opacity="1"
         stroke="#d1dbdd"
         stroke-dasharray="none"
         stroke-miterlimit="4"
         stroke-opacity="1"
         stroke-width="0.1"
         d="m 196.9,126.04 -2.8,10.2 -1.85,-0.5 -1.4,5 -0.67,2.76 1.9,0.62 -0.7,0.44 0.13,1.15 -2.32,-0.04 -1.77,-0.13 -0.58,-0.14 -1.49,-0.82 -1.27,0.08 -0.9,0.47 -0.6,0.54 -7.66,1.07 1.7,-6 1.4,-4.62 1.22,-4.34 2.86,-9.78 14.8,4.05"
         class="c53059"
         data-originalStrokeWidth="0.1"
         style="stroke:#d1dbdd;stroke-width:0.1px" />
      <path
         id="Cowlitz__WA"
         fill="#d1dbdd"
         fill-opacity="1"
         stroke="#d1dbdd"
         stroke-dasharray="none"
         stroke-miterlimit="4"
         stroke-opacity="1"
         stroke-width="0.1"
         d="m 182.1,121.99 -2.86,9.78 -0.83,-0.3 -1,0.39 -0.64,0.76 -0.2,1 -0.76,0.3 -1.37,-0.9 -0.47,0.02 -0.1,-0.45 -1.54,-0.4 -0.96,0.63 -0.43,-0.08 -0.77,0.3 -0.73,-0.2 -0.3,0.26 -0.17,-0.43 -1.03,-0.17 -0.53,0.55 -0.08,1.47 -0.97,0.07 0.16,-0.51 0.2,-2.93 -0.6,-3.35 -0.2,-0.81 -3.49,-4.26 -1.02,-0.42 -1.1,0.2 1.75,-6.3 2.6,0.68 1.65,0.48 12.1,3.52 3.7,1.1"
         class="c53015"
         data-originalStrokeWidth="0.1"
         style="stroke:#d1dbdd;stroke-width:0.1px" />
      <path
         id="Pacific__WA"
         fill="#d1dbdd"
         fill-opacity="1"
         stroke="#d1dbdd"
         stroke-dasharray="none"
         stroke-miterlimit="4"
         stroke-opacity="1"
         stroke-width="0.1"
         d="m 147.7,98.8 -0.53,1.77 0.43,0.4 0.5,-0.23 0.64,0.54 0.45,-0.5 0.8,0.78 0.56,-0.43 0.77,-0.07 0.03,0.82 0.64,0.64 0.4,1.26 0.76,0.05 0.08,0.52 -1.1,0.2 -0.43,-0.2 -0.07,-0.92 -1.7,0.13 -0.1,1.32 0.37,0.69 -0.58,0.66 -0.67,-0.97 0.3,1.63 0.02,1.04 -0.5,0.74 -0.79,0.17 0.26,1.02 -0.15,0.44 0.63,0.44 0.45,0.67 -0.23,0.98 -0.43,-0.17 -0.03,-0.77 -0.6,-0.51 -1,0.59 -0.29,0.85 -0.73,-0.55 -0.64,-0.16 0.75,-4.23 0.58,-2.15 0.03,-1.55 -2.55,8.87 -0.53,0.72 0.95,-0.24 0.71,0.37 0.5,0.49 -0.06,0.69 1.07,1.46 0.63,0.37 3.48,-0.56 0.88,-2.8 4.58,1.43 2.93,0.86 0.86,-2.8 0.6,-2.15 0.5,-2.18 1.35,-4.96 -4.8,-1.48 -5.1,-1.45 z m -0.83,12.08 0.2,-0.34 0.01,-1.28 -0.5,-0.37 -0.03,0.63 0.15,0.57 -0.13,0.48 z"
         data-originalStrokeWidth="0.1"
         style="stroke:#d1dbdd;stroke-width:0.1px" />
      <path
         id="Lewis__WA"
         fill="#d1dbdd"
         fill-opacity="1"
         stroke="#d1dbdd"
         stroke-dasharray="none"
         stroke-miterlimit="4"
         stroke-opacity="1"
         stroke-width="0.1"
         d="m 162.48,103.32 4.28,1.22 -0.25,0.86 4.7,1.39 14.84,4.3 3.23,1.55 4.11,1.49 0.33,-0.33 0.88,-0.55 0.28,-0.13 0.42,-0.11 6.22,1.7 0.26,1.24 -0.26,0.37 0.26,0.12 0.91,0.47 0.13,0.53 -0.55,0.09 0.02,0.54 -0.77,-0.14 -0.53,1.03 0.54,0.45 -0.12,0.5 -0.6,0.59 0.02,0.52 -0.6,0.26 0.12,0.22 -0.29,0.55 -0.5,0.16 -0.5,0.85 0.42,0.56 -0.2,0.77 0.3,1.67 -0.24,0.67 -2.45,-0.68 -14.79,-4.05 -3.7,-1.11 -12.09,-3.52 -1.65,-0.48 -2.6,-0.67 -2.89,-0.82 0.85,-2.8 0.6,-2.15 -0.25,-0.1 2.11,-7.04"
         class="c53041"
         data-originalStrokeWidth="0.1"
         style="stroke:#d1dbdd;stroke-width:0.1px" />
      <path
         id="Thurston__WA"
         fill="#d1dbdd"
         fill-opacity="1"
         stroke="#d1dbdd"
         stroke-dasharray="none"
         stroke-miterlimit="4"
         stroke-opacity="1"
         stroke-width="0.1"
         d="m 168.44,95.72 2.57,0.77 0.64,-0.38 0.86,-0.32 0.34,-0.4 0.47,0.02 0.5,-0.36 0.5,-0.1 0.2,0.6 -0.8,1.64 0.01,1.37 0.5,-0.1 0.4,-1.01 0.3,-1.38 0.66,-0.28 0.03,1.08 0.16,0.89 0.43,0.1 0.36,-1.82 0.33,1.1 0.73,1.34 0.8,0.48 0.16,1.9 0.48,0.95 -0.4,0.57 0.5,0.22 0.13,-0.23 0.64,0.4 v 1.24 l 0.85,0.86 0.26,1.64 2.03,1.28 0.9,0.76 0.12,1.57 1.95,0.96 -14.84,-4.3 -4.7,-1.38 0.25,-0.86 1.65,-5.83 -0.87,-0.25 0.9,-2.74"
         class="c53067"
         data-originalStrokeWidth="0.1"
         style="stroke:#d1dbdd;stroke-width:0.1px" />
      <path
         id="Pierce__WA"
         fill="#d1dbdd"
         fill-opacity="1"
         stroke="#d1dbdd"
         stroke-dasharray="none"
         stroke-miterlimit="4"
         stroke-opacity="1"
         stroke-width="0.1"
         d="m 179.3,88.7 v 0.02 l -0.4,1.32 -0.28,1.69 -1.06,1.35 0.08,1.46 0.44,1.12 0.88,-1.92 0.3,-1.44 0.86,-1.78 1.2,-0.4 1.41,0.29 -1.56,1.3 -0.3,0.97 -0.16,0.62 0.7,0.27 0.91,0.76 0.66,-0.85 -0.28,-1.35 0.83,-0.35 0.5,-1.56 z m 1.6,5 0.55,1.58 0.55,-0.3 z m 2.83,0.57 -0.92,0.98 -0.76,0.86 -0.86,0.76 -0.42,0.82 -0.8,-0.03 -0.7,0.92 -0.84,0.4 0.16,1.89 0.48,0.95 -0.4,0.57 0.5,0.22 0.13,-0.22 0.64,0.4 v 1.23 l 0.85,0.87 0.26,1.64 2.03,1.27 0.9,0.76 0.12,1.57 1.95,0.96 3.23,1.57 4.11,1.48 0.34,-0.32 0.87,-0.55 0.28,-0.14 0.42,-0.1 6.22,1.7 v -0.62 l -0.37,-0.45 0.2,-0.25 -0.13,-0.24 0.1,-0.17 -0.42,-0.26 0.2,-0.38 -0.16,-0.2 -0.15,-0.46 0.88,-0.76 0.7,-0.2 0.42,-0.28 0.1,-0.9 0.4,-0.43 0.8,-0.23 0.05,-0.48 0.43,-0.16 -0.05,-0.42 0.74,-0.67 0.14,-0.9 -0.38,-0.04 -0.23,-0.27 -0.64,0.06 -0.52,-0.88 -0.72,-0.72 -1.57,-0.27 -0.35,-1.05 -0.92,-0.4 -1.08,-0.14 -0.28,-0.38 -0.98,-0.75 -1.28,0.56 -1.12,-0.6 -0.6,0.2 -0.38,0.04 -0.1,-0.56 -1.12,-1.01 -0.7,0.07 -0.55,-0.92 -0.64,-2.55 -3.7,-1.13 -1.2,-2.14 -0.3,0.56 0.4,0.7 -0.53,0.57 -0.82,0.22 -0.67,-1.27 -0.48,-1.1 z m -3.68,0.37 -0.9,0.07 0.3,0.82 1.07,0.02 z m -1.13,1.22 -0.53,0.6 0.37,1.13 0.7,-0.64 -0.08,-0.95 z"
         data-originalStrokeWidth="0.1"
         style="stroke:#d1dbdd;stroke-width:0.1px" />
      <path
         id="Yakima__WA"
         fill="#d1dbdd"
         fill-opacity="1"
         stroke="#d1dbdd"
         stroke-dasharray="none"
         stroke-miterlimit="4"
         stroke-opacity="1"
         stroke-width="0.1"
         d="m 205.4,106.25 0.24,0.5 0.53,-0.06 0.14,0.23 0.45,0.06 0.3,-0.28 0.53,0.1 0.62,0.85 0.3,0.2 0.43,0.73 0.24,0.07 0.61,1.12 0.52,0.98 0.23,0.06 -0.13,0.56 0.91,1.96 8.02,2.13 -0.76,2.56 2.58,0.75 -0.6,2.52 7.4,2.03 3.62,0.88 -0.16,0.74 0.26,1.35 0.48,0.87 -0.06,0.4 0.7,0.39 -3.18,12.32 -0.05,0.85 -0.49,1.99 -0.62,2.37 -15.1,-3.94 -9.9,-2.7 -1.72,-0.54 -5.62,-1.52 -2.04,-0.55 2.8,-10.2 2.46,0.69 0.25,-0.67 -0.3,-1.68 0.2,-0.76 -0.44,-0.57 0.5,-0.85 0.51,-0.15 0.3,-0.55 -0.14,-0.22 0.61,-0.26 v -0.53 l 0.58,-0.57 0.12,-0.52 -0.54,-0.44 0.53,-1.04 0.77,0.15 -0.02,-0.54 0.55,-0.1 -0.13,-0.52 -0.9,-0.47 -0.27,-0.12 0.26,-0.38 -0.26,-1.22 v -0.63 l -0.37,-0.44 0.2,-0.26 -0.13,-0.23 0.1,-0.18 -0.42,-0.26 0.2,-0.38 -0.16,-0.2 -0.15,-0.46 0.88,-0.76 0.7,-0.2 0.42,-0.28 0.1,-0.9 0.4,-0.42 0.8,-0.23 0.05,-0.48 0.43,-0.17 -0.05,-0.41 0.74,-0.68 0.14,-0.9"
         class="c53077"
         data-originalStrokeWidth="0.1"
         style="stroke:#d1dbdd;stroke-width:0.1px" />
      <path
         id="Kittitas__WA"
         fill="#d1dbdd"
         fill-opacity="1"
         stroke="#d1dbdd"
         stroke-dasharray="none"
         stroke-miterlimit="4"
         stroke-opacity="1"
         stroke-width="0.1"
         d="m 205.4,106.25 -0.06,-0.27 -0.3,-0.25 0.04,-0.3 0.23,-0.33 0.87,-0.27 1.04,0.42 0.37,-0.35 -0.17,-0.7 0.45,-0.74 -0.18,-0.58 -0.94,-0.51 0.4,-0.43 0.63,-0.34 v -0.86 l -0.15,-0.27 -1.57,-0.28 -0.09,-0.82 0.42,-0.54 -0.4,-0.7 0.04,-0.72 0.84,-0.34 0.4,-0.8 0.9,-0.15 0.07,-0.48 0.3,-0.33 1.85,-0.34 0.15,-0.4 0.64,-0.67 0.37,0.15 0.53,-0.28 0.4,-0.73 1.07,0.2 0.4,-0.7 1.08,0.04 0.28,1.8 1.28,1.15 0.17,1 0.46,0.44 -0.13,0.6 0.65,0.47 -0.23,0.72 1.25,0.62 1.27,0.22 -0.04,0.35 0.7,0.72 0.37,0.03 0.02,0.84 0.58,0.32 0.24,0.62 1.72,0.6 0.1,1.1 0.5,0.05 0.63,-0.58 0.32,0.76 0.48,0.5 0.47,0.24 0.41,0.7 0.56,0.6 6.02,1.52 0.01,1.35 1.45,0.36 -0.43,2.03 v 0.8 l -0.98,0.7 -0.42,1.14 0.47,0.95 -0.3,1.37 0.4,1.46 -0.62,2.85 0.53,1.2 -0.54,1 -0.8,0.55 -0.3,0.47 -3.63,-0.88 -7.4,-2.02 0.61,-2.53 -2.58,-0.75 0.76,-2.56 -8.02,-2.13 -0.9,-1.95 0.12,-0.57 -0.23,-0.06 -0.52,-0.98 -0.6,-1.12 -0.25,-0.07 -0.42,-0.72 -0.3,-0.2 -0.63,-0.85 -0.54,-0.1 -0.29,0.27 -0.45,-0.06 -0.14,-0.23 -0.53,0.07 -0.24,-0.5"
         class="c53037"
         data-originalStrokeWidth="0.1"
         style="stroke:#d1dbdd;stroke-width:0.1px" />
      <path
         id="Douglas__WA"
         fill="#d1dbdd"
         fill-opacity="1"
         stroke="#d1dbdd"
         stroke-dasharray="none"
         stroke-miterlimit="4"
         stroke-opacity="1"
         stroke-width="0.1"
         d="m 260.96,92.93 -2.36,-0.64 -0.14,0.46 -0.46,-0.14 -0.2,0.9 -0.46,-0.1 -0.1,0.4 -0.97,-0.17 -0.12,0.45 -0.3,-0.07 -0.7,2.48 -0.42,-0.08 -0.26,0.85 -0.33,-0.07 -0.28,0.9 -0.46,-0.12 -0.13,0.46 -0.45,-0.11 -0.44,1.68 -0.45,-0.12 -0.3,1.29 -0.53,-0.1 -0.1,0.43 -1.17,-0.27 -0.14,0.4 -0.4,-0.1 -0.1,0.45 -0.5,-0.12 -0.08,0.4 -0.43,-0.13 -0.14,0.43 -0.4,-0.1 -0.13,0.42 -0.4,-0.1 -0.1,0.4 -0.44,-0.12 -0.67,2.52 -7,-1.66 -0.28,0.94 -0.35,-0.1 -0.16,0.47 -0.38,-0.1 -0.3,0.9 -0.4,-0.1 -0.13,0.46 -0.4,-0.1 -0.12,0.4 -0.5,-0.14 -0.15,0.46 -0.46,-0.1 -0.7,2.76 -1.45,-0.36 v -1.35 l 0.2,-0.42 0.27,-0.73 0.3,-0.9 -0.02,-0.18 -0.68,-1.04 -2.08,-0.94 -0.3,-0.17 -0.6,-0.51 -0.08,-0.26 -0.07,-1.06 v -0.74 l 0.15,-0.44 0.65,-1.35 0.51,-0.68 0.73,-0.24 0.76,-0.93 0.4,-1.31 0.91,-0.76 0.1,-0.62 -0.22,-0.82 0.17,-0.57 0.3,-0.33 0.2,-0.14 0.3,-0.12 1.3,-0.17 0.26,0.12 0.27,0.28 0.11,0.17 0.14,0.06 2.01,-0.06 1,-0.85 0.26,-0.81 1.16,-0.33 0.2,-1.16 1.2,-0.6 0.14,-0.3 V 88.83 L 243,88.46 242.83,88.12 v -0.1 l 0.06,-0.24 0.53,-0.45 0.1,-0.61 -0.38,-0.77 0.23,-0.43 1.92,-0.57 0.6,0.2 0.16,-0.5 0.6,0.23 0.18,0.72 0.51,0.1 0.4,-0.11 0.2,0.5 -0.64,0.92 -0.16,0.67 0.5,0.79 0.71,0.12 1.2,-0.78 0.35,-0.01 0.43,-0.36 0.38,-0.1 0.63,-0.7 0.47,0.32 0.78,0.18 0.53,0.94 1.41,0.3 0.35,-0.92 0.42,-0.47 0.54,-0.26 0.48,0.55 1.54,-0.34 0.57,0.1 0.48,-0.4 0.58,-0.1 0.38,0.6 0.77,0.17 0.32,0.5 0.3,0.42 -0.1,1.39 0.24,0.85 0.54,0.52 0.08,0.43 -0.13,0.35 -0.38,0.55 -0.55,0.62"
         class="c53017"
         data-originalStrokeWidth="0.1"
         style="stroke:#d1dbdd;stroke-width:0.1px" />
      <path
         id="Ferry__WA"
         fill="#d1dbdd"
         fill-opacity="1"
         stroke="#d1dbdd"
         stroke-dasharray="none"
         stroke-miterlimit="4"
         stroke-opacity="1"
         stroke-width="0.1"
         d="m 271.45,62.92 12.76,3.08 -0.39,0.36 -0.3,0.39 -0.23,1.03 -0.26,1.72 0.1,1.14 0.3,0.25 0.45,2.08 0.05,0.87 -0.36,3.09 -0.53,0.76 -0.42,0.98 -0.6,1.2 -0.56,0.08 -1.18,1.9 -0.2,3.37 0.12,2.76 -0.44,0.73 -0.8,0.42 -0.36,1.94 -0.77,0.3 -0.65,-0.14 -0.14,0.67 0.17,0.65 -0.32,1 -0.53,-0.05 -0.17,0.4 -1.13,-0.23 -0.27,-0.33 -0.57,0.07 -0.89,0.35 0.58,1.85 -0.45,1.47 0.02,1.03 -0.7,1.5 -0.82,-0.02 -0.83,-0.65 -0.2,-1.15 -0.95,0.15 -0.6,-0.41 0.4,-1.2 -0.69,-0.6 -1.5,-0.12 -0.62,-0.76 -0.72,0.26 v 0.53 l -0.23,0.4 -0.5,-0.04 -1.47,-1.03 -0.16,-0.27 -0.3,-0.97 0.15,-0.15 2.55,-10.4 0.16,0.03 1.16,-5.11 -0.46,-0.15 1.17,-5.13 0.72,0.16 1.78,-7.4 0.63,-2.65"
         class="c53019"
         data-originalStrokeWidth="0.1"
         style="stroke:#d1dbdd;stroke-width:0.1px" />
      <path
         id="San_Juan__WA"
         fill="#d1dbdd"
         fill-opacity="1"
         stroke="#d1dbdd"
         stroke-dasharray="none"
         stroke-miterlimit="4"
         stroke-opacity="1"
         stroke-width="0.1"
         d="m 181.48,48.54 0.36,0.66 0.76,0.93 1.16,0.68 -0.24,-0.56 -0.07,-0.5 -0.8,-0.65 -0.6,-0.55 z m 4.97,0.09 -0.8,0.07 -0.6,0.32 0.32,0.49 -0.14,0.5 0.96,-0.2 0.2,-0.67 z m 1.66,0.98 -0.53,0.06 -1.79,1.12 -0.82,0.6 v 0.49 h 0.64 l 0.3,0.67 0.23,-0.4 v -0.68 l 0.46,0.15 -0.1,0.58 0.08,0.64 0.4,0.63 0.94,-0.13 0.15,-0.32 -0.04,-0.8 -0.2,-1.26 0.06,-0.84 0.57,0.15 -0.1,1.44 0.43,0.94 0.11,0.87 0.56,-0.01 0.02,-0.64 0.63,-0.2 v -0.01 l 0.7,-0.25 0.34,-0.25 v -0.04 l -1.48,-1.58 -0.73,-0.66 -0.35,-0.18 z m -5.93,1.17 -0.48,0.34 -0.24,0.27 -0.04,0.19 0.37,0.5 -0.24,0.46 0.13,1.04 0.1,0.52 0.13,0.3 0.32,0.5 1.32,1.43 0.6,0.45 0.77,0.3 0.17,-0.45 -0.76,-0.27 -0.06,-0.88 0.26,-0.57 0.53,0.15 0.45,-0.4 -0.34,-0.32 -0.48,-0.14 0.05,-0.6 -0.63,-0.94 -0.63,-0.82 0.3,-0.6 -1.05,-0.34 z m 1.6,0.47 z m 3.85,2.55 -0.27,0.14 -0.28,0.4 -0.42,-0.03 -0.58,1.03 -0.44,0.63 -0.07,0.8 0.54,0.36 -0.13,1.07 0.3,0.24 0.2,0.08 1.26,0.24 0.23,-0.14 0.11,-0.63 0.06,-0.88 0.92,-0.68 -0.07,-0.7 -1,-0.1 -0.05,0.83 -0.35,0.89 -0.14,-0.2 0.11,-0.5 -0.4,-0.6 0.38,-0.43 0.6,-0.55 -0.44,-0.2 0.05,-0.46 z m -1.45,0.47 0.2,-0.44 0.4,0.09 0.3,-0.25 -0.6,-0.57 -0.58,-0.35 -0.49,-0.26 -0.37,0.49 0.4,0.22 0.1,0.69 z m 2.33,-0.34 -0.07,0.52 0.06,1.02 h 0.47 l 0.7,-0.31 -0.15,-0.7 -0.43,-0.45 z"
         data-originalStrokeWidth="0.1"
         style="stroke:#d1dbdd;stroke-width:0.1px" />
      <path
         id="Island__WA"
         fill="#d1dbdd"
         fill-opacity="1"
         stroke="#d1dbdd"
         stroke-dasharray="none"
         stroke-miterlimit="4"
         stroke-opacity="1"
         stroke-width="0.1"
         d="m 191.38,60.4 0.1,-0.07 0.2,-0.08 0.14,0.09 0.07,0.15 0.13,0.38 -0.53,1.1 1.3,1.48 0.1,0.36 -0.06,0.3 -0.04,0.06 -0.44,0.27 -0.2,0.04 -0.42,-0.1 -0.13,-0.05 -0.2,-0.47 -0.17,-0.14 -0.3,-0.1 h -0.42 l -0.2,0.1 -0.73,0.56 -0.54,0.62 -1.08,-0.18 v 0.77 l 1.25,0.04 0.87,0.6 0.2,1.17 0.1,1.8 -0.53,0.55 0.4,0.9 -0.3,1.17 0.12,0.74 0.68,-0.6 -0.02,-1.06 0.23,-0.8 0.55,0.17 0.37,0.72 0.28,0.87 0.54,0.67 0.66,0.36 -0.27,1.02 0.14,0.9 -0.4,0.88 -0.82,0.4 -0.94,-0.15 v -0.51 l 0.26,-0.42 -0.12,-0.61 -0.3,-0.66 -0.39,-0.23 -0.56,0.18 -0.47,0.16 -0.24,-0.31 0.24,-0.48 -0.23,-0.6 -0.5,-0.27 -0.2,-0.72 0.36,-0.3 -0.26,-0.97 0.93,-1.14 v -1.28 l -0.6,-0.4 -0.8,0.13 -0.24,-1.28 -0.42,-0.3 -0.14,-0.43 -0.33,-0.44 0.37,-0.8 0.94,-0.74 0.28,-0.51 1.7,-1.58 0.3,-0.51 0.11,-0.53 0.17,-0.08 0.45,0.2 m 1.87,10.9 -0.36,-0.77 -0.4,-0.42 -0.3,-0.7 -0.45,0.08 -0.27,-0.46 -0.1,-1.53 0.22,-0.26 -0.2,-0.52 0.65,-1.24 0.7,-0.11 0.44,0.3 0.45,-0.54 0.93,1.04 -0.07,0.75 -0.27,-0.08 -0.17,-0.32 -0.38,-0.12 -0.12,0.45 -0.26,0.7 -0.7,0.04 -0.04,0.77 0.44,1.17 0.74,1.6 0.1,0.97 -0.5,-0.1 z"
         class="c53029"
         data-originalStrokeWidth="0.1"
         style="stroke:#d1dbdd;stroke-width:0.1px" />
      <path
         id="Snohomish__WA"
         fill="#d1dbdd"
         fill-opacity="1"
         stroke="#d1dbdd"
         stroke-dasharray="none"
         stroke-miterlimit="4"
         stroke-opacity="1"
         stroke-width="0.1"
         d="m 195.33,64.9 10.83,3.04 5.17,1.46 1.51,0.45 10,2.74 -0.27,0.57 0.36,0.92 0.45,0.94 -0.3,0.34 0.5,0.52 0.31,1.26 -1.46,0.17 0.12,1.04 -1.73,0.74 -0.3,-0.23 -2.65,0.54 0.46,1.27 -0.6,0.46 -0.23,-0.01 -0.59,0.6 V 82 l -0.37,0.56 -0.3,0.62 -0.07,0.66 0.36,0.36 -0.32,0.84 0.64,0.74 0.88,0.22 -0.68,0.72 -0.68,0.45 -6.07,-1.67 -0.73,-0.14 -2.6,-0.67 -9.89,-2.72 -6.47,-1.9 0.02,-0.07 0.23,-0.67 2.98,-3.78 0.65,-0.06 0.6,0.08 0.5,-0.22 0.11,-0.14 0.35,-1.18 -0.02,-0.43 -0.82,-0.86 -0.85,-1.76 -0.2,-0.9 v -0.05 l 0.22,-0.75 0.22,-0.67 0.06,-1.62 0.17,-0.93 0.5,-1.15"
         class="c53061"
         data-originalStrokeWidth="0.1"
         style="stroke:#d1dbdd;stroke-width:0.1px" />
      <path
         id="King__WA"
         fill="#d1dbdd"
         fill-opacity="1"
         stroke="#d1dbdd"
         stroke-dasharray="none"
         stroke-miterlimit="4"
         stroke-opacity="1"
         stroke-width="0.1"
         d="m 187.56,91.52 -0.6,0.27 -1,0.18 -0.73,0.47 -0.8,0.12 0.5,-1.51 0.6,-1.38 0.46,-0.76 0.47,-0.51 0.23,-0.65 0.32,0.18 -0.2,0.74 0.05,1.68 -0.16,0.7 z m 3.17,-9.36 -0.12,-2.11 6.47,1.9 9.88,2.72 2.6,0.67 0.74,0.14 6.07,1.67 0.5,1.4 -0.24,0.47 0.3,0.46 -0.06,0.23 -1.64,0.38 v 0.66 l -0.2,1.83 -1.08,-0.03 -0.4,0.7 -1.08,-0.2 -0.39,0.72 -0.53,0.29 -0.36,-0.16 -0.65,0.67 -0.15,0.4 -1.86,0.35 -0.29,0.32 -0.08,0.49 -0.9,0.14 -0.39,0.8 -0.84,0.35 -0.05,0.72 0.41,0.7 -0.42,0.53 0.1,0.82 1.56,0.28 0.14,0.27 v 0.86 l -0.63,0.34 -0.4,0.43 0.95,0.5 0.18,0.59 -0.45,0.74 0.17,0.7 -0.37,0.36 -1.04,-0.43 -0.87,0.28 -0.23,0.32 -0.04,0.3 0.3,0.25 0.06,0.28 -0.38,-0.04 -0.23,-0.27 -0.64,0.06 -0.52,-0.88 -0.72,-0.72 -1.57,-0.27 -0.35,-1.05 -0.92,-0.4 -1.08,-0.14 -0.28,-0.38 -0.98,-0.75 -1.29,0.56 -1.1,-0.6 -0.6,0.2 -0.39,0.04 -0.12,-0.55 -1.1,-1.02 -0.7,0.07 -0.55,-0.92 -0.65,-2.55 -3.68,-1.13 -1.2,-2.15 1.81,-0.14 0.68,-1.65 -0.45,-1.51 0.33,-0.73 -0.14,-1.65 0.15,-1.43 0.36,-0.2 0.48,0.8 0.53,-0.38 0.24,-0.94 -1.15,-1.33 -0.04,-0.8 z"
         class="c53033"
         data-originalStrokeWidth="0.1"
         style="stroke:#d1dbdd;stroke-width:0.1px" />
      <path
         id="Kitsap__WA"
         fill="#d1dbdd"
         fill-opacity="1"
         stroke="#d1dbdd"
         stroke-dasharray="none"
         stroke-miterlimit="4"
         stroke-opacity="1"
         stroke-width="0.1"
         d="m 187.9,74.68 0.18,1.7 -0.93,0.79 -1.7,0.69 -0.43,0.65 -1.48,0.95 -0.56,1.45 -1,0.9 -3,0.16 -0.26,0.68 -1.09,0.08 -1.4,0.98 -0.3,0.33 0.48,0.12 0.9,0.18 3,0.96 -1.02,3.4 4.73,1.5 1.94,-2.9 -0.63,-0.5 0.32,-1.14 -0.37,-0.51 -0.44,0.57 -0.86,0.26 -0.73,-0.03 -0.59,0.13 -0.37,-0.38 0.73,-0.53 0.6,-0.43 0.07,-0.8 h -0.5 l -0.4,-0.68 0.9,-1.22 0.28,0.94 -0.04,1.68 0.9,-0.33 0.53,-0.96 -0.46,-1.04 0.44,-1.1 -0.82,-1.08 0.68,-0.75 0.7,1.58 0.65,-0.2 0.8,-0.97 0.78,0.52 0.75,-0.04 -0.32,-1.1 0.34,-0.36 -0.18,-0.75 0.4,-1.72 -0.07,-0.82 -0.3,-0.5 z m -1.09,6.42 0.72,0.9 -0.35,2 -0.05,1.25 -0.74,0.04 -0.24,-0.98 -0.68,0.14 0.47,-1.94 z"
         data-originalStrokeWidth="0.1"
         style="stroke:#d1dbdd;stroke-width:0.1px" />
      <path
         id="Mason__WA"
         fill="#d1dbdd"
         fill-opacity="1"
         stroke="#d1dbdd"
         stroke-dasharray="none"
         stroke-miterlimit="4"
         stroke-opacity="1"
         stroke-width="0.1"
         d="m 166.88,78.59 -0.78,2.6 -2.48,7.6 0.35,0.17 -1.5,5.14 5.97,1.62 2.58,0.76 0.43,-0.9 0.67,-0.06 0.08,-0.54 0.86,-0.45 0.95,-0.3 1.2,0.33 -0.17,-1.17 -0.08,-0.87 0.4,-1.04 0.95,-0.3 1.12,-0.47 1.08,-1.57 0.38,0.9 0.4,-1.32 1.02,-3.42 -3,-0.96 -0.9,-0.18 -0.49,-0.13 -0.7,1.05 -2.5,2.3 0.85,0.57 0.95,0.05 1.87,-0.27 1.42,-0.41 1,-0.25 -0.22,0.97 -0.64,0.27 -1.5,0.47 -0.98,-0.12 -1.4,0.5 -1.39,-0.47 -0.67,0.46 -0.67,-1.01 0.66,-1.26 1.64,-1.77 1.1,-0.86 0.48,-1.17 1.48,-1.2 0.13,-0.08 0.44,-0.1 z m 9.35,13.08 -0.78,0.45 0.18,1.97 0.05,1.2 1.07,-0.81 -0.19,-1.63 0.61,-1.52 z"
         data-originalStrokeWidth="0.1"
         style="stroke:#d1dbdd;stroke-width:0.1px" />
      <path
         id="Grays_Harbor__WA"
         fill="#d1dbdd"
         fill-opacity="1"
         stroke="#d1dbdd"
         stroke-dasharray="none"
         stroke-miterlimit="4"
         stroke-opacity="1"
         stroke-width="0.1"
         d="m 149.18,75.57 6.06,1.88 -0.05,0.46 10.9,3.3 -2.47,7.6 0.35,0.15 -1.5,5.14 5.97,1.62 -0.9,2.74 0.87,0.25 -1.65,5.82 -4.28,-1.22 -4.8,-1.5 -5.1,-1.43 -4.88,-1.57 v -3.46 l 0.45,0.22 h 0.03 l -0.25,2.19 0.58,-0.34 0.3,0.82 0.85,-0.14 v -0.86 l 0.16,-0.5 1.2,-0.8 2.35,-0.08 0.51,-0.1 h 0.03 l 1.04,0.03 0.24,-0.65 -1.06,0.02 -2.96,-1.62 0.1,-1.2 -0.7,-0.56 -1.07,-0.68 -1.13,0.09 -0.4,2.47 -0.37,-0.04 0.8,-2.67 0.61,-2.31 0.28,-5.5 -0.73,-0.64 -0.3,-1.5 0.01,-0.38 0.2,-1.5 0.71,-3.54"
         class="c53027"
         data-originalStrokeWidth="0.1"
         style="stroke:#d1dbdd;stroke-width:0.1px" />
      <path
         id="Jefferson__WA"
         fill="#d1dbdd"
         fill-opacity="1"
         stroke="#d1dbdd"
         stroke-dasharray="none"
         stroke-miterlimit="4"
         stroke-opacity="1"
         stroke-width="0.1"
         d="m 147.16,63.84 0.43,0.24 0.36,0.43 0.03,0.04 0.02,0.02 0.9,1.67 0.1,0.22 0.55,2.43 0.03,0.27 -0.1,3.35 -0.1,1.46 -0.14,1.25 -0.06,0.36 6.06,1.88 -0.05,0.46 10.9,3.3 0.8,-2.62 10.38,3.1 1.26,-0.9 1.16,-0.83 1.15,-1.6 0.5,-2.38 0.71,-0.23 -0.24,1.53 h 0.31 l 0.43,-1.97 0.76,0.06 -0.2,1.49 -1.74,3.32 0.61,0.07 0.7,-1.55 0.37,-0.12 0.7,-1.22 1.3,-0.82 0.22,-1.02 1.1,0.28 v -1.3 l -0.35,-1.17 -0.2,-2.22 -0.4,-0.26 -0.14,-1.02 -0.3,-1.13 0.38,-0.73 0.94,-0.07 0.1,-0.68 -0.47,-0.13 -1.05,-0.04 -0.96,1.2 0.57,1.42 -0.88,1.56 -0.8,-0.28 0.3,-0.66 -0.04,-0.74 -0.7,-0.68 0.31,-1.02 -0.48,-0.42 -1.92,6.79 -13.79,-4.16 0.08,-0.3 -2.23,-0.72 -7.5,-2.25 -5,-1.55 -1.22,-0.43 z m 39.26,6.63 0.6,1.13 0.16,-1.52 0.21,-1.2 -0.84,0.09 z"
         data-originalStrokeWidth="0.1"
         style="stroke:#d1dbdd;stroke-width:0.1px" />
      <path
         id="Clallam__WA"
         fill="#d1dbdd"
         fill-opacity="1"
         stroke="#d1dbdd"
         stroke-dasharray="none"
         stroke-miterlimit="4"
         stroke-opacity="1"
         stroke-width="0.1"
         d="m 147.16,63.84 -0.22,-0.6 -0.04,-2.74 0.65,-2.95 0.62,-0.9 -0.4,-1.93 0.76,-0.18 0.58,-1.42 -0.1,-0.44 0.6,-0.4 0.24,-0.64 0.58,-0.42 0.28,-1.05 -0.62,-0.7 -0.62,-1.07 0.2,-0.06 1.27,0.37 0.71,0.62 0.66,0.58 0.78,0.8 0.25,0.26 1.53,1.83 6.11,5.8 1.27,0.8 2.2,0.97 2.75,0.92 1,0.17 0.6,0.47 0.45,0.59 1.44,0.08 0.43,0.63 1.81,0.86 1.27,0.6 2.36,0.6 1.46,-0.25 1.35,0.02 0.73,1.06 -0.02,1.83 0.33,1.53 0.6,-0.36 0.18,-1.5 1,-0.17 -1.9,6.79 -13.8,-4.16 0.08,-0.3 -2.23,-0.72 -7.5,-2.25 -5,-1.55 -1.22,-0.43 -3.46,-1"
         class="c53009"
         data-originalStrokeWidth="0.1"
         style="stroke:#d1dbdd;stroke-width:0.1px" />
      <path
         id="Skagit__WA"
         fill="#d1dbdd"
         fill-opacity="1"
         stroke="#d1dbdd"
         stroke-dasharray="none"
         stroke-miterlimit="4"
         stroke-opacity="1"
         stroke-width="0.1"
         d="m 230.7,63.26 -0.79,0.7 0.18,1.37 0.26,0.28 0.8,-0.35 0.37,0.99 -0.42,0.2 -0.4,0.8 -0.58,-0.03 -0.6,0.3 -0.62,-0.03 -0.4,-0.46 0.14,-0.47 -0.08,-0.47 -0.66,-0.15 -0.02,0.36 -0.3,0.14 -0.22,-0.34 -0.6,0.23 -0.55,-0.23 -0.4,-0.07 -0.1,0.8 -1.99,-0.3 -0.7,1 0.43,0.74 -0.9,0.98 v 0.6 l 0.2,0.57 -0.16,0.54 -0.5,-0.07 -0.3,0.48 1.05,1.22 -10,-2.74 -1.5,-0.45 -5.18,-1.45 -10.83,-3.05 -0.37,-1.01 -1.1,-1.04 -1.15,-1 -0.13,-1.22 0.35,-0.84 -0.4,-0.3 -0.38,0.48 -0.46,0.1 h -0.57 l -0.35,-0.15 -0.07,-0.9 0.34,-0.26 0.14,-0.58 -0.14,-0.44 -0.5,-0.24 0.1,-0.42 0.6,0.1 1,-0.2 0.5,0.1 0.16,1.05 0.57,-0.3 0.36,1.57 0.57,0.3 0.5,-0.43 -0.04,-1.06 0.3,-0.9 -0.17,-0.85 -1,-0.71 0.3,-0.35 1,0.84 0.47,0.54 1.16,-1 -0.27,-0.8 -0.58,-0.8 0.45,0.04 6.9,1.93 17.18,4.9 7.08,1.9 0.08,-0.5 2.93,0.8 m -38.94,-6.7 0.63,-1.73 0.82,1.33 0.1,0.75 z m -1.25,-0.57 0.04,-0.73 -0.16,-0.74 0.67,-0.75 0.5,0.43 -0.03,0.55 0.16,0.44 -0.3,0.13 -0.25,0.42 z"
         class="c53057"
         data-originalStrokeWidth="0.1"
         style="stroke:#d1dbdd;stroke-width:0.1px" />
      <path
         id="Chelan__WA"
         fill="#d1dbdd"
         fill-opacity="1"
         stroke="#d1dbdd"
         stroke-dasharray="none"
         stroke-miterlimit="4"
         stroke-opacity="1"
         stroke-width="0.1"
         d="m 230.71,67.24 1.06,0.14 -0.24,0.78 0.47,0.45 -0.64,0.38 0.43,0.45 -0.88,0.4 v 1.65 l 1.36,0.77 -0.06,0.83 -0.7,0.97 0.75,0.7 0.62,-0.1 0.88,2.09 1.06,0.87 -0.14,0.37 0.7,0.2 v 0.86 l -0.6,0.6 v 0.83 l 0.36,0.27 0.06,0.5 0.67,-0.05 0.47,0.67 0.73,1.3 0.5,0.07 0.96,0.9 -0.42,0.5 1,0.98 -0.1,0.63 0.24,0.57 -0.13,0.6 3.88,1.05 0.07,0.36 v 0.24 l -0.15,0.29 -1.18,0.6 -0.2,1.16 -1.17,0.33 -0.27,0.8 -0.99,0.87 -2,0.05 -0.15,-0.05 -0.1,-0.18 -0.28,-0.28 -0.25,-0.12 -1.32,0.18 -0.3,0.12 -0.2,0.13 -0.3,0.33 -0.16,0.57 0.23,0.82 -0.1,0.62 -0.92,0.76 -0.4,1.32 -0.76,0.93 -0.73,0.24 -0.5,0.68 -0.66,1.34 -0.15,0.44 v 0.75 l 0.07,1.05 0.08,0.26 0.6,0.5 0.3,0.19 2.08,0.93 0.68,1.05 0.02,0.17 -0.3,0.9 -0.27,0.74 -0.2,0.4 -6.03,-1.51 -0.56,-0.6 -0.4,-0.7 -0.48,-0.22 -0.48,-0.52 -0.32,-0.76 -0.63,0.59 -0.49,-0.04 -0.1,-1.1 -1.73,-0.61 -0.24,-0.63 -0.58,-0.31 -0.02,-0.85 -0.36,-0.03 -0.7,-0.72 0.03,-0.34 -1.27,-0.22 -1.25,-0.63 0.23,-0.72 -0.65,-0.47 0.13,-0.6 -0.46,-0.44 -0.17,-1 -1.28,-1.15 -0.28,-1.8 0.2,-1.83 v -0.66 l 1.64,-0.38 0.07,-0.23 -0.3,-0.46 0.22,-0.48 -0.49,-1.38 0.68,-0.45 0.68,-0.72 -0.88,-0.22 -0.64,-0.74 0.32,-0.84 -0.36,-0.36 0.07,-0.66 0.3,-0.62 0.36,-0.56 0.01,-0.28 0.6,-0.6 h 0.21 l 0.6,-0.45 -0.45,-1.27 2.65,-0.54 0.3,0.23 1.73,-0.74 -0.12,-1.03 1.46,-0.18 -0.32,-1.26 -0.5,-0.52 0.3,-0.34 -0.44,-0.94 -0.36,-0.92 0.27,-0.57 -1.07,-1.22 0.31,-0.48 0.5,0.07 0.16,-0.55 -0.2,-0.55 v -0.62 l 0.9,-0.97 -0.44,-0.75 0.72,-1 2,0.3 0.08,-0.8 0.4,0.08 0.56,0.23 0.6,-0.23 0.21,0.33 0.3,-0.13 0.02,-0.37 0.67,0.15 0.08,0.48 -0.14,0.47 0.4,0.46 0.61,0.03 0.6,-0.3 0.6,0.02"
         class="c53007"
         data-originalStrokeWidth="0.1"
         style="stroke:#d1dbdd;stroke-width:0.1px" />
      <g
         id="state_borders"
         style="opacity:1;stroke:#000000"
         stroke="#000" />
    </svg>
  </g>
</svg>
