<?xml version="1.0" encoding="UTF-8" standalone="no"?>
<svg
   id="wrapper"
   viewBox="0 0 976.80951 615.24615"
   preserveAspectRatio="xMinYMin"
   height="615.24615"
   width="976.80951"
   version="1.1"
   sodipodi:docname="usa.svg"
   inkscape:version="1.2.2 (b0a8486541, 2022-12-01)"
   xmlns:inkscape="http://www.inkscape.org/namespaces/inkscape"
   xmlns:sodipodi="http://sodipodi.sourceforge.net/DTD/sodipodi-0.dtd"
   xmlns="http://www.w3.org/2000/svg"
   xmlns:svg="http://www.w3.org/2000/svg"
   xmlns:rdf="http://www.w3.org/1999/02/22-rdf-syntax-ns#"
   xmlns:cc="http://creativecommons.org/ns#"
   xmlns:dc="http://purl.org/dc/elements/1.1/">
  <defs
     id="defs352" />
  <sodipodi:namedview
     id="namedview350"
     pagecolor="#ffffff"
     bordercolor="#000000"
     borderopacity="0.25"
     inkscape:showpageshadow="2"
     inkscape:pageopacity="0.0"
     inkscape:pagecheckerboard="0"
     inkscape:deskcolor="#d1d1d1"
     showgrid="false"
     inkscape:zoom="1.3485714"
     inkscape:cx="340.36018"
     inkscape:cy="317.37289"
     inkscape:window-width="2560"
     inkscape:window-height="1508"
     inkscape:window-x="0"
     inkscape:window-y="1440"
     inkscape:window-maximized="1"
     inkscape:current-layer="wrapper" />
  <metadata
     id="metadata2">
    <rdf:rdf>
      <cc:work
         rdf:about="">
        <dc:format>image/svg+xml</dc:format>
        <dc:type
           rdf:resource="http://purl.org/dc/dcmitype/StillImage" />
        <dc:title>MapChart Map</dc:title>
        <dc:creator>
          <cc:agent>
            <dc:title>MapChart.net</dc:title>
          </cc:agent>
        </dc:creator>
        <cc:license
           rdf:resource="http://creativecommons.org/licenses/by-sa/4.0/" />
        <dc:description>This map was created with MapChart.net, a website for creating custom maps.</dc:description>
      </cc:work>
      <cc:license
         rdf:about="http://creativecommons.org/licenses/by-sa/4.0/">
        <cc:permits
           rdf:resource="http://creativecommons.org/ns#Reproduction" />
        <cc:permits
           rdf:resource="http://creativecommons.org/ns#Distribution" />
        <cc:requires
           rdf:resource="http://creativecommons.org/ns#Notice" />
        <cc:requires
           rdf:resource="http://creativecommons.org/ns#Attribution" />
        <cc:requires
           rdf:resource="http://creativecommons.org/ns#ShareAlike" />
      </cc:license>
    </rdf:rdf>
  </metadata>
  <g
     id="map-group"
     transform="matrix(1.1885759,0,0,1.1885759,-64.287894,-75.558994)">
    <svg
       id="map"
       width="1000"
       height="700"
       viewBox="0 0 1000 700"
       preserveAspectRatio="xMinYMin"
       data-originalStrokeWidth=".55"
       data-right-clicked-id="MI"
       class=""
       version="1.1">
      <defs
         id="defs109">
        <pattern
           id="circles3"
           width="10"
           height="10"
           patternUnits="userSpaceOnUse">
          <rect
             width="10"
             height="10"
             fill="#fff"
             id="rect5" />
          <circle
             cx="4"
             cy="4"
             r="2"
             fill="#000"
             id="circle7" />
        </pattern>
        <pattern
           id="diagonal1"
           width="10"
           height="10"
           patternUnits="userSpaceOnUse">
          <rect
             width="10"
             height="10"
             fill="#fff"
             id="rect10" />
          <path
             id="pattern0"
             d="M-1,1 l2,-2 M0,10 l10,-10 M9,11 l2,-2"
             stroke="#000"
             stroke-width="1"
             class="" />
        </pattern>
        <pattern
           id="diagonal3"
           width="10"
           height="10"
           patternUnits="userSpaceOnUse">
          <rect
             width="10"
             height="10"
             fill="#fff"
             id="rect14" />
          <path
             id="pattern1"
             d="M-1,1 l2,-2 M0,10 l10,-10 M9,11 l2,-2"
             stroke="#000"
             stroke-width="3"
             class="" />
        </pattern>
        <pattern
           id="vertical1"
           width="10"
           height="10"
           patternUnits="userSpaceOnUse">
          <rect
             width="10"
             height="10"
             fill="#fff"
             id="rect18" />
          <rect
             x="2"
             y="0"
             width="1"
             height="10"
             fill="#000"
             id="rect20" />
        </pattern>
        <pattern
           id="vertical3"
           width="10"
           height="10"
           patternUnits="userSpaceOnUse">
          <rect
             width="10"
             height="10"
             fill="#fff"
             id="rect23" />
          <rect
             x="2"
             y="0"
             width="3"
             height="10"
             fill="#000"
             id="rect25" />
        </pattern>
        <pattern
           id="horizontal1"
           width="10"
           height="10"
           patternUnits="userSpaceOnUse">
          <rect
             width="10"
             height="10"
             fill="#fff"
             id="rect28" />
          <rect
             x="0"
             y="2"
             width="10"
             height="1"
             fill="#000"
             id="rect30" />
        </pattern>
        <pattern
           id="horizontal3"
           width="10"
           height="10"
           patternUnits="userSpaceOnUse">
          <rect
             width="10"
             height="10"
             fill="#fff"
             id="rect33" />
          <rect
             x="0"
             y="2"
             width="10"
             height="3"
             fill="#000"
             id="rect35" />
        </pattern>
        <pattern
           id="crosshatch"
           width="8"
           height="8"
           patternUnits="userSpaceOnUse">
          <rect
             width="8"
             height="8"
             fill="#fff"
             id="rect38" />
          <path
             id="pattern2"
             d="M0 0L8 8ZM8 0L0 8Z"
             stroke-width="0.5"
             stroke="#aaa"
             class="" />
        </pattern>
        <pattern
           id="subtlepatch"
           width="5"
           height="5"
           patternUnits="userSpaceOnUse">
          <rect
             width="5"
             height="5"
             fill="#fff"
             id="rect42" />
          <rect
             x="2"
             y="2"
             width="1"
             height="1"
             fill="#000"
             id="rect44" />
        </pattern>
        <pattern
           id="checkers"
           width="8"
           height="8"
           patternUnits="userSpaceOnUse">
          <rect
             width="8"
             height="8"
             fill="#fff"
             id="rect47" />
          <path
             id="pattern3"
             fill="#000"
             fill-rule="evenodd"
             d="M0 0h4v4H0V0zm4 4h4v4H4V4z"
             class="" />
        </pattern>
        <pattern
           id="raindrops"
           width="10"
           height="10"
           patternUnits="userSpaceOnUse">
          <rect
             width="10"
             height="10"
             fill="#fff"
             id="rect51" />
          <path
             id="pattern4"
             fill="#000"
             d="M0 38.59l2.83-2.83 1.41 1.41L1.41 40H0v-1.41zM0 1.4l2.83 2.83 1.41-1.41L1.41 0H0v1.41zM38.59 40l-2.83-2.83 1.41-1.41L40 38.59V40h-1.41zM40 1.41l-2.83 2.83-1.41-1.41L38.59 0H40v1.41zM20 18.6l2.83-2.83 1.41 1.41L21.41 20l2.83 2.83-1.41 1.41L20 21.41l-2.83 2.83-1.41-1.41L18.59 20l-2.83-2.83 1.41-1.41L20 18.59z"
             class="" />
        </pattern>
        <pattern
           id="texture"
           width="4"
           height="4"
           patternUnits="userSpaceOnUse">
          <rect
             width="4"
             height="4"
             fill="#fff"
             id="rect55" />
          <path
             id="pattern5"
             fill="#000"
             d="M1 3h1v1H1V3zm2-2h1v1H3V1z"
             class="" />
        </pattern>
        <pattern
           id="circles3_a03500_000000"
           width="10"
           height="10"
           patternUnits="userSpaceOnUse">
          <rect
             width="10"
             height="10"
             fill="#a03500"
             id="rect59" />
          <circle
             cx="4"
             cy="4"
             r="2"
             fill="#000000"
             id="circle61" />
        </pattern>
        <pattern
           id="diagonal1_d9b400_535353"
           width="10"
           height="10"
           patternUnits="userSpaceOnUse">
          <rect
             width="10"
             height="10"
             fill="#d9b400"
             id="rect64" />
          <path
             id="path66"
             d="M-1,1 l2,-2 M0,10 l10,-10 M9,11 l2,-2"
             stroke="#535353"
             stroke-width="1"
             class="" />
        </pattern>
        <pattern
           id="diagonal3_3264c8_ffffff"
           width="10"
           height="10"
           patternUnits="userSpaceOnUse">
          <rect
             width="10"
             height="10"
             fill="#3264c8"
             id="rect69" />
          <path
             id="path71"
             d="M-1,1 l2,-2 M0,10 l10,-10 M9,11 l2,-2"
             stroke="#ffffff"
             stroke-width="3"
             class="" />
        </pattern>
        <pattern
           id="horizontal1_72b38e_000000"
           width="10"
           height="10"
           patternUnits="userSpaceOnUse">
          <rect
             width="10"
             height="10"
             fill="#72b38e"
             id="rect74" />
          <rect
             x="0"
             y="2"
             width="10"
             height="1"
             fill="#000000"
             id="rect76" />
        </pattern>
        <pattern
           id="horizontal3_986ba1_ffffff"
           width="10"
           height="10"
           patternUnits="userSpaceOnUse">
          <rect
             width="10"
             height="10"
             fill="#986ba1"
             id="rect79" />
          <rect
             x="0"
             y="2"
             width="10"
             height="3"
             fill="#ffffff"
             id="rect81" />
        </pattern>
        <pattern
           id="vertical1_b9a087_ffffff"
           width="10"
           height="10"
           patternUnits="userSpaceOnUse">
          <rect
             width="10"
             height="10"
             fill="#b9a087"
             id="rect84" />
          <rect
             x="2"
             y="0"
             width="1"
             height="10"
             fill="#ffffff"
             id="rect86" />
        </pattern>
        <pattern
           id="vertical3_4c91bf_ffff33"
           width="10"
           height="10"
           patternUnits="userSpaceOnUse">
          <rect
             width="10"
             height="10"
             fill="#4c91bf"
             id="rect89" />
          <rect
             x="2"
             y="0"
             width="3"
             height="10"
             fill="#ffff33"
             id="rect91" />
        </pattern>
        <pattern
           id="checkers_cc3333_f7f7f7"
           width="8"
           height="8"
           patternUnits="userSpaceOnUse">
          <rect
             width="8"
             height="8"
             fill="#cc3333"
             id="rect94" />
          <path
             id="path96"
             fill="#f7f7f7"
             fill-rule="evenodd"
             d="M0 0h4v4H0V0zm4 4h4v4H4V4z"
             class="" />
        </pattern>
        <pattern
           id="texture_d1dbdd_525252"
           width="4"
           height="4"
           patternUnits="userSpaceOnUse">
          <rect
             width="4"
             height="4"
             fill="#d1dbdd"
             id="rect99" />
          <path
             id="path101"
             fill="#525252"
             d="M1 3h1v1H1V3zm2-2h1v1H3V1z"
             class="" />
        </pattern>
        <pattern
           id="vertical1_b9a087_ffffff_0_4"
           width="10"
           height="10"
           patternUnits="userSpaceOnUse"
           patternTransform="scale(0.4)">
          <rect
             width="10"
             height="10"
             fill="#b9a087"
             id="rect104" />
          <rect
             x="2"
             y="0"
             width="1"
             height="10"
             fill="#ffffff"
             id="rect106" />
        </pattern>
      </defs>
      <g
         id="AK_group">
        <path
           id="AK"
           fill="#d1dbdd"
           fill-opacity="1"
           stroke="#000"
           stroke-dasharray="none"
           stroke-linecap="round"
           stroke-miterlimit="4"
           stroke-opacity="1"
           stroke-width="0.82"
           d="m 190.38,460.6 -0.29,75.9 1.44,0.85 2.74,0.14 1.29,-1 h 2.3 l 0.15,2.56 6.2,6.06 0.42,2.3 3.01,-1.73 0.59,-0.16 0.29,-2.73 1.29,-1.44 1,-0.15 1.73,-1.3 2.74,1.85 0.58,2.6 1.72,1 1.03,2.17 3.45,1.59 3.03,5.32 2.47,3.45 2,2.42 1.3,3.3 4.46,1.59 4.62,1.87 0.85,3.88 0.41,2.73 -0.85,3.02 -1.58,2.01 -1.44,-0.72 -1.3,-2.73 -2.45,-1.3 -1.58,-1 -0.72,0.72 1.3,2.45 0.14,3.3 -1,0.43 -1.75,-1.72 -1.85,-1.15 0.41,1.44 1.16,1.58 -0.72,0.72 c 0,0 -0.72,-0.3 -1.16,-0.87 a 63,63 0 0 1 -1.87,-3.02 l -0.86,-2 c 0,0 -0.29,1.14 -0.86,0.85 -0.57,-0.29 -1.15,-1.29 -1.15,-1.29 l 1.58,-1.72 -1.3,-1.3 v -4.46 h -0.71 l -0.72,3.02 -1,0.43 -0.87,-3.3 -0.58,-3.3 -0.72,-0.44 0.28,5.03 v 1 l -1.28,-1.14 -3.16,-5.32 -1.88,-0.43 -0.58,-3.3 -1.44,-2.58 -1.43,-1.02 v -2 l 1.86,-1.17 -0.43,-0.28 -2.3,0.56 -3.03,-2.16 -2.3,-2.58 -4.32,-2.3 -3.61,-2.31 1.15,-2.88 V 539 l -1.59,1.44 -2.56,1 -3.33,-1 -5.03,-2.16 h -4.91 l -0.58,0.43 -5.75,-3.44 -1.88,-0.28 -2.46,-5.18 -3.16,0.29 -3.19,1.3 0.44,4.02 1.03,-2.59 0.85,0.29 -1.3,3.88 2.9,-2.44 0.57,1.43 -3.46,3.87 -1.13,-0.3 -0.44,-1.72 -1.15,-0.72 -1.15,1 -2.47,-1.55 -2.72,1.85 -1.58,1.88 -3.03,1.88 -4.19,-0.15 -0.43,-1.88 3.32,-0.57 v -1.13 l -2.03,-0.59 0.88,-2.15 2.02,-3.44 v -1.59 l 0.14,-0.71 3.9,-2.02 0.87,1.15 h 2.44 l -1.15,-2.3 -3.32,-0.29 -4.45,2.45 -2.16,3.02 -1.59,2.3 -1,2.01 -3.76,1.28 -2.73,2.3 -0.3,1.44 2.02,0.86 0.72,1.86 -2.45,2.88 -5.77,3.74 -6.92,3.73 -1.87,1 -4.75,1.03 -4.77,2 1.6,1.13 -1.3,1.3 -0.43,1.01 -2.45,-0.86 -2.87,0.14 -0.72,2.02 h -0.87 l 0.27,-2.16 -3.16,1.15 -2.6,0.86 -3.03,-1.15 -2.6,1.73 h -2.87 l -1.89,1.15 -1.44,0.72 -1.87,-0.3 -2.3,-1 -2.03,0.58 -0.86,0.86 -1.44,-1 v -1.73 l 2.72,-1.15 5.62,0.57 3.9,-1.43 1.85,-1.85 2.6,-0.59 1.59,-0.72 2.44,0.15 1.44,1.13 0.87,-0.28 2.02,-2.45 2.72,-0.86 3.03,-0.56 1.15,-0.29 0.57,0.43 h 0.72 l 1.16,-3.32 3.6,-1.29 1.74,-3.29 2.01,-4.03 1.44,-1.3 0.29,-2.29 -1.44,1.15 -3.03,0.57 -0.58,-2.16 -1.15,-0.29 -0.86,0.87 -0.14,2.6 -1.3,-0.15 -1.29,-5.17 -1.15,1.13 -1,-0.42 -0.3,-1.72 -3.59,0.14 -1.87,1.01 -2.32,-0.29 1.3,-1.3 0.44,-2.3 -0.57,-1.72 1.29,-0.86 1.15,-0.14 -0.58,-1.59 v -3.88 l -0.87,-0.86 -0.72,1.3 h -5.47 l -1.3,-1.16 -0.57,-3.45 -1.88,-3.16 v -0.86 l 1.88,-0.72 0.14,-1.85 1.01,-1.03 -0.72,-0.4 -1.15,0.4 -1.03,-2.43 0.88,-4.47 4.03,-2.87 2.31,-1.44 1.73,-3.3 2.46,-1.16 2.3,1.03 0.3,2.16 2.15,-0.31 2.87,-2.16 1.44,0.59 0.87,0.57 h 1.44 l 2.02,-1.15 0.72,-3.87 c 0,0 0.3,-2.57 0.87,-3 0.57,-0.43 0.86,-0.87 0.86,-0.87 l -1,-1.73 -2.3,0.72 -2.88,0.72 -1.75,-0.43 -3.16,-1.58 -4.47,-0.15 -3.16,-3.3 0.4,-3.45 0.6,-2.16 -1.88,-1.58 -1.74,-3.3 0.44,-0.73 6.06,-0.43 h 1.87 l 0.86,0.86 h 0.58 l -0.15,-1.43 3.46,-0.57 2.3,0.31 1.3,0.99 -1.3,1.87 -0.43,1.29 2.45,1.44 4.46,1.58 1.6,-0.86 -2.03,-3.89 -0.86,-2.87 0.86,-0.72 -3.02,-1.72 -0.43,-1.02 0.43,-1.44 -0.72,-3.44 -2.6,-4.17 -2.15,-3.75 2.57,-1.72 h 2.9 l 1.57,0.57 3.75,-0.14 3.32,-3.19 1,-2.7 3.33,-2.16 1.44,0.86 2.47,-0.58 3.28,-1.86 1.03,-0.15 0.86,0.72 4.03,-0.14 2.46,-2.74 h 1 l 3.16,2.16 1.75,1.87 -0.44,1 0.57,1.01 1.44,-1.43 3.46,0.28 0.29,3.31 1.72,1.28 6.35,0.59 5.62,3.74 1.29,-0.86 4.62,2.3 1.88,-0.56 1.73,-0.72 4.33,1.73 3.88,2.58 z m -102.55,25.74 1.87,4.74 -0.14,0.87 -2.6,-0.29 -1.57,-3.6 -1.6,-1.29 h -2.15 l -0.14,-2.3 1.59,-2.16 1.02,2.16 1.3,1.3 2.44,0.57 z m -2.3,29.74 3.3,0.72 3.32,0.86 0.72,0.86 -1.43,3.31 -2.75,-0.14 -3.02,-3.17 z m -18.44,-12.49 1.02,2.3 1,1.43 -1,0.72 -1.88,-2.73 v -1.73 h 0.87 z m -12.23,64.96 3.02,-2.02 3.02,-0.86 2.33,0.29 0.43,1.44 1.72,0.43 1.73,-1.73 -0.3,-1.43 2.47,-0.58 2.57,2.3 -1,1.58 -3.9,1 -2.44,-0.42 -3.32,-1 -3.9,1.28 -1.44,0.3 z m 43.64,-4.03 1.44,1.73 1.88,-1.44 -1.3,-1.15 z m 2.59,2.73 1.03,-2.01 1.84,0.29 -0.72,1.72 z m 21.03,-1.72 1.3,1.58 0.87,-1 -0.72,-1.73 -1.44,1.15 z m 7.78,-11.06 1.01,5.16 2.59,0.72 4.47,-2.57 3.9,-2.3 -1.46,-2.16 0.44,-2.16 -1.88,1.16 -2.59,-0.72 1.44,-1 1.75,0.71 3.45,-1.58 0.43,-1.28 -2.16,-0.72 0.72,-1.72 -2.46,1.72 -4.16,3.16 -4.31,2.6 -1.17,1 z m 37.73,-17.67 2.16,-1.3 -0.85,-1.58 -1.58,0.86 z"
           class="state ak"
           data-originalStrokeWidth="0.82"
           style="stroke:#000000" />
      </g>
      <g
         id="splits">
        <g
           id="AK_S_group" />
        <g
           id="AK_N_group" />
        <g
           id="AK_E_group" />
        <g
           id="AK_W_group" />
        <g
           id="MN_S_group" />
        <g
           id="MN_N_group" />
        <g
           id="OH_E_group" />
        <g
           id="OH_W_group" />
        <g
           id="LA_N_group" />
        <g
           id="LA_S_group" />
        <g
           id="ID_S_group" />
        <g
           id="ID_N_group" />
        <g
           id="NM_N_group" />
        <g
           id="NM_S_group" />
        <g
           id="CO_S_group" />
        <g
           id="CO_N_group" />
        <g
           id="WY_N_group" />
        <g
           id="WY_S_group" />
        <g
           id="MT_S_group" />
        <g
           id="MT_N_group" />
        <g
           id="VA_S_group" />
        <g
           id="VA_N_group" />
        <g
           id="KS_W_group" />
        <g
           id="KS_E_group" />
        <g
           id="ND_W_group" />
        <g
           id="ND_E_group" />
        <g
           id="SD_W_group" />
        <g
           id="SD_E_group" />
        <g
           id="NE_W_group" />
        <g
           id="NE_E_group" />
        <g
           id="CO_W_group" />
        <g
           id="CO_E_group" />
        <g
           id="WY_W_group" />
        <g
           id="WY_E_group" />
        <g
           id="MT_C_group" />
        <g
           id="MT_W_group" />
        <g
           id="MT_E_group" />
        <g
           id="SC_W_group" />
        <g
           id="SC_E_group" />
        <g
           id="ME_N_group" />
        <g
           id="ME_S_group" />
        <g
           id="MI_N_group" />
        <g
           id="MD_E_group" />
        <g
           id="NJ_C_group" />
        <g
           id="NJ_N_group" />
        <g
           id="PA_E_group" />
        <g
           id="PA_S_group" />
        <g
           id="TX_W_group" />
        <g
           id="TX_S_group" />
        <g
           id="PA_N_group" />
        <g
           id="PA_W_group" />
        <g
           id="FL_S_group" />
        <g
           id="FL_C_group" />
        <g
           id="FL_N_group" />
        <g
           id="MI_E_group" />
        <g
           id="MI_W_group" />
        <g
           id="VA_E_group" />
        <g
           id="WV_S_group" />
        <g
           id="WV_N_group" />
        <g
           id="OH_S_group" />
        <g
           id="OH_N_group" />
        <g
           id="IN_S_group" />
        <g
           id="IN_N_group" />
        <g
           id="IL_C_group" />
        <g
           id="IL_N_group" />
        <g
           id="WI_W_group" />
        <g
           id="NC_W_group" />
        <g
           id="NC_E_group" />
        <g
           id="MO_W_group" />
        <g
           id="MO_E_group" />
        <g
           id="GA_S_group" />
        <g
           id="GA_N_group" />
        <g
           id="KY_W_group" />
        <g
           id="KY_E_group" />
        <g
           id="AL_S_group" />
        <g
           id="AL_N_group" />
        <g
           id="LA_E_group" />
        <g
           id="LA_W_group" />
        <g
           id="MS_S_group" />
        <g
           id="MS_N_group" />
        <g
           id="IA_S_group" />
        <g
           id="IA_N_group" />
        <g
           id="OK_E_group" />
        <g
           id="OK_W_group" />
        <g
           id="UT_S_group" />
        <g
           id="UT_N_group" />
        <g
           id="AZ_S_group" />
        <g
           id="AZ_N_group" />
        <g
           id="NV_S_group" />
        <g
           id="NV_N_group" />
        <g
           id="OR_E_group" />
        <g
           id="OR_W_group" />
        <g
           id="WA_E_group" />
        <g
           id="WA_W_group" />
        <g
           id="CA_S_group" />
        <g
           id="CA_N_group" />
        <g
           id="TN_C_group" />
        <g
           id="TN_E_group" />
        <g
           id="AR_S_group" />
        <g
           id="AR_N_group" />
        <g
           id="NY_N_group" />
        <g
           id="TX_E_group" />
        <g
           id="TX_N_group" />
        <g
           id="WI_E_group" />
        <g
           id="IL_S_group" />
        <g
           id="TN_W_group" />
        <g
           id="VA_W_group" />
        <g
           id="NY_S_group" />
        <g
           id="DE_N_group" />
        <g
           id="DE_S_group" />
        <g
           id="NJ_S_group" />
        <g
           id="MD_W_group" />
        <g
           id="MI_S_group" />
        <g
           id="IN_E_group" />
        <g
           id="IN_W_group" />
        <g
           id="WI_N_group" />
        <g
           id="WI_S_group" />
      </g>
      <g
         id="MN_group">
        <path
           id="MN"
           fill="#1abea9"
           fill-opacity="1"
           stroke="#000"
           stroke-dasharray="none"
           stroke-linecap="round"
           stroke-miterlimit="4"
           stroke-opacity="1"
           stroke-width="0.82"
           d="m 472.96,171.84 -0.4,-7.52 -1.63,-6.5 -1.64,-11.98 -0.41,-8.73 -1.63,-3.06 -1.43,-4.47 v -9.14 l 0.61,-3.46 -1.62,-4.85 26.85,0.05 0.28,-7.34 0.58,-0.14 2,0.43 1.72,0.72 0.72,4.89 1.3,5.46 1.45,1.44 h 4.3 l 0.32,1.3 5.6,0.28 v 1.87 h 4.32 l 0.3,-1.15 1,-1 2.01,-0.58 1.15,0.86 h 2.6 l 3.46,2.3 4.75,2.16 2.15,0.4 0.45,-0.83 1.29,-0.44 0.43,2.57 2.31,1.16 0.43,-0.43 1.15,0.16 v 1.86 l 2.3,0.87 h 2.8 l 1.43,-0.72 2.88,-2.88 2.31,-0.4 0.72,1.56 0.43,1.15 h 0.86 l 0.86,-0.72 7.92,-0.28 1.58,2.73 h 0.57 l 0.64,-0.97 3.95,-0.34 -0.54,2.04 -3.52,1.64 -8.24,3.6 -4.25,1.78 -2.73,2.3 -2.15,3.15 -2.03,3.46 -1.58,0.71 -4.03,4.46 -1.13,0.14 -3.87,2.47 -2.2,2.83 -0.2,2.85 0.09,7.15 -1.24,1.5 -4.52,3.32 -1.99,5.32 2.57,2 0.6,2.87 -1.65,2.88 0.15,3.32 0.32,5.98 2.7,2.67 h 2.98 l 1.69,2.77 3,0.46 3.45,5.04 6.31,3.66 1.91,2.57 0.6,5.7 -72.35,1.04 -0.3,-31.74 -0.42,-2.62 -3.65,-3.05 -1.03,-1.63 v -1.44 l 1.83,-1.41 1.23,-1.23 0.2,-2.84 z"
           class="state mn"
           data-originalStrokeWidth="0.82"
           style="fill:#1abea9;stroke:#000000" />
      </g>
      <g
         id="ID_group">
        <path
           id="ID"
           fill="#1abea9"
           fill-opacity="1"
           stroke="#000"
           stroke-dasharray="none"
           stroke-linecap="round"
           stroke-miterlimit="4"
           stroke-opacity="1"
           stroke-width="0.82"
           d="m 182.03,213.35 7.61,-30.45 1.22,-4.24 2.25,-4.8 -0.69,-1.22 -2.25,-0.05 -1.13,-1.5 0.4,-1.1 0.31,-2.74 1.42,-1.98 2.68,-3.24 1.62,-0.97 1.03,-1.03 1.2,-2.56 3.44,-5.17 3.45,-3.86 0.2,-3.35 -3.04,-2.34 -1.38,-3.9 12.14,-56.31 12.07,2.26 -3.93,19 3.19,6.65 -1.42,4.15 1.75,4.1 2.8,1.14 3.42,8.49 3.12,3.93 0.45,1.03 2.98,1 0.33,1.89 -6.21,15.44 -0.14,2.28 2.35,2.94 0.82,-0.04 4.36,-2.7 0.62,-0.96 1.37,0.59 -0.24,4.75 2.44,11.2 3.5,2.8 1.5,1.94 -0.32,3.14 0.63,2.99 0.95,0.97 2.2,-2.09 2.55,0.04 2.6,1.18 2.47,-0.61 3.4,-0.14 3.54,1.44 2.44,-0.28 0.44,-2.7 2.62,-0.68 1.13,1.34 0.38,2.63 1.27,1.08 -7.8,47.43 c 0,0 -35.39,-6.53 -41.61,-7.88 z"
           class="state id"
           data-originalStrokeWidth="0.82"
           style="fill:#1abea9;stroke:#000000" />
      </g>
      <g
         id="HI_group">
        <path
           id="HI"
           fill="#d1dbdd"
           fill-opacity="1"
           stroke="#000"
           stroke-dasharray="none"
           stroke-linecap="round"
           stroke-miterlimit="4"
           stroke-opacity="1"
           stroke-width="0.82"
           d="m 257.21,518.95 1.75,-3.16 2,-0.3 0.29,0.71 -1.85,2.74 z m 9.08,-3.29 5.48,2.28 1.86,-0.29 1.44,-3.44 -0.57,-3.02 -3.73,-0.4 -3.6,1.56 z m 27.37,8.9 3.3,4.88 2.16,-0.29 1.01,-0.43 1.3,1.15 3.31,-0.14 0.86,-1.3 -2.58,-1.58 -1.73,-3.3 -1.87,-3.17 -5.18,2.6 z m 18,7.9 1.15,-1.72 4.18,0.86 0.57,-0.43 5.47,0.57 -0.29,1.15 -2.3,1.3 -3.9,-0.3 -4.89,-1.43 z m 4.76,4.6 1.72,3.44 2.75,-1 0.3,-1.44 -1.45,-1.85 -3.31,-0.3 z m 6.19,-1 2.01,-2.6 4.18,2.16 3.88,1.01 3.89,2.43 v 1.73 l -3.17,1.58 -4.31,0.86 -2.16,-1.28 -4.33,-5.88 z m 14.83,13.79 1.44,-1.15 3.03,1.43 6.77,3.17 3.02,1.88 1.44,2.15 1.73,3.87 3.59,2.3 -0.29,1.16 -3.45,2.87 -3.75,1.3 -1.3,-0.58 -2.74,1.58 -2.16,2.88 -2.02,2.58 -1.6,-0.14 -3.16,-2.3 -0.28,-4.03 0.56,-2.15 -1.44,-5.03 -1.88,-1.59 -0.14,-2.29 2.01,-0.86 1.88,-2.72 0.43,-0.86 -1.43,-1.57 -0.31,-1.87 z"
           class="state hi"
           data-originalStrokeWidth="0.82"
           style="stroke:#000000" />
      </g>
      <g
         id="FL_group">
        <path
           id="FL"
           fill="#d1dbdd"
           fill-opacity="1"
           stroke="#000"
           stroke-dasharray="none"
           stroke-linecap="round"
           stroke-miterlimit="4"
           stroke-opacity="1"
           stroke-width="0.82"
           d="m 726.51,447.69 2.03,6.5 3.31,8.67 4.76,8.34 3.32,5.6 4.31,4.9 3.6,3.3 1.43,2.57 -1,1.16 -0.71,1.15 2.58,6.6 2.6,2.6 2.31,4.74 3.19,5.17 4.02,7.33 1.15,6.74 0.41,10.64 0.59,1.58 -0.29,3.01 -2.16,1.15 0.28,1.73 -0.57,1.72 0.3,2.16 0.42,1.73 -2.45,2.87 -2.73,1.3 -3.46,0.14 -1.3,1.44 -2.16,0.86 -1.16,-0.43 -1,-0.86 -0.3,-2.6 -0.71,-3.01 -3.03,-4.6 -3.19,-2.01 -3.45,-0.3 -0.72,1.16 -2.73,-3.88 -0.58,-3.16 -2.3,-3.6 -1.58,-1 -1.43,1.87 -1.6,-0.29 -1.86,-4.46 -2.6,-3.45 -2.59,-4.76 -2.29,-2.73 -3.18,-3.29 1.88,-2.15 2.87,-4.9 -0.13,-1.43 -4.04,-0.86 -1.44,0.57 0.3,0.58 2.3,0.86 -1.3,4.03 -0.72,0.43 -1.58,-3.6 -1.16,-4.3 -0.3,-2.45 1.31,-4.17 v -8.47 l -2.74,-3.3 -1.15,-2.73 -4.62,-1.15 -1.71,-0.57 -1.44,-2.3 -3.03,-1.44 -1,-3 -2.46,-0.86 -2.16,-3.3 -3.74,-1.3 -2.6,-1.3 h -2.3 l -3.59,0.73 -0.15,1.72 0.71,0.86 -0.43,1.01 -2.74,-0.14 -3.32,3.15 -3.18,1.73 h -3.44 l -2.87,1.16 -0.31,-2.45 -1.44,-1.71 -2.59,-1.01 -1.44,-1.3 -7.18,-3.44 -6.78,-1.59 -3.9,0.58 -5.32,0.43 -5.34,1.87 -3.09,0.54 -0.2,-7.15 -2.32,-1.73 -1.58,-1.58 0.28,-2.73 9.08,-1.15 22.76,-2.59 6.06,-0.56 4.83,0.24 2.3,3.45 1.3,1.28 7.23,0.44 9.63,-0.58 19.17,-1.15 4.83,-0.6 4.56,0.2 0.38,2.56 2,0.72 0.2,-4.11 -1.35,-3.7 1.17,-1.4 4.94,0.53 4.63,0.28 z m 11.18,117.68 2.15,-0.56 1.16,-0.2 1.3,-2.1 2.1,-1.44 1.14,0.43 1.51,0.29 0.36,0.92 -3.08,1.1 -3.76,1.29 -2.08,1.07 z m 12.03,-4.44 1.08,0.92 2.45,-1.85 4.75,-3.73 3.32,-3.46 2.23,-5.89 0.86,-1.51 0.14,-3.02 -0.63,0.41 -0.87,2.53 -1.3,4.1 -2.87,4.67 -3.9,3.73 -3.02,1.72 -2.23,1.38 z"
           class="state fl"
           data-originalStrokeWidth="0.82"
           style="stroke:#000000" />
      </g>
      <g
         id="NH_group">
        <path
           id="NH"
           fill="#d1dbdd"
           fill-opacity="1"
           stroke="#000"
           stroke-dasharray="none"
           stroke-linecap="round"
           stroke-miterlimit="4"
           stroke-opacity="1"
           stroke-width="0.82"
           d="m 834.3,183.93 0.78,-0.96 0.96,-2.92 -2.26,-0.83 -0.43,-2.72 -3.45,-1 -0.3,-2.45 -6.46,-20.84 -4.1,-12.91 h -0.8 l -0.58,1.43 -0.58,-0.44 -0.87,-0.86 -1.29,1.73 -0.04,4.47 0.29,5.04 1.73,2.44 v 3.6 l -3.31,4.5 -2.31,1 v 1 l 1,1.59 v 7.62 l -0.71,8.18 -0.16,4.31 0.87,1.13 -0.14,4.04 -0.44,1.58 0.88,0.62 14.95,-3.93 1.96,-0.53 1.64,-2.46 3.18,-1.44 z"
           class="state nh"
           data-originalStrokeWidth="0.82"
           style="stroke:#000000" />
      </g>
      <g
         id="VT_line_group">
        <path
           id="VT"
           fill="#d1dbdd"
           fill-opacity="1"
           stroke="#000"
           stroke-dasharray="none"
           stroke-linecap="round"
           stroke-miterlimit="4"
           stroke-opacity="1"
           stroke-width="0.82"
           d="m 801.95,194.27 0.28,-4.75 -2.57,-9.59 -0.58,-0.28 -2.59,-1.15 0.72,-2.6 -0.72,-1.86 -2.4,-4.1 0.87,-3.47 -0.72,-4.6 -2.16,-5.75 -0.71,-4.38 23.54,-5.98 0.27,4.9 1.7,2.44 v 3.6 l -3.3,4.5 -2.3,1 v 1 l 1.15,1.35 -0.28,7.19 -0.54,8.23 -0.2,4.93 0.86,1.15 -0.14,4.07 -0.43,1.5 0.92,0.65 -6.64,1.33 -4,0.65 z"
           class="state vt"
           data-originalStrokeWidth="0.82"
           style="stroke:#000000" />
      </g>
      <g
         id="ME_group">
        <path
           id="ME"
           fill="#d1dbdd"
           fill-opacity="1"
           stroke="#000"
           stroke-dasharray="none"
           stroke-linecap="round"
           stroke-miterlimit="4"
           stroke-opacity="1"
           stroke-width="0.82"
           d="m 871.75,127.42 1.75,1.84 2.01,3.31 v 1.73 l -1.88,4.17 -1.72,0.57 -3.03,2.73 -4.31,4.89 h -1.16 c -0.58,0 -0.87,-1.87 -0.87,-1.87 l -1.58,0.14 -0.87,1.3 -2.16,1.3 -0.87,1.29 1.44,1.3 -0.43,0.57 -0.44,2.43 -1.72,-0.14 v -1.43 l -0.29,-1.15 -1.3,0.29 -1.58,-2.88 -1.88,1.15 1.15,1.3 0.27,1 -0.71,1.15 0.28,2.73 0.15,1.44 -1.44,2.29 -2.6,0.43 -0.29,2.59 -4.76,2.73 -1.15,0.43 -1.44,-1.3 -2.74,3.16 0.86,2.88 -1.28,1.15 -0.15,3.86 -1,5.56 -2.18,-1.02 -0.43,-2.73 -3.46,-1.01 -0.28,-2.44 -6.47,-20.85 -4.21,-13 1.27,-0.1 1.36,0.35 v -2.29 l 1.15,-4 2.31,-4.16 1.3,-3.6 -1.75,-2.15 v -5.29 l 0.74,-0.87 0.72,-2.45 -0.15,-1.3 -0.13,-4.3 1.58,-4.3 2.6,-7.9 1.88,-3.74 H 833 l 1.15,0.14 v 1 l 1.15,2.02 2.46,0.58 0.72,-0.72 v -0.87 l 3.6,-2.58 1.58,-1.58 1.3,0.14 5.33,2.16 1.72,0.86 8.06,26.6 h 5.34 l 0.72,1.71 0.13,4.31 2.59,2.02 h 0.72 l 0.15,-0.43 -0.44,-1 z m -18.63,26.78 1.36,-1.37 1.23,0.93 0.5,2.15 -1.51,0.8 -1.6,-2.51 z m 5.97,-5.24 1.58,1.64 c 0,0 1.16,0.08 1.16,-0.2 0,-0.31 0.21,-1.8 0.21,-1.8 l 0.82,-0.73 -0.74,-1.57 -1.78,0.64 -1.24,2 z"
           class="state me"
           data-originalStrokeWidth="0.82"
           style="stroke:#000000" />
      </g>
      <g
         id="RI_line_group">
        <path
           id="RI"
           fill="#d1dbdd"
           fill-opacity="1"
           stroke="#000"
           stroke-dasharray="none"
           stroke-linecap="round"
           stroke-miterlimit="4"
           stroke-opacity="1"
           stroke-width="0.82"
           d="m 828.32,216.35 -3.3,-13.29 5.59,-1.64 1.95,1.71 2.94,3.84 2.4,3.9 -2.67,1.44 -1.15,-0.13 -1.01,1.58 -2.16,1.73 -2.58,0.86 z"
           class="state ri"
           data-originalStrokeWidth="0.82"
           style="stroke:#000000" />
      </g>
      <g
         id="NY_group">
        <path
           id="NY"
           fill="#d1dbdd"
           fill-opacity="1"
           stroke="#000"
           stroke-dasharray="none"
           stroke-linecap="round"
           stroke-miterlimit="4"
           stroke-opacity="1"
           stroke-width="0.82"
           d="m 789.4,225.1 -1.03,-0.85 -2.3,-0.16 -2.02,-1.72 -1.43,-5.45 -3.08,0.08 -2.2,-2.4 -17.26,3.9 -38.31,7.75 -6.72,1.09 -0.64,-5.75 1.26,-0.99 1.16,-1 0.86,-1.44 1.58,-1.01 1.75,-1.58 0.41,-1.44 1.9,-2.44 1,-0.87 -0.15,-0.86 -1.15,-2.73 -1.59,-0.14 -1.71,-5.45 2.6,-1.59 3.88,-1.3 3.6,-1.14 2.87,-0.43 5.62,-0.15 1.75,1.13 1.44,0.16 1.85,-1.15 2.32,-1.01 4.62,-0.43 1.85,-1.58 1.59,-2.88 1.44,-1.75 h 1.88 l 1.72,-1 0.14,-2 -1.29,-1.87 -0.29,-1.3 1,-1.87 v -1.29 h -1.57 l -1.6,-0.72 -0.71,-1 -0.15,-2.3 5.18,-4.9 0.57,-0.71 1.3,-2.6 2.6,-4.02 2.43,-3.28 1.88,-2.16 2.16,-1.64 2.74,-1.1 4.9,-1.15 2.87,0.15 4.04,-1.3 6.73,-1.84 0.47,4.42 2.15,5.75 0.72,4.6 -0.85,3.45 2.3,4.02 0.72,1.87 -0.72,2.6 2.57,1.14 0.6,0.29 2.72,9.75 -0.47,4.52 -0.44,9.63 0.72,4.87 0.72,3.17 1.3,6.47 v 7.18 l -1,2 1.64,1.78 0.7,1.5 -1.73,1.57 0.29,1.15 1.15,-0.3 1.3,-1.13 2.03,-2.31 1,-0.58 1.44,0.57 2.02,0.14 7.06,-3.46 2.57,-2.44 1.17,-1.29 3.74,1.44 -3.02,3.15 -3.46,2.59 -6.34,4.72 -2.3,0.88 -5.19,1.72 -3.6,1 -1.04,-0.45 -0.2,-3.3 0.4,-2.42 -0.13,-1.87 -2.5,-1.51 -4.03,-0.88 -3.45,-1 -3.32,-1.58 z"
           class="state ny"
           data-originalStrokeWidth="0.82"
           style="stroke:#000000" />
      </g>
      <g
         id="PA_group">
        <path
           id="PA"
           fill="#d1dbdd"
           fill-opacity="1"
           stroke="#000"
           stroke-dasharray="none"
           stroke-linecap="round"
           stroke-miterlimit="4"
           stroke-opacity="1"
           stroke-width="0.82"
           d="m 784.7,257.07 1.17,-0.25 2.08,-1.1 1.06,-2.22 1.44,-2 2.88,-2.73 v -0.72 l -2.16,-1.44 -3.16,-2.15 -0.88,-2.3 -2.43,-0.3 -0.14,-1 -0.72,-2.44 2,-1 0.14,-2.17 -1.16,-1.15 0.15,-1.43 1.74,-2.73 v -2.73 l 2.4,-2.36 -0.82,-0.6 -2.24,-0.17 -2.06,-1.72 -1.37,-5.45 -3.12,0.1 -2.18,-2.4 -16.13,3.72 -38.3,7.76 -7.93,1.29 -0.55,-5.8 -4.78,4.51 -1.15,0.41 -3.74,2.67 2.6,17.03 2.2,8.65 3.18,17.12 2.92,-0.57 10.64,-1.33 33.78,-6.81 13.25,-2.53 7.4,-1.44 0.24,-0.2 1.88,-1.44 1.88,-0.61 z"
           class="state pa"
           data-originalStrokeWidth="0.82"
           style="stroke:#000000" />
      </g>
      <g
         id="VA_group">
        <path
           id="VA"
           fill="#1abea9"
           fill-opacity="1"
           stroke="#000"
           stroke-dasharray="none"
           stroke-linecap="round"
           stroke-miterlimit="4"
           stroke-opacity="1"
           stroke-width="0.82"
           d="m 790.5,293.84 -0.12,-1.74 5.75,-2.26 -0.69,2.87 -2.6,3.35 -0.39,4.08 0.42,3 -1.65,4.42 -1.92,1.7 -1.31,-4.12 0.4,-4.85 1.42,-3.72 0.67,-2.75 z m 2.98,25.16 -51.83,11.17 -33.33,4.7 -5.96,-0.31 -2.3,1.7 -6.54,0.2 -7.47,0.86 -9.72,1.44 9.31,-5 v -1.85 l 1.34,-1.9 9.41,-10.23 3.52,3.99 3.37,0.85 2.25,-1 2,-1.18 2.27,1.2 3.49,-1.26 1.66,-4.06 2.31,0.48 2.55,-1.9 1.6,0.44 2.54,-3.27 0.3,-1.85 -0.86,-1.13 0.9,-1.66 4.7,-10.92 0.54,-5.08 1.11,-0.47 1.95,2.15 3.5,-0.25 1.72,-6.74 2.49,-0.51 0.92,-2.44 2.31,-2.08 2.47,-5.06 0.08,-4.5 8.76,3.39 c 0.61,0.3 0.74,-4.5 0.74,-4.5 l 3.25,1.44 0.06,2.6 5.16,1.16 1.9,1.02 1.48,1.85 -0.6,3.24 -1.74,2.3 0.1,1.84 0.53,1.65 4.44,1.13 3.96,0.02 2.74,0.84 1.74,0.28 0.62,2.73 2.85,0.36 0.77,1.08 -0.38,4.17 1.23,1 -0.43,1.7 1.1,0.7 -0.2,1.24 -2.4,-0.08 0.09,1.43 2.03,1.37 0.1,1.25 1.58,1.58 0.45,2.24 -2.28,1.23 1.4,1.34 5.17,-1.51 3.21,5.34 z"
           class="state va"
           data-originalStrokeWidth="0.82"
           style="fill:#1abea9;stroke:#000000" />
      </g>
      <g
         id="WV_group">
        <path
           id="WV"
           fill="#1abea9"
           fill-opacity="1"
           stroke="#000"
           stroke-dasharray="none"
           stroke-linecap="round"
           stroke-miterlimit="4"
           stroke-opacity="1"
           stroke-width="0.82"
           d="m 727.74,269.75 0.98,4.4 0.97,5.36 1.9,-2.3 2.02,-2.73 2.26,-0.53 1.3,-1.3 1.59,-2.3 1.29,0.58 2.59,-0.29 2.3,-1.87 1.8,-1.29 1.64,-0.43 1.16,0.9 3.24,1.62 1.73,1.59 1.23,1.15 -0.69,4.93 -5.2,-2.26 -3.8,-1.44 -0.07,4.6 -2.45,4.93 -2.26,2.16 -1.06,2.44 -2.36,0.44 -0.79,3.2 -0.92,3.5 -3.54,0.3 -2.08,-2.15 -0.96,0.48 -0.56,4.87 -1.21,3.15 -4.42,9.74 0.8,1.02 -0.18,1.7 -2.5,3.47 -1.62,-0.48 -2.63,1.92 -2.26,-0.52 -1.78,4.06 c 0,0 -2.91,1.26 -3.5,1.21 -0.15,0 -2.2,-1.1 -2.2,-1.1 l -2.09,1.22 -2.16,0.93 -3.32,-0.8 -1,-1.02 -1.95,-2.7 -2.8,-1.77 -1.51,-3.22 -3.82,-3.08 -0.58,-2.01 -2.3,-1.3 -0.72,-1.44 -0.22,-4.67 1.95,-0.08 1.72,-0.72 0.15,-2.44 1.43,-1.29 0.15,-4.46 0.86,-3.46 1.16,-0.58 1.13,1 0.44,1.6 1.58,-0.86 0.44,-1.44 -1.03,-1.57 v -2.16 l 0.87,-1.15 2.02,-3.02 1.15,-1.28 1.87,0.43 2.03,-1.44 2.73,-3 2,-3.46 0.29,-5.03 0.44,-4.46 v -4.17 l -1.03,-2.73 0.88,-1.28 1.16,-1.15 3.1,17.62 4.14,-0.66 11.07,-1.6 z"
           class="state wv"
           data-originalStrokeWidth="0.82"
           style="fill:#1abea9;stroke:#000000" />
      </g>
      <g
         id="OH_group">
        <path
           id="OH"
           fill="#1abea9"
           fill-opacity="1"
           stroke="#000"
           stroke-dasharray="none"
           stroke-linecap="round"
           stroke-miterlimit="4"
           stroke-opacity="1"
           stroke-width="0.82"
           d="m 704.7,229.19 -5.44,3.59 -3.45,2.01 -3.03,3.3 -3.6,3.46 -2.87,0.72 -2.6,0.43 -4.9,2.3 -1.88,0.14 -3.03,-2.73 -4.62,0.58 -2.29,-1.3 -2.12,-1.2 -4.36,0.64 -9.06,1.44 -9.99,1.95 1.15,12.99 1.59,12.22 2.32,20.85 0.51,4.28 3.66,-0.1 2.15,-0.72 3.01,1.33 1.85,3.87 h 4.57 l 1.68,1.88 1.57,-0.06 2.26,-1.2 2.24,0.35 4.83,0.43 1.54,-1.9 2.08,-1.15 1.85,-0.62 0.58,2.47 1.58,0.85 3.1,2.1 1.95,-0.08 1.18,-0.44 0.17,-2.46 1.41,-1.28 0.1,-4.26 0.91,-3.65 1.16,-0.55 1.16,1.03 0.48,1.5 1.54,-0.93 0.38,-1.29 -1,-1.7 0.07,-2.05 0.67,-0.95 1.93,-2.95 0.92,-1.38 1.88,0.41 2.04,-1.43 2.73,-3.01 2.46,-3.63 0.29,-4.49 0.43,-4.45 -0.15,-4.73 -0.87,-2.56 0.31,-1.06 1.61,-1.54 -2.03,-8.06 z"
           class="state oh"
           data-originalStrokeWidth="0.82"
           style="fill:#1abea9;stroke:#000000" />
      </g>
      <g
         id="IN_group">
        <path
           id="IN"
           fill="#1abea9"
           fill-opacity="1"
           stroke="#000"
           stroke-dasharray="none"
           stroke-linecap="round"
           stroke-miterlimit="4"
           stroke-opacity="1"
           stroke-width="0.82"
           d="m 601.57,323.97 0.05,-2.54 0.43,-4.02 2.01,-2.57 1.6,-3.45 2.3,-3.74 -0.49,-4.77 -1.53,-2.85 -0.29,-2.87 0.72,-4.89 -0.43,-6.16 -1.16,-14.25 -1.15,-13.65 -0.85,-10.4 2.74,0.78 1.3,0.85 1,-0.3 1.87,-1.7 2.53,-1.44 4.54,-0.15 19.58,-2.01 4.97,-0.47 1.33,14.19 3.78,32.76 0.54,5.11 -0.33,2.02 1.09,1.6 0.1,1.2 -2.26,1.45 -3.15,1.36 -2.86,0.5 -0.54,4.33 -4.08,2.95 -2.48,3.55 0.28,2.12 -0.5,1.35 h -2.99 l -1.4,-1.44 -2.23,1.13 -2.4,1.34 0.15,2.7 -1.07,0.25 -0.41,-0.9 -1.93,-1.34 -2.9,1.19 -1.38,2.67 -1.28,-0.72 -1.29,-1.42 -3.97,0.43 -4.99,0.87 -2.6,1.37 z"
           class="state in"
           data-originalStrokeWidth="0.82"
           style="fill:#1abea9;stroke:#000000" />
      </g>
      <g
         id="IL_group">
        <path
           id="IL"
           fill="#1abea9"
           fill-opacity="1"
           stroke="#000"
           stroke-dasharray="none"
           stroke-linecap="round"
           stroke-miterlimit="4"
           stroke-opacity="1"
           stroke-width="0.82"
           d="m 601.54,324.31 0.03,-2.88 0.51,-4.12 2.05,-2.6 1.68,-3.6 2,-3.56 -0.34,-4.67 -1.53,-2.85 -0.29,-2.87 0.72,-4.89 -0.43,-6.16 -1.16,-14.25 -1.15,-13.65 -0.85,-10.4 -0.45,-0.66 -0.72,-2.3 -1.16,-3.3 -1.44,-1.58 -1.3,-2.31 -0.2,-4.88 -40.81,2.31 0.2,2.1 2.04,0.62 0.82,1 0.41,1.65 3.46,3.04 0.62,2.02 -0.62,3.06 -1.45,2.64 -0.65,2.59 -1.99,1.46 -1.4,0.5 -5.1,1.78 -0.62,1.61 -0.62,1.83 0.62,1.23 1.64,1.42 -0.2,3.65 -1.65,1.41 -0.61,1.44 v 2.42 l -1.62,0.41 -1.43,1.03 -0.2,1.21 0.2,1.85 -1.52,1.16 -0.93,2.49 0.41,3.25 2.06,6.5 6.5,6.7 4.9,3.26 -0.21,3.86 0.82,1.24 5.7,0.4 2.44,1.22 -0.62,3.24 -2.02,5.3 -0.62,2.83 2.03,3.45 5.72,4.68 4.08,0.62 1.83,4.45 1.85,2.85 -0.82,2.64 1.41,3.65 1.65,1.83 1.23,-0.77 0.82,-1.85 1.97,-1.54 1.9,-0.55 2.32,1.06 3.24,1.23 1.05,-0.28 0.19,-2 -1.15,-2.14 0.28,-2.11 1.64,-1.2 2.69,-0.72 1.13,-0.41 -0.55,-1.24 -0.7,-2.1 1.27,-0.86 1.03,-2.85 z"
           class="state il"
           data-originalStrokeWidth="0.82"
           style="fill:#1abea9;stroke:#000000" />
      </g>
      <g
         id="CT_group">
        <path
           id="CT"
           fill="#d1dbdd"
           fill-opacity="1"
           stroke="#000"
           stroke-dasharray="none"
           stroke-linecap="round"
           stroke-miterlimit="4"
           stroke-opacity="1"
           stroke-width="0.82"
           d="m 828.32,216.32 -3.3,-13.23 -4.2,0.82 -18.9,4.21 0.89,2.88 1.29,6.47 0.16,7.96 -1.08,1.93 1.7,1.71 3.8,-3.47 3.18,-2.87 1.73,-1.87 0.72,0.57 2.44,-1.3 4.62,-0.99 6.93,-2.83 z"
           class="state ct"
           data-originalStrokeWidth="0.82"
           style="stroke:#000000" />
      </g>
      <g
         id="WI_group">
        <path
           id="WI"
           fill="#1abea9"
           fill-opacity="1"
           stroke="#000"
           stroke-dasharray="none"
           stroke-linecap="round"
           stroke-miterlimit="4"
           stroke-opacity="1"
           stroke-width="0.82"
           d="m 597.56,232.78 -0.07,-2.81 -1.06,-4.03 -0.57,-5.46 -1,-2.16 0.85,-2.72 0.72,-2.59 1.3,-2.3 -0.57,-3 -0.57,-3.17 0.44,-1.6 1.72,-2.15 0.15,-2.44 -0.72,-1.15 0.56,-2.3 -0.4,-3.7 2.46,-5.02 2.56,-6.06 0.17,-2 -0.29,-0.87 -0.72,0.43 -3.74,5.61 -2.46,3.6 -1.72,1.59 -0.71,2.01 -1.75,0.72 -1,1.72 -1.29,-0.28 -0.14,-1.57 1.15,-2.16 1.87,-4.17 1.59,-1.44 0.88,-2.08 -2.29,-1.7 -1.75,-9.2 -3.18,-1.2 -1.72,-2.05 -10.8,-2.44 -2.58,-0.9 -7.3,-1.92 -7.06,-1.03 -3.36,-4.56 -0.68,0.5 -1.07,-0.15 -0.57,-1 -1.2,0.25 -1,0.14 -1.58,0.86 -0.86,-0.58 0.57,-1.72 1.73,-2.74 1,-1 -1.72,-1.3 -1.87,0.72 -2.6,1.73 -6.61,2.87 -2.59,0.57 -2.6,-0.43 -0.86,-0.77 -1.89,2.52 -0.2,2.45 v 7.51 l -1.03,1.44 -4.68,3.44 -2.03,5.3 0.41,0.2 2.23,1.83 0.62,2.84 -1.65,2.84 V 188 l 0.41,5.9 2.65,2.65 h 3.06 l 1.63,2.84 3.08,0.41 3.45,5.08 6.31,3.66 1.85,2.45 0.82,6.6 0.6,2.95 2.05,1.42 0.19,1.23 -1.83,3.04 0.2,2.83 2.24,3.45 2.24,1.03 2.65,0.41 1.2,1.21 40.35,-2.36 z"
           class="state wi"
           data-originalStrokeWidth="0.82"
           style="fill:#1abea9;stroke:#000000" />
      </g>
      <g
         id="NC_group">
        <path
           id="NC"
           fill="#d1dbdd"
           fill-opacity="1"
           stroke="#000"
           stroke-dasharray="none"
           stroke-linecap="round"
           stroke-miterlimit="4"
           stroke-opacity="1"
           stroke-width="0.82"
           d="m 793.48,318.94 1.85,4.38 3.18,5.76 2.16,2.15 0.58,2 -2.16,0.15 0.72,0.57 -0.29,3.74 -2.3,1.15 -0.59,1.87 -1.15,2.59 -3.3,1.44 -2.16,-0.3 -1.3,-0.14 -1.43,-1.15 0.29,1.15 v 0.87 h 1.71 l 0.72,1.13 -1.72,5.61 h 3.74 l 0.58,1.44 2.01,-2 1.13,-0.43 -1.71,3.16 -2.75,4.31 h -1.15 l -1,-0.4 -2.45,0.56 -4.62,2.15 -5.75,4.75 -3.03,4.16 -1.72,5.75 -0.43,2.16 -4.18,0.43 -4.86,1.19 -8.86,-7.3 -11.24,-6.74 -2.59,-0.72 -11.23,1.3 -3.8,0.66 -1.46,-2.87 -2.64,-1.88 -14.68,0.43 -6.47,0.72 -8.09,4.02 -5.47,2.3 -18.86,2.3 0.45,-3.6 1.58,-1.28 2.46,-0.58 0.57,-3.32 3.75,-2.44 3.46,-1.3 3.74,-3.17 3.9,-1.87 0.57,-2.73 3.46,-3.45 0.58,-0.13 c 0,0 0,1 0.72,1 0.72,0 1.71,0.3 1.71,0.3 l 2.03,-3.17 1.87,-0.57 2,0.28 1.45,-3.15 2.6,-2.3 0.43,-1.87 0.16,-3.25 3.8,-0.02 6.43,-0.76 14.03,-2 13.48,-1.85 19.28,-4.2 17.8,-3.8 9.96,-2.15 z m 3.8,29.52 2.31,-2.22 2.82,-2.3 1.36,-0.57 0.15,-1.8 -0.58,-5.47 -1.3,-2.09 -0.57,-1.66 0.65,-0.2 2.43,4.87 0.36,3.96 -0.14,3 -3.02,1.38 -2.53,2.16 -1,1.08 -0.93,-0.16 z"
           class="state nc"
           data-originalStrokeWidth="0.82"
           style="stroke:#000000" />
      </g>
      <g
         id="MA_group">
        <path
           id="MA"
           fill="#d1dbdd"
           fill-opacity="1"
           stroke="#000"
           stroke-dasharray="none"
           stroke-linecap="round"
           stroke-miterlimit="4"
           stroke-opacity="1"
           stroke-width="0.82"
           d="m 851.08,211.34 1.93,-0.62 0.41,-1.52 0.93,0.1 0.9,2.04 -1.13,0.4 -3.45,0.11 z m -8.36,0.72 2.06,-2.35 h 1.41 l 1.65,1.32 -2.16,0.92 -1.92,0.9 -1.03,-0.81 z m -31.01,-19.56 15.73,-4.13 2.03,-0.57 1.7,-2.49 3.33,-1.47 2.56,3.92 -2.15,4.6 -0.29,1.3 1.73,2.3 1.02,-0.73 h 1.57 l 2.02,2.3 3.47,5.31 3.16,0.44 2.02,-0.87 1.59,-1.57 -0.72,-2.44 -1.87,-1.44 -1.3,0.72 -0.87,-1.15 0.43,-0.43 1.88,-0.15 1.57,0.72 1.73,2.16 0.87,2.59 0.29,2.15 -3.74,1.29 -3.47,1.74 -3.45,4 -1.75,1.31 v -0.86 l 2.18,-1.3 0.43,-1.58 -0.72,-2.73 -2.6,1.3 -0.71,1.29 0.43,2 -1.85,0.9 -2.47,-4.03 -3,-3.88 -1.85,-1.61 -5.83,1.67 -4.52,0.92 -18.43,4.1 -0.6,-4.25 0.58,-9.4 3.82,-0.8 z"
           class="state ma"
           data-originalStrokeWidth="0.82"
           style="stroke:#000000" />
      </g>
      <g
         id="MO_group">
        <path
           id="MO"
           fill="#1abea9"
           fill-opacity="1"
           stroke="#000"
           stroke-dasharray="none"
           stroke-linecap="round"
           stroke-miterlimit="4"
           stroke-opacity="1"
           stroke-width="0.82"
           d="m 547.1,277.88 -2.26,-2.75 -1,-2.02 -57.35,2.12 -2.04,0.1 1.13,2.24 -0.2,2.04 2.23,3.45 2.75,3.65 2.77,2.45 1.91,0.2 1.34,0.83 v 2.62 l -1.62,1.44 -0.42,2.02 1.83,3.04 2.26,2.64 2.23,1.63 1.23,10.37 0.27,32.06 0.2,4.16 0.42,4.78 19.97,-0.77 20.67,-0.61 18.54,-0.7 10.37,-0.2 1.95,3.03 -0.61,2.95 -2.76,2.14 -0.51,1.64 4.8,0.41 3.47,-0.62 1.54,-4.88 0.57,-5.22 1.87,-2.26 2.31,-1.33 0.05,-2.72 0.9,-1.71 -1.5,-2.26 -1.2,0.88 -1.78,-1.98 -1.13,-4.23 0.7,-2.23 -1.73,-3.05 -1.64,-4.06 -4.27,-0.72 -6.2,-4.97 -1.55,-3.66 0.72,-2.84 1.85,-5.39 0.41,-2.56 -1.74,-0.9 -6.11,-0.73 -0.93,-1.5 -0.1,-3.77 -4.88,-3.05 -6.21,-6.88 -2.06,-6.53 -0.2,-3.74 0.72,-2.04 z"
           class="state mo"
           data-originalStrokeWidth="0.82"
           style="fill:#1abea9;stroke:#000000" />
      </g>
      <g
         id="GA_group">
        <path
           id="GA"
           fill="#d1dbdd"
           fill-opacity="1"
           stroke="#000"
           stroke-dasharray="none"
           stroke-linecap="round"
           stroke-miterlimit="4"
           stroke-opacity="1"
           stroke-width="0.82"
           d="m 648.5,373.35 0.03,1.97 0.14,1.87 0.59,3.02 3.02,7.04 2.15,8.76 1.3,5.46 1.45,4.32 1.29,6.18 1.89,5.59 2.3,3.02 0.43,3.01 1.73,0.72 0.14,1.87 -1.58,4.32 -0.43,2.87 -0.15,1.73 1.44,3.87 0.29,4.72 -0.72,2.16 0.57,0.72 1.3,0.72 -0.14,2.48 2.3,3.45 1.3,1.28 7.23,0.44 19.05,-0.95 10.13,-0.55 4.45,-0.82 4.56,0.18 0.38,2.57 2,0.72 0.2,-4.11 -1.35,-3.7 1.17,-1.4 4.94,0.53 4.69,0.46 -0.7,-5.6 2.02,-8.9 1.32,-3.74 -0.44,-2.3 2.98,-5.54 -0.46,-1.2 -1.7,0.61 -2.3,-1.15 -0.58,-1.87 -1.15,-3.16 -2.01,-1.87 -2.31,-0.57 -1.44,-4.32 -2.6,-5.63 -3.75,-1.72 -1.87,-1.73 -1.15,-2.3 -1.87,-1.72 -2.02,-1.15 -2.02,-2.59 -2.74,-2.01 -4.03,-1.58 -0.43,-1.29 -2.16,-2.59 -0.44,-1.29 -3.03,-4.41 -3.14,0.08 -3.36,-2.1 -1.26,-1.13 -0.29,-1.59 0.78,-1.72 1.98,-0.99 -0.55,-1.85 -37.37,4.2 z"
           class="state ga"
           data-originalStrokeWidth="0.82"
           style="stroke:#000000" />
      </g>
      <g
         id="SC_group">
        <path
           id="SC"
           fill="#d1dbdd"
           fill-opacity="1"
           stroke="#000"
           stroke-dasharray="none"
           stroke-linecap="round"
           stroke-miterlimit="4"
           stroke-opacity="1"
           stroke-width="0.82"
           d="m 731.1,420.15 -1.6,0.87 -2.3,-1.15 -0.58,-1.87 -1.15,-3.17 -2.02,-1.86 -2.32,-0.58 -1.43,-4.31 -2.47,-5.32 -3.73,-1.72 -1.87,-1.72 -1.15,-2.3 -1.86,-1.73 -2.02,-1.15 -2.02,-2.59 -2.72,-2 -4.04,-1.58 -0.43,-1.28 -2.16,-2.6 -0.44,-1.29 -3.02,-4.59 -3.03,0.15 -3.59,-2.16 -1.15,-1.15 -0.29,-1.58 0.72,-1.73 2.01,-0.86 -0.45,-2.03 5.14,-2.08 8.1,-4.08 6.95,-0.72 14.36,-0.37 2.34,1.66 1.5,2.98 3.83,-0.53 11.24,-1.3 2.6,0.72 11.24,6.76 9,7.22 -4.82,4.84 -2.32,5.45 -0.44,5.61 -1.43,0.72 -1.01,2.45 -2.16,0.57 -1.88,3.19 -2.44,2.42 -2.01,3.02 -1.44,0.72 -3.18,3.02 -2.57,0.14 0.85,2.88 -4.48,4.88 -1.87,1.15 z"
           class="state sc"
           data-originalStrokeWidth="0.82"
           style="stroke:#000000" />
      </g>
      <g
         id="KY_group">
        <path
           id="KY"
           fill="#1abea9"
           fill-opacity="1"
           stroke="#000"
           stroke-dasharray="none"
           stroke-linecap="round"
           stroke-miterlimit="4"
           stroke-opacity="1"
           stroke-width="0.82"
           d="m 696.38,319.81 -2.05,2.12 -3.18,3.56 -4.39,4.86 -1.08,1.54 -0.05,1.85 -3.9,1.93 -5.03,3.02 -6.45,1.6 -46.21,4.35 -14.05,1.59 -4.13,0.45 -3.44,-0.02 -0.2,3.74 -7.3,0.13 -6.19,0.57 -7.12,-0.04 1.08,-1.17 2.23,-1.37 0.2,-2.85 0.8,-1.61 -1.43,-2.26 0.72,-1.7 2.02,-1.58 1.87,-0.57 2.46,1.15 3.16,1.15 1,-0.29 0.15,-2.01 -1.15,-2.16 0.28,-2 1.73,-1.3 2.31,-0.57 1.44,-0.56 -0.72,-1.59 -0.58,-1.71 1.34,-0.88 c 0,-0.05 1.1,-3.14 1.1,-3.26 l 2.72,-1.31 4.74,-0.87 4,-0.43 1.24,1.44 1.37,0.78 1.41,-2.77 2.84,-1.13 1.98,1.33 0.36,0.88 1.05,-0.24 -0.15,-2.62 2.8,-1.57 1.9,-0.96 1.37,1.48 2.96,-0.04 0.51,-1.4 -0.3,-2 2.3,-3.56 4.25,-3.05 0.61,-4.31 2.62,-0.41 3.37,-1.46 2.18,-1.52 -0.19,-1.39 -1.02,-1.3 0.51,-2.66 3.74,-0.1 2.05,-0.67 2.98,1.27 1.83,3.87 h 4.57 l 1.82,1.97 1.43,-0.14 2.32,-1.13 4.67,0.51 2.3,0.19 1.5,-1.83 2.34,-1.27 1.67,-0.62 0.58,2.5 1.82,0.95 2.37,1.85 0.1,5.03 0.72,1.42 2.3,1.37 0.7,2.06 3.7,3.04 1.62,3.22 2.18,1.48 z"
           class="state ky"
           data-originalStrokeWidth="0.82"
           style="fill:#1abea9;stroke:#000000" />
      </g>
      <g
         id="AL_group">
        <path
           id="AL"
           fill="#d1dbdd"
           fill-opacity="1"
           stroke="#000"
           stroke-dasharray="none"
           stroke-linecap="round"
           stroke-miterlimit="4"
           stroke-opacity="1"
           stroke-width="0.82"
           d="m 612.02,466.61 -1.33,-12.73 -2.45,-16.68 0.15,-12.5 0.71,-27.6 -0.14,-14.79 0.14,-5.7 39.46,-3.24 0.05,1.97 0.16,1.87 0.57,3.02 3.04,7.04 2.16,8.76 1.3,5.47 1.43,4.3 1.3,6.17 1.85,5.62 2.31,3.02 0.43,3.02 1.75,0.71 0.13,1.87 -1.58,4.32 -0.44,2.87 -0.14,1.72 1.43,3.9 0.3,4.72 -0.73,2.16 0.58,0.72 1.3,0.72 0.28,2.56 -4.98,-0.3 -6.06,0.57 -22.75,2.59 -9.28,1.25 -0.2,2.57 1.58,1.57 2.3,1.73 0.52,7.06 -4.93,2.28 -2.47,-0.29 2.47,-1.72 v -0.85 l -2.74,-5.31 -2.02,-0.58 -1.29,3.88 -1.15,2.45 -0.57,-0.15 h -2.45 z"
           class="state al"
           data-originalStrokeWidth="0.82"
           style="stroke:#000000" />
      </g>
      <g
         id="LA_group">
        <path
           id="LA"
           fill="#d1dbdd"
           fill-opacity="1"
           stroke="#000"
           stroke-dasharray="none"
           stroke-linecap="round"
           stroke-miterlimit="4"
           stroke-opacity="1"
           stroke-width="0.82"
           d="m 591.23,465.48 -2.93,-2.81 0.9,-4.89 -0.6,-0.8 -8.25,0.9 -22.28,0.42 -0.62,-2.14 0.82,-7.52 2.94,-5.29 4.49,-7.72 -0.52,-2.13 1.13,-0.61 0.41,-1.73 -2.05,-1.82 -0.1,-1.73 -1.63,-3.87 -0.14,-5.63 -49.43,0.82 0.03,8.5 0.62,8.34 0.62,3.45 2.23,3.66 0.82,4.47 3.86,4.88 0.2,2.84 0.62,0.62 -0.62,7.5 -2.67,4.48 1.44,1.83 -0.62,2.24 -0.61,6.5 -1.21,2.84 0.1,3.22 4.18,-1.36 10.78,0.2 9.22,3.16 5.75,1 3.33,-1.29 2.88,1 2.87,0.86 0.72,-1.85 -2.87,-1.02 -2.3,0.44 -2.47,-1.44 c 0,0 0.16,-1.15 0.74,-1.3 0.58,-0.14 2.73,-0.86 2.73,-0.86 l 1.58,1.3 1.6,-0.88 2.87,0.58 1.3,2.16 0.3,2.02 4.03,0.29 1.58,1.58 -0.72,1.44 -1.15,0.71 1.44,1.44 7.5,3.15 3.16,-1.15 0.86,-2.15 2.31,-0.58 1.6,-1.3 1.14,0.86 0.72,2.59 -2.01,0.72 0.59,0.56 3.02,-1.15 2.02,-3.02 0.72,-0.44 -1.87,-0.29 0.72,-1.43 -0.15,-1.3 1.87,-0.44 1,-1.13 0.58,0.72 c 0,0 -0.14,2.72 0.59,2.72 0.72,0 3.74,0.58 3.74,0.58 l 3.6,1.74 0.85,1.29 h 2.6 l 1,0.86 2.02,-2.74 v -1.3 h -1.13 l -3.04,-2.44 -5.18,-0.72 -2.88,-2.02 1,-2.45 2,0.29 0.15,-0.57 -1.58,-0.87 v -0.43 h 2.88 l 1.59,-2.72 -1.15,-1.72 -0.29,-2.44 -1.3,0.14 -1.72,1.87 -0.57,2.3 -2.74,-0.6 -0.86,-1.56 1.6,-1.73 1.7,-3.08 -0.95,-2.12 -1.02,-3.55 z"
           class="state la"
           data-originalStrokeWidth="0.82"
           style="stroke:#000000" />
      </g>
      <g
         id="MS_group">
        <path
           id="MS"
           fill="#d1dbdd"
           fill-opacity="1"
           stroke="#000"
           stroke-dasharray="none"
           stroke-linecap="round"
           stroke-miterlimit="4"
           stroke-opacity="1"
           stroke-width="0.82"
           d="m 612.25,465.65 -0.24,1.13 h -4.6 l -1.31,-0.72 -1.87,-0.3 -6.06,1.74 -1.57,-0.72 -2.31,3.72 -0.98,0.7 -1,-2.22 -1.03,-3.46 -3.06,-2.84 1.02,-4.93 -0.61,-0.82 -1.65,0.2 -7.04,0.79 -21.87,0.32 -0.68,-1.97 0.78,-7.44 2.77,-5.04 4.66,-8.14 -0.4,-2.16 1.1,-0.58 0.4,-1.7 -2.06,-1.85 -0.1,-1.91 -1.65,-3.66 -0.1,-5.3 1.2,-2.2 -0.21,-3.06 -1.58,-2.74 1.34,-1.31 -1.39,-2.22 0.41,-1.47 1.4,-5.81 2.23,-1.82 -0.58,-2.1 3.29,-4.73 2.5,-1.2 -0.2,-1.48 -0.25,-1.48 2.57,-4.95 2.09,-1.1 0.13,-0.79 33.27,-3.45 0.17,5.59 0.14,14.79 -0.72,27.6 -0.14,12.5 2.46,16.67 1.3,11.9 z"
           class="state ms"
           data-originalStrokeWidth="0.82"
           style="stroke:#000000" />
      </g>
      <g
         id="IA_group">
        <path
           id="IA"
           fill="#1abea9"
           fill-opacity="1"
           stroke="#000"
           stroke-dasharray="none"
           stroke-linecap="round"
           stroke-miterlimit="4"
           stroke-opacity="1"
           stroke-width="0.82"
           d="m 556.67,234.73 0.24,2.49 1.99,0.5 0.85,1.1 0.45,1.64 3.4,3 0.6,2.13 -0.6,3.03 -1.42,2.88 -0.71,2.43 -1.94,1.44 -1.52,0.5 -4.97,1.64 -1.23,3.43 0.64,1.23 1.64,1.49 -0.26,3.6 -1.57,1.35 -0.68,1.46 0.1,2.46 -1.67,0.41 -1.43,0.98 -0.27,1.2 0.26,1.88 -1.39,1 -2.2,-2.78 -1.13,-2.18 -58.56,2.23 -0.82,0.16 -1.83,-4 -0.2,-5.91 -1.43,-3.66 -0.61,-4.68 -2.06,-3.25 -0.82,-4.27 -2.43,-6.7 -1.03,-4.77 -1.2,-1.93 -1.45,-2.43 1.75,-4.32 1.23,-5.06 -2.44,-1.85 -0.41,-2.42 0.82,-2.23 h 1.52 l 73.63,-1.13 0.76,3.73 2,1.38 0.22,1.28 -1.81,3 0.17,2.86 2.24,3.37 2.26,1.15 2.73,0.45 0.6,0.72 z"
           class="state ia"
           data-originalStrokeWidth="0.82"
           style="fill:#1abea9;stroke:#000000" />
      </g>
      <g
         id="OK_group">
        <path
           id="OK"
           fill="#d1dbdd"
           fill-opacity="1"
           stroke="#000"
           stroke-dasharray="none"
           stroke-linecap="round"
           stroke-miterlimit="4"
           stroke-opacity="1"
           stroke-width="0.82"
           d="m 388.42,342.5 -14.86,-1.12 -0.8,9.73 18.24,1.03 28.55,1.16 -2.07,21.71 -0.41,15.85 0.2,1.43 3.87,3.24 1.85,1.03 0.62,-0.21 0.61,-1.83 1.22,1.62 h 1.82 v -1.23 l 2.45,1.23 -0.41,3.46 3.67,0.2 2.24,1.03 3.67,0.6 2.24,1.64 2.05,-1.85 3.04,0.61 2.26,3.05 h 0.82 v 2.03 l 2.03,0.61 2.03,-2.05 1.64,0.62 h 2.23 l 0.82,2.23 5.6,1.85 1.24,-0.61 1.62,-3.65 h 1.03 l 1,1.83 3.67,0.61 3.29,1.22 2.64,0.82 1.62,-0.82 0.62,-2.24 h 3.87 l 1.83,0.82 2.44,-1.85 h 1.03 l 0.61,1.44 h 3.66 l 1.44,-1.83 1.61,0.41 1.85,2.23 2.85,1.62 2.85,0.82 1.74,0.99 -0.36,-33.07 -1.23,-9.75 -0.13,-7.89 -1.28,-5.81 -0.7,-6.39 -0.05,-3.39 -10.83,0.29 -41.35,-0.41 -40.14,-1.83 -21.64,-1.23 z"
           class="state ok"
           data-originalStrokeWidth="0.82"
           style="stroke:#000000" />
      </g>
      <g
         id="TX_group">
        <path
           id="TX"
           fill="#d1dbdd"
           fill-opacity="1"
           stroke="#000"
           stroke-dasharray="none"
           stroke-linecap="round"
           stroke-miterlimit="4"
           stroke-opacity="1"
           stroke-width="0.82"
           d="m 371.6,351.19 20.22,0.95 27.7,1.03 -2.08,20.84 -0.27,16.13 0.06,1.85 3.87,3.4 1.77,1.29 1.05,-0.5 0.33,-1.62 1.02,1.6 1.88,0.05 v -1.28 l 1.48,0.86 1.03,0.35 -0.31,3.53 3.63,0.1 2.6,1.06 3.53,0.47 2.12,1.85 1.9,-1.85 3.32,0.53 1.98,2.88 0.95,0.28 -0.13,1.74 1.97,0.7 2.06,-1.83 1.9,0.55 1.99,0.03 0.82,2.15 5.65,1.9 1.4,-0.68 1.34,-3.72 h 0.3 l 0.81,0.07 1.09,1.83 3.51,0.6 2.98,0.99 3.05,1.06 1.64,-0.86 0.62,-2.24 3.97,0.04 1.61,0.82 2.5,-1.87 0.99,0.04 0.75,1.44 h 3.61 l 1.36,-1.8 1.66,0.35 1.75,2.13 3.12,1.81 2.54,0.72 1.36,0.72 2.18,1.77 2.7,-1.18 2.4,1.02 0.51,5.43 -0.04,8.62 0.62,8.48 0.62,3.2 2.39,3.93 0.8,4.4 3.77,4.93 0.17,2.79 0.67,0.7 -0.66,7.44 -2.56,4.47 1.36,1.91 -0.56,2.1 -0.6,6.57 -1.33,2.98 0.25,3.1 -5.05,1.42 -8.78,4.02 -0.87,1.73 -2.3,1.71 -1.87,1.3 -1.15,0.72 -5.03,4.75 -2.47,1.85 -4.75,2.87 -5.06,2.16 -5.61,3.03 -1.58,1.3 -5.18,3.16 -3.02,0.57 -3.46,4.89 -3.6,0.29 -0.86,1.72 2.02,1.73 -1.3,4.89 -1.15,4.02 -1,3.44 -0.72,4.03 0.71,2.15 1.59,6.16 0.87,5.48 1.58,2.44 -0.87,1.3 -2.74,1.72 -5.04,-3.44 -4.9,-1.03 -1.16,0.45 -2.87,-0.58 -3.75,-2.73 -4.62,-1 -6.76,-3.02 -1.87,-3.46 -1.16,-5.75 -2.87,-1.72 -0.58,-2 0.58,-0.58 0.28,-3.02 -1.15,-0.57 -0.57,-0.87 1.15,-3.88 -1.44,-2.01 -2.87,-1.15 -3.03,-3.88 -3.19,-5.89 -3.73,-2.3 0.14,-1.74 -4.75,-10.92 -0.71,-3.74 -1.6,-1.72 -0.14,-1.29 -5.34,-4.74 -2.29,-2.73 v -1.01 l -2.31,-1.87 -6.06,-1 -6.61,-0.58 -2.73,-2.01 -4.04,1.58 -3.18,1.3 -2,2.87 -0.87,3.3 -3.9,5.47 -2.16,2.15 -2.3,-0.87 -1.58,-0.99 -1.73,-0.57 -3.46,-2.01 v -0.58 l -1.58,-1.72 -4.62,-1.87 -6.62,-6.9 -2.03,-4.17 v -7.2 l -2.87,-5.74 -0.43,-2.44 -1.44,-0.85 -1.03,-1.87 -4.44,-1.87 -1.16,-1.43 -6.34,-7.04 -1.15,-2.87 -4.17,-2.02 -1.3,-3.88 -2.3,-2.59 -1.74,-0.43 -0.56,-4.16 7.11,0.62 25.88,2.43 25.86,1.44 2,-17.31 3.46,-49.4 1.44,-16.66 1.21,0.03 m 88.24,204.16 -0.52,-6.33 -2.43,-6.38 -0.51,-6.27 1.37,-7.3 2.94,-6.12 3.1,-4.8 2.8,-3.17 0.59,0.2 -4.24,5.91 -3.9,5.81 -1.8,5.9 -0.28,4.59 0.8,5.46 2.28,6.39 0.43,4.6 0.15,1.3 -0.8,0.2 z"
           class="state tx"
           data-originalStrokeWidth="0.82"
           style="stroke:#000000" />
      </g>
      <g
         id="NM_group">
        <path
           id="NM"
           fill="#d1dbdd"
           fill-opacity="1"
           stroke="#000"
           stroke-dasharray="none"
           stroke-linecap="round"
           stroke-miterlimit="4"
           stroke-opacity="1"
           stroke-width="0.82"
           d="m 306.28,434.24 -0.7,-4.2 7.7,0.45 26.89,2.61 24.3,1.5 1.97,-16.63 3.44,-49.67 1.54,-17.23 1.4,0.1 0.72,-9.92 -92.66,-9.44 -15.58,107.05 13.76,1.76 1.16,-8.9 26.04,2.51 z"
           class="state nm"
           data-originalStrokeWidth="0.82"
           style="stroke:#000000" />
      </g>
      <g
         id="KS_group">
        <path
           id="KS"
           fill="#1abea9"
           fill-opacity="1"
           stroke="#000"
           stroke-dasharray="none"
           stroke-linecap="round"
           stroke-miterlimit="4"
           stroke-opacity="1"
           stroke-width="0.82"
           d="m 502.06,345.67 -11.26,0.19 -41.06,-0.42 -39.7,-1.81 -21.94,-1.13 3.47,-57.4 19.68,0.6 35.9,0.73 39.47,0.89 h 4.54 l 1.95,1.92 1.8,-0.02 1.46,0.9 -0.06,2.67 -1.65,1.54 -0.28,1.99 1.64,3.02 2.63,2.84 2.07,1.44 1.16,9.99 0.17,32.07 z"
           class="state ks"
           data-originalStrokeWidth="0.82"
           style="fill:#1abea9;stroke:#000000" />
      </g>
      <g
         id="WY_group">
        <path
           id="WY"
           fill="#1abea9"
           fill-opacity="1"
           stroke="#000"
           stroke-dasharray="none"
           stroke-linecap="round"
           stroke-miterlimit="4"
           stroke-opacity="1"
           stroke-width="0.82"
           d="m 370.64,184.69 -95.1,-11.97 -12.57,78.64 100.91,12.06 6.74,-78.74 z"
           class="state wy"
           data-originalStrokeWidth="0.82"
           style="fill:#1abea9;stroke:#000000" />
      </g>
      <g
         id="MT_group">
        <path
           id="MT"
           fill="#1abea9"
           fill-opacity="1"
           stroke="#000"
           stroke-dasharray="none"
           stroke-linecap="round"
           stroke-miterlimit="4"
           stroke-opacity="1"
           stroke-width="0.82"
           d="m 378.5,107.97 -27.32,-2.5 -26.09,-3.16 -26.06,-3.6 -28.82,-4.71 -16.4,-3.03 -29.17,-6.16 -3.99,18.98 3.05,6.7 -1.23,4.07 1.65,4.06 2.85,1.24 4.1,9.55 2.41,2.83 0.41,1.03 3.06,1 0.41,1.83 -6.32,15.65 v 2.24 l 2.24,2.85 h 0.82 l 4.27,-2.65 0.62,-1.03 1.41,0.62 -0.2,4.68 2.44,11.2 2.65,2.22 0.82,0.62 1.63,2.02 -0.42,3.05 0.62,3.06 1.03,0.82 2.02,-2.05 h 2.44 l 2.88,1.44 2.23,-0.83 h 3.66 l 3.27,1.44 2.44,-0.4 0.42,-2.66 2.63,-0.61 1.24,1.23 0.4,2.84 1.27,0.74 1.67,-9.82 95.1,11.94 7.86,-76.71 z"
           class="state mt"
           data-originalStrokeWidth="0.82"
           style="fill:#1abea9;stroke:#000000" />
      </g>
      <g
         id="CO_group">
        <path
           id="CO"
           fill="#1abea9"
           fill-opacity="1"
           stroke="#000"
           stroke-dasharray="none"
           stroke-linecap="round"
           stroke-miterlimit="4"
           stroke-opacity="1"
           stroke-width="0.82"
           d="M 388.14,342.64 392.51,265.9 291.48,254.66 280.6,332.84 Z"
           class="state co"
           data-originalStrokeWidth="0.82"
           style="fill:#1abea9;stroke:#000000" />
      </g>
      <g
         id="UT_group">
        <path
           id="UT"
           fill="#1abea9"
           fill-opacity="1"
           stroke="#000"
           stroke-dasharray="none"
           stroke-linecap="round"
           stroke-miterlimit="4"
           stroke-opacity="1"
           stroke-width="0.82"
           d="m 280.75,332.99 -74.62,-10.56 18.35,-100.04 41.67,7.77 -1.32,9.45 -2.05,11.7 6.94,0.83 14.63,1.6 7.3,0.77 z"
           class="state ut"
           data-originalStrokeWidth="0.82"
           style="fill:#1abea9;stroke:#000000" />
      </g>
      <g
         id="AZ_group">
        <path
           id="AZ"
           fill="#1abea9"
           fill-opacity="1"
           stroke="#000"
           stroke-dasharray="none"
           stroke-linecap="round"
           stroke-miterlimit="4"
           stroke-opacity="1"
           stroke-width="0.82"
           d="m 178.65,397.45 -2.34,1.92 -0.29,1.3 0.44,0.86 16.84,9.47 10.81,6.75 13.1,7.62 15,8.92 10.93,2.15 22.24,2.4 15.37,-105.9 -74.6,-10.6 -2.76,14.6 -1.44,0.01 -1.52,2.34 -2.25,-0.1 -1.13,-2.43 -2.44,-0.31 -0.82,-1.03 h -0.8 l -0.82,0.52 -1.73,0.92 -0.1,6.2 -0.2,1.5 -0.52,11.2 -1.33,1.92 -0.5,2.94 2.44,4.38 1.13,5.18 0.7,0.93 0.92,0.51 -0.1,2.02 -1.44,1.24 -3.05,1.52 -1.73,1.72 -1.33,3.25 -0.52,4.36 -2.53,2.44 -1.83,0.61 0.12,0.74 -0.4,1.52 0.4,0.72 3.26,0.51 -0.51,2.43 -1.34,1.93 -3.35,0.82 z"
           class="state az"
           data-originalStrokeWidth="0.82"
           style="fill:#1abea9;stroke:#000000" />
      </g>
      <g
         id="NV_group">
        <path
           id="NV"
           fill="#1abea9"
           fill-opacity="1"
           stroke="#000"
           stroke-dasharray="none"
           stroke-linecap="round"
           stroke-miterlimit="4"
           stroke-opacity="1"
           stroke-width="0.82"
           d="m 224.53,222.28 -21.06,114.5 -1.64,0.34 -1.4,2.13 h -2.12 l -1.3,-2.43 -2.34,-0.33 -0.68,-0.98 -0.93,-0.05 -2.46,1.46 -0.28,6.04 -0.33,5.13 -0.3,7.63 -1.3,1.87 -2.15,-0.95 -61.56,-92.64 16.92,-60.08 82.95,18.36 z"
           class="state nv"
           data-originalStrokeWidth="0.82"
           style="fill:#1abea9;stroke:#000000" />
      </g>
      <g
         id="OR_group">
        <path
           id="OR"
           fill="#1abea9"
           fill-opacity="1"
           stroke="#000"
           stroke-dasharray="none"
           stroke-linecap="round"
           stroke-miterlimit="4"
           stroke-opacity="1"
           stroke-width="0.82"
           d="m 182.06,213.37 7.88,-30.94 0.92,-3.77 2.1,-5 -0.54,-1.02 -2.25,-0.05 -1.13,-1.5 0.4,-1.3 0.45,-2.87 3.96,-4.89 1.62,-0.97 1.03,-1.03 1.32,-3.16 3.59,-5.05 3.18,-3.43 0.2,-3.09 -2.9,-2.17 -1.59,-4.13 -11.3,-3.22 -13.43,-3.15 -13.76,0.1 -0.39,-1.23 -4.89,1.85 -3.97,-0.51 -2.16,-1.42 -1.13,0.62 -4.16,-0.2 -1.54,-1.24 -4.67,-1.83 -0.72,0.1 -3.86,-1.31 -1.75,1.62 -5.49,-0.3 -5.3,-3.66 0.62,-0.72 0.2,-6.9 -2.05,-3.46 -3.66,-0.52 -0.61,-2.24 -2.1,-0.4 -5.16,1.82 -2,5.75 -2.88,8.9 -2.9,5.76 -4.45,12.5 -5.79,12.08 -7.2,11.2 -1.73,2.6 -0.72,7.61 0.34,10.75 100.33,23.41 z"
           class="state or"
           data-originalStrokeWidth="0.82"
           style="fill:#1abea9;stroke:#000000" />
      </g>
      <g
         id="WA_group">
        <path
           id="WA"
           fill="#1abea9"
           fill-opacity="1"
           stroke="#000"
           stroke-dasharray="none"
           stroke-linecap="round"
           stroke-miterlimit="4"
           stroke-opacity="1"
           stroke-width="0.82"
           d="m 140.5,64.1 3.87,1.29 8.65,2.44 7.63,1.73 17.87,5.03 20.44,5.03 13.57,2.85 -12.15,56.52 -11.09,-3.13 -13.81,-3.19 -13.59,0.03 -0.4,-1.19 -4.99,1.93 -4.1,-0.65 -1.9,-1.41 -1.18,0.58 -4.2,-0.12 -1.53,-1.2 -4.69,-1.88 -0.65,0.13 -3.9,-1.35 -1.7,1.61 -5.58,-0.27 -5.28,-3.66 0.69,-0.82 0.1,-6.83 -2.03,-3.42 -3.67,-0.55 -0.61,-2.24 -2.02,-0.4 -3.18,1.08 -2.01,-2.85 0.28,-2.6 2.45,-0.28 1.44,-3.6 -2.3,-1 0.14,-3.3 3.9,-0.58 -2.46,-2.44 -1.3,-6.32 0.58,-2.6 v -7.01 l -1.54,-2.88 2,-8.32 1.88,0.43 2.16,2.6 2.46,2.28 2.88,1.73 4.02,1.87 2.73,0.57 2.6,1.3 3.02,0.85 2.02,-0.15 v -2.13 l 1.15,-1.03 1.85,-1.13 0.31,1 0.28,1.58 -2.01,0.44 -0.28,1.87 1.58,1.3 1,2.15 0.58,1.75 1.32,-0.16 0.14,-1.15 -0.86,-1.15 -0.43,-2.87 0.72,-1.57 -0.58,-1.3 v -2 l 1.58,-3.15 -1,-2.3 -2.16,-4.32 0.28,-0.72 1,-0.71 z m -8.42,5.3 1.78,-0.13 0.43,1.23 1.38,-1.44 h 2.08 l 0.72,1.36 -1.37,1.5 0.58,0.72 -0.65,1.8 -1.23,0.37 c 0,0 -0.78,0.07 -0.78,-0.21 0,-0.3 1.28,-2.31 1.28,-2.31 l -1.5,-0.5 -0.32,1.3 -0.63,0.58 -1.37,-2.02 -0.43,-2.26 z"
           class="state wa"
           data-originalStrokeWidth="0.82"
           style="fill:#1abea9;stroke:#000000" />
      </g>
      <g
         id="CA_group">
        <path
           id="CA"
           fill="#1abea9"
           fill-opacity="1"
           stroke="#000"
           stroke-dasharray="none"
           stroke-linecap="round"
           stroke-miterlimit="4"
           stroke-opacity="1"
           stroke-width="0.82"
           d="m 178.47,397.07 3.49,-0.43 1.33,-1.79 0.49,-2.62 -3.17,-0.51 -0.46,-0.62 0.41,-1.8 -0.13,-0.5 1.71,-0.56 2.7,-2.53 0.52,-4.44 1.23,-3.02 1.75,-1.93 3.12,-1.41 1.48,-1.44 0.07,-1.85 -0.9,-0.51 -0.9,-0.97 -1.02,-5.2 -2.4,-4.29 0.5,-3.12 -2.15,-0.92 -61.54,-92.61 16.84,-60.08 -59.77,-13.96 -1.34,4.2 -0.15,6.62 -4.6,10.5 -2.73,2.3 -0.29,1 -1.58,0.72 -1.3,3.74 -0.72,2.87 2.46,3.73 1.44,3.74 1,3.15 -0.3,5.75 -1.57,2.74 -0.58,5.16 -0.87,3.3 1.6,3.46 2.44,4.02 2.03,4.32 1.16,3.6 -0.3,2.87 -0.28,0.4 v 1.89 l 5.03,5.6 -0.43,2.15 -0.57,2.01 -0.59,1.75 0.15,7.31 1.88,3.3 1.72,2.3 2.44,0.44 0.88,2.44 -1,3.17 -1.88,1.43 h -1 l -0.72,3.44 0.43,2.6 2.87,3.88 1.44,4.76 1.3,4.17 1.17,2.72 3.03,5.17 1.29,2.3 0.43,2.58 1.44,0.87 v 2.15 l -0.72,1.73 -1.58,6.32 -0.43,1.73 2.15,2.43 3.75,0.43 4.03,1.58 3.46,1.86 h 2.59 l 2.6,2.74 2.28,4.3 1.01,2.03 3.47,1.87 4.31,0.72 1.3,1.85 0.58,2.87 -1.28,0.59 0.29,0.85 2.87,0.72 2.47,0.14 2.8,-1.5 3.46,3.74 0.72,2.02 2.3,3.73 0.29,2.88 v 8.32 l 0.43,1.59 8.93,1.3 17.57,2.44 12.34,1.2 z m -78.53,-38.85 1.15,1.37 -0.15,1.15 -2.87,-0.09 -0.51,-1.07 -0.57,-1.3 z m 1.72,0 1.1,-0.58 3.18,1.87 2.72,1.08 -0.78,0.58 -4.04,-0.2 -1.44,-1.45 -0.72,-1.29 z m 18.45,17.6 1.59,2.09 0.72,0.87 1.37,0.51 0.52,-1.3 -0.88,-1.58 -2.39,-1.8 -0.92,0.13 v 1.08 z m -1.3,7.7 1.58,2.8 1.1,1.72 -1.31,0.2 -1.15,-1.06 c 0,0 -0.64,-1.3 -0.64,-1.64 v -1.95 z"
           class="state ca"
           data-originalStrokeWidth="0.82"
           style="fill:#1abea9;stroke:#000000" />
      </g>
      <g
         id="TN_group">
        <path
           id="TN"
           fill="#1abea9"
           fill-opacity="1"
           stroke="#000"
           stroke-dasharray="none"
           stroke-linecap="round"
           stroke-miterlimit="4"
           stroke-opacity="1"
           stroke-width="0.82"
           d="m 670.27,340.23 -46.24,4.45 -14.04,1.59 -4.11,0.46 -3.46,-0.02 -0.2,3.64 -7.3,0.24 -6.18,0.59 -6.78,-0.21 -1.15,1.22 -0.7,5.18 -1.34,4.84 -0.48,2.47 -1.2,3.88 -0.3,2.3 -2.99,1.86 1.9,2.86 -0.02,2.2 0.06,2.25 90.92,-8.67 0.35,-3.52 1.62,-1.33 2.53,-0.66 0.62,-3.29 3.63,-2.4 3.62,-1.34 3.64,-3.17 3.95,-1.8 0.48,-2.73 3.62,-3.53 0.48,-0.1 c 0,0 0.03,1.03 0.75,1.03 0.72,0 1.72,0.3 1.72,0.3 l 2.03,-3.18 1.84,-0.59 2.03,0.25 1.42,-3.14 2.63,-2.34 0.37,-1.73 0.28,-3.3 -1.9,-0.18 -2.33,1.8 h -6.25 l -16.33,2.14 -7.2,1.7 z"
           class="state tn"
           data-originalStrokeWidth="0.82"
           style="fill:#1abea9;stroke:#000000" />
      </g>
      <g
         id="AR_group">
        <path
           id="AR"
           fill="#d1dbdd"
           fill-opacity="1"
           stroke="#000"
           stroke-dasharray="none"
           stroke-linecap="round"
           stroke-miterlimit="4"
           stroke-opacity="1"
           stroke-width="0.82"
           d="m 578.63,362.28 -3.56,0.63 -4.55,-0.56 0.37,-1.44 2.67,-2.26 0.82,-3.26 -1.62,-2.65 -69.86,2.23 1.42,6.1 v 7.32 l 1.23,9.75 0.2,33.63 2.04,1.75 2.64,-1.23 2.44,1.03 0.62,5.83 49.55,-1 1.02,-1.86 -0.25,-3.16 -1.65,-2.65 1.44,-1.31 -1.44,-2.24 0.62,-2.23 1.23,-4.97 2.24,-1.85 -0.62,-2.01 3.3,-4.78 2.42,-1.23 -0.1,-1.31 -0.3,-1.63 2.54,-4.99 2.14,-1.13 0.05,-3.03 0.01,-2.2 -1.89,-2.85 3,-1.86 0.29,-2.3 1.2,-3.88 0.36,-2.41 z"
           class="state ar"
           data-originalStrokeWidth="0.82"
           style="stroke:#000000" />
      </g>
      <g
         id="Palau_group" />
      <g
         id="Federated_States_of_Micronesia_group" />
      <g
         id="Guam_group" />
      <g
         id="Northern_Mariana_Islands_group" />
      <g
         id="American_Samoa_group" />
      <g
         id="United_States_Virgin_Islands_group" />
      <g
         id="Marshall_Islands_group" />
      <g
         id="Puerto_Rico_group" />
      <g
         id="MD_line_group">
        <path
           id="MD"
           fill="#d1dbdd"
           fill-opacity="1"
           stroke="#000"
           stroke-dasharray="none"
           stroke-linecap="round"
           stroke-miterlimit="4"
           stroke-opacity="1"
           stroke-width="0.82"
           d="m 797.77,281.71 -5.36,1.06 -4.58,0.1 -1.64,-6.16 -1.71,-8.14 -2.28,-5.5 -1.15,-3.9 -6.68,1.44 -13.27,2.5 -33.37,6.72 1.02,4.45 0.86,5.03 0.28,-0.28 1.88,-2.15 2.02,-2.32 2.15,-0.56 1.3,-1.3 1.6,-2.28 1.15,0.56 2.6,-0.3 2.3,-1.86 1.78,-1.29 1.65,-0.43 1.47,1 2.6,1.3 1.74,1.57 1.07,1.36 3.67,1.5 v 2.57 l 4.9,1.16 1.02,0.49 1.26,-1.8 2.57,1.75 -1.13,2.2 -0.69,3.55 -1.58,2.3 v 1.85 l 0.58,1.59 4.51,1.2 3.83,-0.05 2.76,0.86 1.87,0.3 0.86,-1.87 -1.3,-1.87 v -1.58 l -2.15,-1.85 -1.88,-4.9 1.15,-4.74 -0.15,-1.85 -1.15,-1.16 c 0,0 1.3,-1.44 1.3,-2 0,-0.58 0.45,-1.87 0.45,-1.87 l 1.73,-1.15 1.72,-1.44 0.43,0.86 -1.3,1.44 -1.14,3.3 0.29,1 1.58,0.3 0.43,4.89 -1.87,0.86 0.29,3.15 0.43,-0.14 1,-1.73 1.44,1.59 -1.44,1.12 -0.28,3.03 2.3,3.02 3.46,0.41 1.44,-0.71 2.87,3.72 1.23,0.48 5.92,-2.5 1.78,-3.57 -0.38,-4.38 z m -14.23,8.02 1,2.22 0.15,1.58 1.03,1.65 c 0,0 0.78,-0.78 0.78,-1.07 0,-0.29 -0.65,-2.73 -0.65,-2.73 l -0.66,-2.08 z"
           class="state md"
           data-originalStrokeWidth="0.82"
           style="stroke:#000000" />
      </g>
      <g
         id="DE_line_group">
        <path
           id="DE"
           fill="#d1dbdd"
           fill-opacity="1"
           stroke="#000"
           stroke-dasharray="none"
           stroke-linecap="round"
           stroke-miterlimit="4"
           stroke-opacity="1"
           stroke-width="0.82"
           d="m 785.15,260.25 0.33,-1.91 0.31,-1.51 -1.44,0.35 -1.44,0.41 -1.95,1.57 1.52,4.49 2.02,5.03 1.88,8.63 1.43,5.6 4.47,-0.15 5.47,-1.05 -2.02,-6.57 -0.86,0.43 -3.19,-2.15 -1.57,-4.16 -1.71,-3.17 -2.8,-2.56 -0.78,-1.85 z"
           class="state de"
           data-originalStrokeWidth="0.82"
           style="stroke:#000000" />
      </g>
      <g
         id="NJ_line_group">
        <path
           id="NJ"
           fill="#d1dbdd"
           fill-opacity="1"
           stroke="#000"
           stroke-dasharray="none"
           stroke-linecap="round"
           stroke-miterlimit="4"
           stroke-opacity="1"
           stroke-width="0.82"
           d="m 788.76,224.85 -2.06,2.44 v 2.73 l -1.74,2.74 -0.15,1.44 1.16,1.13 -0.14,2.15 -2.02,1.03 0.72,2.43 0.14,1.01 2.46,0.29 0.86,2.3 3.18,2.15 2.16,1.44 v 0.72 l -2.67,2.4 -1.44,2 -1.3,2.45 -2.02,1.16 -0.4,1.44 -0.21,1.07 -0.56,2.3 0.98,2 2.9,2.59 4.3,2.01 3.6,0.58 0.15,1.29 -0.71,0.86 0.28,2.45 h 0.72 l 1.87,-2.16 0.72,-4.31 2.47,-3.6 2.72,-5.75 1.02,-4.88 -0.58,-1 -0.16,-8.34 -1.43,-3.01 -1.01,0.72 -2.44,0.29 -0.44,-0.44 1.01,-0.86 1.87,-1.72 0.06,-0.98 -0.35,-3.06 0.52,-2.44 -0.1,-1.75 -2.51,-1.56 -4.54,-1.05 -3.7,-1.23 z"
           class="state nj"
           data-originalStrokeWidth="0.82"
           style="stroke:#000000" />
      </g>
      <g
         id="MI_group">
        <path
           id="MI"
           fill="#d1dbdd"
           fill-opacity="1"
           stroke="#000"
           stroke-dasharray="none"
           stroke-linecap="round"
           stroke-miterlimit="4"
           stroke-opacity="1"
           stroke-width="0.82"
           d="m 578.12,123.77 -2.01,0.5 -4.8,3.46 -1.92,0.72 -1.64,1.83 1.44,1 1.85,-0.81 2.93,-1.72 4.58,-4.58 -0.4,-0.41 z m 9.96,12.65 -4.2,0.41 -3.88,2.18 -2.02,1.98 -1.16,1.6 -1.57,0.7 -1.73,2.59 -0.15,1.16 -3.9,1.85 -2.16,1.74 -5.32,0.87 -0.59,0.56 v 0.86 l -3.18,2.02 -2.43,0.72 -0.64,0.51 3.34,4.58 7.01,1 7.33,1.93 2.54,0.92 10.78,2.47 1.85,2 3.16,1.23 1.73,9.14 1.23,0.9 1.03,0.93 2.83,-6.22 0.89,-3.59 1.72,-3.88 0.72,-0.12 1,1.43 h 0.57 l 4.03,-2.17 1.3,1.43 0.41,0.17 1.15,-1.03 1.03,-2.72 2.16,-0.72 6.19,-0.6 1.72,-2.28 4.62,-0.16 5.18,1.16 h 1.58 l 2.88,-1.3 2.03,0.15 1.87,-0.56 3.32,0.4 0.72,0.32 1.16,-0.31 -1.16,-0.85 -1.16,-0.57 -2.88,-2.73 v -6.18 l -1.3,-0.44 -1.01,1.02 -5.47,1.44 -1.72,0.41 -2.59,-0.7 -0.44,-0.3 v -5.02 l -1.3,-0.14 -2.3,1.15 -4.03,1.72 -5.91,0.27 -3.01,1.03 -3.6,3.16 -1.46,0.86 h -1 l -1.13,0.72 -1.46,-0.4 -1.44,-1.18 -1.3,0.86 -3.48,0.15 -2.43,-2.47 -1.3,-2.73 -1.28,-0.97 -2.88,-0.86 h -2.02 l -1.15,-1.16 -3.19,2.6 -0.85,1 -0.72,-0.44 0.27,-2.28 2.16,-2.88 0.45,-2.16 2.02,-0.72 1.28,-2.74 3.32,-0.85 0.3,-0.86 -1.02,-0.99 z m 59.26,20.61 -1.95,0.2 -1.44,0.17 -0.3,1 0.88,0.42 0.57,2.26 2.87,0.13 1.16,-1.07 c 0,0 -0.08,-1.31 -0.36,-1.45 a 13,13 0 0 1 -1.44,-1.65 z m -14.48,8.27 -2.6,1.56 -2.59,2.02 0.31,3.15 0.85,0.28 1.87,0.45 0.41,0.72 -2.28,0.72 -2.3,0.28 -1.31,1.58 -0.28,1.85 0.28,1.44 0.3,4.9 -3.18,1.87 -0.57,-0.16 v -3.75 l 1.16,-2.15 0.56,-2.16 -0.72,-0.72 -1.71,0.72 -0.86,3.75 -2.47,0.98 -1.57,1.75 -0.14,0.85 0.56,0.74 -0.55,2.3 -2.02,0.43 v 1 l 0.72,2.16 -1.02,5.47 -1.42,3.6 0.56,4.15 0.44,1 -0.73,2.17 -0.27,0.71 -0.31,2.45 3.18,5.34 2.6,5.75 1.3,4.31 -0.72,4.15 -0.88,5.32 -2.13,4.6 -0.31,2.44 -2.9,2.73 3.9,-0.13 19.1,-2 6.5,-0.9 0.1,1.49 6.1,-1.06 9.16,-1.37 3.45,-0.39 0.12,-0.55 0.15,-1.27 1.87,-3.31 1.77,-1.54 -0.2,-4.52 1.44,-1.4 0.97,-0.3 0.2,-3.17 1.34,-2.7 0.95,0.53 0.14,0.6 0.72,0.14 1.75,-0.86 -0.3,-8.5 -2.87,-7.32 -2.02,-8.05 -2.16,-2.86 -2.32,-1.6 -1.44,1.03 -3.45,1.58 -1.74,4.45 -2.44,3.31 -1,0.57 -1.32,-0.58 c 0,0 -2.3,-1.3 -2.15,-1.88 0.13,-0.56 0.43,-4.44 0.43,-4.44 l 3.03,-1.16 0.7,-3 0.6,-2.32 2.13,-1.43 -0.27,-8.9 -1.46,-2.02 -1.15,-0.72 -0.72,-1.87 0.72,-0.72 1.44,0.31 0.16,-1.46 -2.15,-2.02 -1.17,-2.28 h -2.31 l -4,-1.3 -4.9,-3 h -2.47 l -0.57,0.57 -0.86,-0.4 z"
           data-originalStrokeWidth="0.82"
           style="fill:#d1dbdd;stroke:#000000"
           class="" />
      </g>
      <g
         id="DC_group">
        <path
           id="DC"
           fill="#d1dbdd"
           fill-opacity="1"
           stroke="#000"
           stroke-dasharray="none"
           stroke-linecap="round"
           stroke-miterlimit="4"
           stroke-opacity="1"
           stroke-width="0.82"
           d="m 772.86,280.3 a 5.35,5.35 0 0 1 -10.7,0 5.34,5.34 0 0 1 10.68,0 z"
           data-originalStrokeWidth="0.82"
           style="stroke:#000000"
           class="" />
      </g>
      <g
         id="NE_group">
        <path
           id="NE"
           fill="#1abea9"
           fill-opacity="1"
           stroke="#000"
           stroke-dasharray="none"
           stroke-linecap="round"
           stroke-miterlimit="4"
           stroke-opacity="1"
           stroke-width="0.82"
           d="m 482.65,271.29 2.87,6.24 -0.12,2.06 3.08,4.88 2.42,2.79 h -4.5 l -38.73,-0.82 -36.35,-0.8 -19.82,-0.7 1.01,-19.04 -28.7,-3.28 3.73,-38.37 13.86,0.92 17.92,1.03 15.89,1 21.18,1.03 9.58,-0.41 1.84,2.02 4.27,2.64 1.02,0.82 3.86,-1.23 3.47,-0.41 2.45,-0.2 1.62,1.23 3.62,1.43 2.65,1.41 0.4,1.42 0.83,1.83 h 1.62 l 0.72,0.04 0.79,4.16 2.6,7.52 0.51,3.34 2.26,3.36 0.5,4.55 1.43,3.77 0.2,5.75 z"
           class="state ne"
           data-originalStrokeWidth="0.82"
           style="fill:#1abea9;stroke:#000000" />
      </g>
      <g
         id="SD_group">
        <path
           id="SD"
           fill="#1abea9"
           fill-opacity="1"
           stroke="#000"
           stroke-dasharray="none"
           stroke-linecap="round"
           stroke-miterlimit="4"
           stroke-opacity="1"
           stroke-width="0.82"
           d="m 474.05,238.68 -0.05,-0.5 -2.57,-4.32 1.65,-4.18 1.33,-5.24 -2.48,-1.85 -0.34,-2.43 0.72,-2.26 h 2.82 l -0.1,-4.44 -0.31,-26.82 -0.54,-3.35 -3.63,-2.98 -0.88,-1.48 -0.05,-1.43 1.8,-1.34 1.37,-1.5 0.2,-2.36 -51.9,-1.42 -48.82,-3.08 -4.74,56.63 13,0.82 17.76,1.06 15.82,0.82 21.19,1.15 10.65,-0.38 1.75,2 4.64,2.88 0.68,0.65 4.05,-1.29 5.82,-0.54 1.5,1.19 3.75,1.43 2.62,1.44 0.35,1.34 0.93,1.98 2,-0.19 z"
           class="state sd"
           data-originalStrokeWidth="0.82"
           style="fill:#1abea9;stroke:#000000" />
      </g>
      <g
         id="ND_group">
        <path
           id="ND"
           fill="#1abea9"
           fill-opacity="1"
           stroke="#000"
           stroke-dasharray="none"
           stroke-linecap="round"
           stroke-miterlimit="4"
           stroke-opacity="1"
           stroke-width="0.82"
           d="m 473.02,171.93 -0.54,-7.5 -1.5,-6.05 -1.68,-11.59 -0.41,-9.75 -1.54,-2.75 -1.58,-4.63 0.04,-9.28 0.55,-3.39 -1.64,-4.88 -25.51,-0.48 -16.57,-0.57 -23.62,-1.15 -20.43,-1.9 -6.25,59.71 48.94,2.98 z"
           class="state nd"
           data-originalStrokeWidth="0.82"
           style="fill:#1abea9;stroke:#000000" />
      </g>
    </svg>
  </g>
</svg>
